  0
SECTION
  2
HEADER
  9
$ACADVER
  1
AC1009
  9
$EXTMAX
 10
789.585998535156
 20
226.717147827148
 30
0.0
  9
$EXTMIN
 10
2.4214513301849
 20
1.7432805299759
 30
0.0
  9
$INSUNITS
 70
     4
  9
$LUNITS
 70
     2
  9
$LUPREC
 70
     4
  9
$MEASUREMENT
 70
     1
  0
ENDSEC
  0
SECTION
  2
TABLES
  0
TABLE
  2
LAYER
 70
     1
  0
LAYER
  2
0
 70
     0
 62
     7
  6
Continuous
  0
LAYER
  2
1
 70
     0
 62
     7
  6
Continuous
  0
ENDTAB
  0
TABLE
  2
APPID
 70
     1
  0
APPID
  2
ACAD
 70
     0
  0
ENDTAB
  0
ENDSEC
  0
SECTION
  2
ENTITIES
  0
POLYLINE
  8
1
 66
     1
 10
0.0
 20
0.0
 30
0.0
 70
     1
  0
VERTEX
  8
1
 10
62.4901187615088
 20
100.087813157607
 42
0.0
  0
VERTEX
  8
1
 10
72.4901187615088
 20
100.087813157607
 42
0.0
  0
VERTEX
  8
1
 10
72.4901187615088
 20
150.087813157607
 42
0.0
  0
VERTEX
  8
1
 10
62.4901187615088
 20
150.087813157607
 42
0.0
  0
VERTEX
  8
1
 10
62.4901187615088
 20
145.087813157607
 42
0.0
  0
VERTEX
  8
1
 10
17.4901187615088
 20
145.087813157607
 42
0.0
  0
VERTEX
  8
1
 10
17.4901187615088
 20
150.087813157607
 42
0.0
  0
VERTEX
  8
1
 10
3.4901187615088
 20
150.087813157607
 42
0.0
  0
VERTEX
  8
1
 10
3.4901187615088
 20
140.087813157607
 42
0.0
  0
VERTEX
  8
1
 10
7.4901187615088
 20
140.087813157607
 42
0.0
  0
VERTEX
  8
1
 10
7.4901187615088
 20
110.087813157607
 42
0.0
  0
VERTEX
  8
1
 10
3.4901187615088
 20
110.087813157607
 42
0.0
  0
VERTEX
  8
1
 10
3.4901187615088
 20
100.087813157607
 42
0.0
  0
VERTEX
  8
1
 10
17.4901187615088
 20
100.087813157607
 42
0.0
  0
VERTEX
  8
1
 10
17.4901187615088
 20
105.087813157607
 42
0.0
  0
VERTEX
  8
1
 10
62.4901187615088
 20
105.087813157607
 42
0.0
  0
SEQEND
  0
POLYLINE
  8
1
 66
     1
 10
0.0
 20
0.0
 30
0.0
 70
     1
  0
VERTEX
  8
1
 10
32.4901187615088
 20
119.087813157607
 42
0.0
  0
VERTEX
  8
1
 10
62.4901187615088
 20
119.087813157607
 42
0.0
  0
VERTEX
  8
1
 10
62.4901187615088
 20
133.087813157607
 42
0.0
  0
VERTEX
  8
1
 10
32.4901187615088
 20
133.087813157607
 42
0.0
  0
SEQEND
  0
POLYLINE
  8
1
 66
     1
 10
0.0
 20
0.0
 30
0.0
 70
     1
  0
VERTEX
  8
1
 10
195.174732862261
 20
132.654864740646
 42
0.0
  0
VERTEX
  8
1
 10
194.764785213194
 20
133.32383850341
 42
0.0
  0
VERTEX
  8
1
 10
194.46453525266
 20
134.048706030233
 42
0.0
  0
VERTEX
  8
1
 10
194.28137613116
 20
134.811618676907
 42
0.0
  0
VERTEX
  8
1
 10
194.219817834136
 20
135.593791002108
 42
0.0
  0
VERTEX
  8
1
 10
194.219817834136
 20
150.593791002108
 42
0.0
  0
VERTEX
  8
1
 10
199.219817834136
 20
150.593791002108
 42
0.0
  0
VERTEX
  8
1
 10
199.219817834136
 20
155.593791002108
 42
0.0
  0
VERTEX
  8
1
 10
209.219817834136
 20
155.593791002108
 42
0.0
  0
VERTEX
  8
1
 10
209.219817834136
 20
150.593791002108
 42
0.0
  0
VERTEX
  8
1
 10
214.219817834136
 20
150.593791002108
 42
0.0
  0
VERTEX
  8
1
 10
214.219817834136
 20
135.593791002108
 42
0.0
  0
VERTEX
  8
1
 10
214.158259537111
 20
134.811618676907
 42
0.0
  0
VERTEX
  8
1
 10
213.975100415611
 20
134.048706030233
 42
0.0
  0
VERTEX
  8
1
 10
213.674850455077
 20
133.32383850341
 42
0.0
  0
VERTEX
  8
1
 10
213.26490280601
 20
132.654864740646
 42
0.0
  0
VERTEX
  8
1
 10
212.755351740068
 20
132.058257096175
 42
0.0
  0
VERTEX
  8
1
 10
212.158744095598
 20
131.548706030233
 42
0.0
  0
VERTEX
  8
1
 10
211.489770332833
 20
131.138758381166
 42
0.0
  0
VERTEX
  8
1
 10
210.76490280601
 20
130.838508420632
 42
0.0
  0
VERTEX
  8
1
 10
210.001990159337
 20
130.655349299132
 42
0.0
  0
VERTEX
  8
1
 10
209.219817834136
 20
130.593791002108
 42
0.0
  0
VERTEX
  8
1
 10
199.219817834136
 20
130.593791002108
 42
0.0
  0
VERTEX
  8
1
 10
198.437645508935
 20
130.655349299132
 42
0.0
  0
VERTEX
  8
1
 10
197.674732862261
 20
130.838508420632
 42
0.0
  0
VERTEX
  8
1
 10
196.949865335438
 20
131.138758381166
 42
0.0
  0
VERTEX
  8
1
 10
196.280891572673
 20
131.548706030233
 42
0.0
  0
VERTEX
  8
1
 10
195.684283928203
 20
132.058257096175
 42
0.0
  0
SEQEND
  0
POLYLINE
  8
1
 66
     1
 10
0.0
 20
0.0
 30
0.0
 70
     1
  0
VERTEX
  8
1
 10
199.46453525266
 20
142.138875973983
 42
0.0
  0
VERTEX
  8
1
 10
200.174732862261
 20
143.53271726357
 42
0.0
  0
VERTEX
  8
1
 10
201.280891572673
 20
144.638875973983
 42
0.0
  0
VERTEX
  8
1
 10
202.674732862261
 20
145.349073583584
 42
0.0
  0
VERTEX
  8
1
 10
204.219817834136
 20
145.593791002108
 42
0.0
  0
VERTEX
  8
1
 10
205.76490280601
 20
145.349073583584
 42
0.0
  0
VERTEX
  8
1
 10
207.158744095598
 20
144.638875973983
 42
0.0
  0
VERTEX
  8
1
 10
208.26490280601
 20
143.53271726357
 42
0.0
  0
VERTEX
  8
1
 10
208.975100415612
 20
142.138875973983
 42
0.0
  0
VERTEX
  8
1
 10
209.219817834136
 20
140.593791002108
 42
0.0
  0
VERTEX
  8
1
 10
208.975100415611
 20
139.048706030233
 42
0.0
  0
VERTEX
  8
1
 10
208.26490280601
 20
137.654864740646
 42
0.0
  0
VERTEX
  8
1
 10
207.158744095598
 20
136.548706030233
 42
0.0
  0
VERTEX
  8
1
 10
206.219817834136
 20
136.07029920482
 42
0.0
  0
VERTEX
  8
1
 10
206.219817834136
 20
133.593791002108
 42
0.0
  0
VERTEX
  8
1
 10
202.219817834136
 20
133.593791002108
 42
0.0
  0
VERTEX
  8
1
 10
202.219817834136
 20
136.07029920482
 42
0.0
  0
VERTEX
  8
1
 10
201.280891572673
 20
136.548706030233
 42
0.0
  0
VERTEX
  8
1
 10
200.174732862261
 20
137.654864740646
 42
0.0
  0
VERTEX
  8
1
 10
199.46453525266
 20
139.048706030233
 42
0.0
  0
VERTEX
  8
1
 10
199.219817834136
 20
140.593791002108
 42
0.0
  0
SEQEND
  0
POLYLINE
  8
1
 66
     1
 10
0.0
 20
0.0
 30
0.0
 70
     1
  0
VERTEX
  8
1
 10
298.561391413595
 20
101.741983315686
 42
0.0
  0
VERTEX
  8
1
 10
298.131776124642
 20
101.656990820752
 42
0.0
  0
VERTEX
  8
1
 10
297.70885912593
 20
101.543262051752
 42
0.0
  0
VERTEX
  8
1
 10
297.294560240625
 20
101.401313278134
 42
0.0
  0
VERTEX
  8
1
 10
296.890760170138
 20
101.231788873483
 42
0.0
  0
VERTEX
  8
1
 10
296.499291956724
 20
101.035458390409
 42
0.0
  0
VERTEX
  8
1
 10
296.121932662423
 20
100.813213067169
 42
0.0
  0
VERTEX
  8
1
 10
295.760395302122
 20
100.566061781914
 42
0.0
  0
VERTEX
  8
1
 10
292.902974104875
 20
105.838506269592
 42
0.0
  0
VERTEX
  8
1
 10
264.205810145449
 20
105.838506269592
 42
0.0
  0
VERTEX
  8
1
 10
263.580072285289
 20
105.887752907211
 42
0.0
  0
VERTEX
  8
1
 10
262.96974216795
 20
106.034280204411
 42
0.0
  0
VERTEX
  8
1
 10
262.389848146491
 20
106.274480172838
 42
0.0
  0
VERTEX
  8
1
 10
261.854669136279
 20
106.602438292092
 42
0.0
  0
VERTEX
  8
1
 10
261.377383020703
 20
107.010079144845
 42
0.0
  0
VERTEX
  8
1
 10
260.96974216795
 20
107.487365260422
 42
0.0
  0
VERTEX
  8
1
 10
260.641784048696
 20
108.022544270633
 42
0.0
  0
VERTEX
  8
1
 10
260.401584080269
 20
108.602438292092
 42
0.0
  0
VERTEX
  8
1
 10
260.255056783069
 20
109.212768409431
 42
0.0
  0
VERTEX
  8
1
 10
260.205810145449
 20
109.838506269592
 42
0.0
  0
VERTEX
  8
1
 10
260.255056783069
 20
110.464244129753
 42
0.0
  0
VERTEX
  8
1
 10
260.401584080269
 20
111.074574247091
 42
0.0
  0
VERTEX
  8
1
 10
260.641784048696
 20
111.65446826855
 42
0.0
  0
VERTEX
  8
1
 10
260.96974216795
 20
112.189647278761
 42
0.0
  0
VERTEX
  8
1
 10
261.377383020703
 20
112.666933394338
 42
0.0
  0
VERTEX
  8
1
 10
261.854669136279
 20
113.074574247091
 42
0.0
  0
VERTEX
  8
1
 10
262.389848146491
 20
113.402532366345
 42
0.0
  0
VERTEX
  8
1
 10
262.96974216795
 20
113.642732334772
 42
0.0
  0
VERTEX
  8
1
 10
263.580072285288
 20
113.789259631972
 42
0.0
  0
VERTEX
  8
1
 10
264.205810145449
 20
113.838506269592
 42
0.0
  0
VERTEX
  8
1
 10
311.205810145449
 20
113.838506269592
 42
0.0
  0
VERTEX
  8
1
 10
311.83154800561
 20
113.789259631972
 42
0.0
  0
VERTEX
  8
1
 10
312.441878122949
 20
113.642732334772
 42
0.0
  0
VERTEX
  8
1
 10
313.021772144408
 20
113.402532366345
 42
0.0
  0
VERTEX
  8
1
 10
313.556951154619
 20
113.074574247091
 42
0.0
  0
VERTEX
  8
1
 10
314.034237270196
 20
112.666933394338
 42
0.0
  0
VERTEX
  8
1
 10
314.441878122949
 20
112.189647278761
 42
0.0
  0
VERTEX
  8
1
 10
314.769836242203
 20
111.65446826855
 42
0.0
  0
VERTEX
  8
1
 10
315.01003621063
 20
111.074574247091
 42
0.0
  0
VERTEX
  8
1
 10
315.15656350783
 20
110.464244129753
 42
0.0
  0
VERTEX
  8
1
 10
315.205810145449
 20
109.838506269592
 42
0.0
  0
VERTEX
  8
1
 10
315.15656350783
 20
109.212768409431
 42
0.0
  0
VERTEX
  8
1
 10
315.01003621063
 20
108.602438292092
 42
0.0
  0
VERTEX
  8
1
 10
314.769836242203
 20
108.022544270633
 42
0.0
  0
VERTEX
  8
1
 10
314.441878122949
 20
107.487365260422
 42
0.0
  0
VERTEX
  8
1
 10
314.034237270195
 20
107.010079144845
 42
0.0
  0
VERTEX
  8
1
 10
313.556951154619
 20
106.602438292092
 42
0.0
  0
VERTEX
  8
1
 10
313.021772144408
 20
106.274480172838
 42
0.0
  0
VERTEX
  8
1
 10
312.441878122949
 20
106.034280204411
 42
0.0
  0
VERTEX
  8
1
 10
311.83154800561
 20
105.887752907211
 42
0.0
  0
VERTEX
  8
1
 10
311.205810145449
 20
105.838506269592
 42
0.0
  0
VERTEX
  8
1
 10
306.451809016484
 20
105.838506269592
 42
0.0
  0
VERTEX
  8
1
 10
303.888146572578
 20
100.21043959651
 42
0.0
  0
VERTEX
  8
1
 10
303.866062254426
 20
100.237217215178
 42
0.0
  0
VERTEX
  8
1
 10
303.525733808575
 20
100.512842993438
 42
0.0
  0
VERTEX
  8
1
 10
303.167617891125
 20
100.764926333559
 42
0.0
  0
VERTEX
  8
1
 10
302.793340162044
 20
100.992322908316
 42
0.0
  0
VERTEX
  8
1
 10
302.404599647514
 20
101.194000455555
 42
0.0
  0
VERTEX
  8
1
 10
302.003161027241
 20
101.36904346413
 42
0.0
  0
VERTEX
  8
1
 10
301.590846623725
 20
101.516657329841
 42
0.0
  0
VERTEX
  8
1
 10
301.169528129863
 20
101.636171962531
 42
0.0
  0
VERTEX
  8
1
 10
300.741118112438
 20
101.72704482794
 42
0.0
  0
VERTEX
  8
1
 10
300.307561330063
 20
101.788863410534
 42
0.0
  0
VERTEX
  8
1
 10
299.870825904984
 20
101.821347086107
 42
0.0
  0
VERTEX
  8
1
 10
299.432894388833
 20
101.824348395671
 42
0.0
  0
VERTEX
  8
1
 10
298.995754762873
 20
101.797853714841
 42
0.0
  0
SEQEND
  0
POLYLINE
  8
1
 66
     1
 10
0.0
 20
0.0
 30
0.0
 70
     1
  0
VERTEX
  8
1
 10
263.705810145449
 20
108.838506269592
 42
0.0
  0
VERTEX
  8
1
 10
264.014827139824
 20
108.887449753296
 42
0.0
  0
VERTEX
  8
1
 10
264.293595397742
 20
109.029489275217
 42
0.0
  0
VERTEX
  8
1
 10
264.514827139824
 20
109.250721017299
 42
0.0
  0
VERTEX
  8
1
 10
264.656866661745
 20
109.529489275217
 42
0.0
  0
VERTEX
  8
1
 10
264.705810145449
 20
109.838506269592
 42
0.0
  0
VERTEX
  8
1
 10
264.656866661745
 20
110.147523263967
 42
0.0
  0
VERTEX
  8
1
 10
264.514827139824
 20
110.426291521884
 42
0.0
  0
VERTEX
  8
1
 10
264.293595397742
 20
110.647523263967
 42
0.0
  0
VERTEX
  8
1
 10
264.014827139824
 20
110.789562785887
 42
0.0
  0
VERTEX
  8
1
 10
263.705810145449
 20
110.838506269592
 42
0.0
  0
VERTEX
  8
1
 10
263.396793151074
 20
110.789562785887
 42
0.0
  0
VERTEX
  8
1
 10
263.118024893157
 20
110.647523263967
 42
0.0
  0
VERTEX
  8
1
 10
262.896793151075
 20
110.426291521884
 42
0.0
  0
VERTEX
  8
1
 10
262.754753629154
 20
110.147523263967
 42
0.0
  0
VERTEX
  8
1
 10
262.705810145449
 20
109.838506269592
 42
0.0
  0
VERTEX
  8
1
 10
262.754753629154
 20
109.529489275217
 42
0.0
  0
VERTEX
  8
1
 10
262.896793151074
 20
109.250721017299
 42
0.0
  0
VERTEX
  8
1
 10
263.118024893157
 20
109.029489275217
 42
0.0
  0
VERTEX
  8
1
 10
263.396793151074
 20
108.887449753296
 42
0.0
  0
SEQEND
  0
POLYLINE
  8
1
 66
     1
 10
0.0
 20
0.0
 30
0.0
 70
     1
  0
VERTEX
  8
1
 10
312.396793151075
 20
108.887449753296
 42
0.0
  0
VERTEX
  8
1
 10
312.118024893157
 20
109.029489275217
 42
0.0
  0
VERTEX
  8
1
 10
311.896793151075
 20
109.250721017299
 42
0.0
  0
VERTEX
  8
1
 10
311.754753629154
 20
109.529489275217
 42
0.0
  0
VERTEX
  8
1
 10
311.705810145449
 20
109.838506269592
 42
0.0
  0
VERTEX
  8
1
 10
311.754753629154
 20
110.147523263967
 42
0.0
  0
VERTEX
  8
1
 10
311.896793151075
 20
110.426291521884
 42
0.0
  0
VERTEX
  8
1
 10
312.118024893157
 20
110.647523263967
 42
0.0
  0
VERTEX
  8
1
 10
312.396793151075
 20
110.789562785887
 42
0.0
  0
VERTEX
  8
1
 10
312.705810145449
 20
110.838506269592
 42
0.0
  0
VERTEX
  8
1
 10
313.014827139824
 20
110.789562785887
 42
0.0
  0
VERTEX
  8
1
 10
313.293595397742
 20
110.647523263967
 42
0.0
  0
VERTEX
  8
1
 10
313.514827139824
 20
110.426291521884
 42
0.0
  0
VERTEX
  8
1
 10
313.656866661745
 20
110.147523263967
 42
0.0
  0
VERTEX
  8
1
 10
313.705810145449
 20
109.838506269592
 42
0.0
  0
VERTEX
  8
1
 10
313.656866661745
 20
109.529489275217
 42
0.0
  0
VERTEX
  8
1
 10
313.514827139824
 20
109.250721017299
 42
0.0
  0
VERTEX
  8
1
 10
313.293595397742
 20
109.029489275217
 42
0.0
  0
VERTEX
  8
1
 10
313.014827139824
 20
108.887449753296
 42
0.0
  0
VERTEX
  8
1
 10
312.705810145449
 20
108.838506269592
 42
0.0
  0
SEQEND
  0
POLYLINE
  8
1
 66
     1
 10
0.0
 20
0.0
 30
0.0
 70
     1
  0
VERTEX
  8
1
 10
192.835393206615
 20
115.587572362272
 42
0.0
  0
VERTEX
  8
1
 10
193.080110625139
 20
117.132657334147
 42
0.0
  0
VERTEX
  8
1
 10
193.79030823474
 20
118.526498623735
 42
0.0
  0
VERTEX
  8
1
 10
194.896466945152
 20
119.632657334147
 42
0.0
  0
VERTEX
  8
1
 10
196.29030823474
 20
120.342854943748
 42
0.0
  0
VERTEX
  8
1
 10
197.835393206615
 20
120.587572362272
 42
0.0
  0
VERTEX
  8
1
 10
199.38047817849
 20
120.342854943748
 42
0.0
  0
VERTEX
  8
1
 10
200.774319468077
 20
119.632657334147
 42
0.0
  0
VERTEX
  8
1
 10
201.88047817849
 20
118.526498623735
 42
0.0
  0
VERTEX
  8
1
 10
202.590675788091
 20
117.132657334147
 42
0.0
  0
VERTEX
  8
1
 10
202.835393206615
 20
115.587572362272
 42
0.0
  0
VERTEX
  8
1
 10
202.590675788091
 20
114.042487390398
 42
0.0
  0
VERTEX
  8
1
 10
201.88047817849
 20
112.64864610081
 42
0.0
  0
VERTEX
  8
1
 10
200.774319468077
 20
111.542487390398
 42
0.0
  0
VERTEX
  8
1
 10
199.38047817849
 20
110.832289780797
 42
0.0
  0
VERTEX
  8
1
 10
197.835393206615
 20
110.587572362272
 42
0.0
  0
VERTEX
  8
1
 10
196.29030823474
 20
110.832289780797
 42
0.0
  0
VERTEX
  8
1
 10
194.896466945152
 20
111.542487390398
 42
0.0
  0
VERTEX
  8
1
 10
193.79030823474
 20
112.64864610081
 42
0.0
  0
VERTEX
  8
1
 10
193.080110625139
 20
114.042487390398
 42
0.0
  0
SEQEND
  0
POLYLINE
  8
1
 66
     1
 10
0.0
 20
0.0
 30
0.0
 70
     1
  0
VERTEX
  8
1
 10
203.617565531816
 20
125.526014065248
 42
0.0
  0
VERTEX
  8
1
 10
202.835393206615
 20
125.587572362272
 42
0.0
  0
VERTEX
  8
1
 10
192.835393206615
 20
125.587572362272
 42
0.0
  0
VERTEX
  8
1
 10
192.053220881414
 20
125.649130659297
 42
0.0
  0
VERTEX
  8
1
 10
191.29030823474
 20
125.832289780797
 42
0.0
  0
VERTEX
  8
1
 10
190.565440707917
 20
126.132539741331
 42
0.0
  0
VERTEX
  8
1
 10
189.896466945152
 20
126.542487390398
 42
0.0
  0
VERTEX
  8
1
 10
189.299859300682
 20
127.05203845634
 42
0.0
  0
VERTEX
  8
1
 10
188.79030823474
 20
127.64864610081
 42
0.0
  0
VERTEX
  8
1
 10
188.380360585673
 20
128.317619863575
 42
0.0
  0
VERTEX
  8
1
 10
188.080110625139
 20
129.042487390398
 42
0.0
  0
VERTEX
  8
1
 10
187.896951503639
 20
129.805400037071
 42
0.0
  0
VERTEX
  8
1
 10
187.835393206615
 20
130.587572362273
 42
0.0
  0
VERTEX
  8
1
 10
187.835393206615
 20
149.587572362273
 42
0.0
  0
VERTEX
  8
1
 10
187.773834909591
 20
150.369744687474
 42
0.0
  0
VERTEX
  8
1
 10
187.590675788091
 20
151.132657334147
 42
0.0
  0
VERTEX
  8
1
 10
187.290425827557
 20
151.85752486097
 42
0.0
  0
VERTEX
  8
1
 10
186.88047817849
 20
152.526498623735
 42
0.0
  0
VERTEX
  8
1
 10
186.370927112548
 20
153.123106268205
 42
0.0
  0
VERTEX
  8
1
 10
185.774319468077
 20
153.632657334147
 42
0.0
  0
VERTEX
  8
1
 10
185.105345705313
 20
154.042604983214
 42
0.0
  0
VERTEX
  8
1
 10
184.38047817849
 20
154.342854943748
 42
0.0
  0
VERTEX
  8
1
 10
183.617565531816
 20
154.526014065248
 42
0.0
  0
VERTEX
  8
1
 10
182.835393206615
 20
154.587572362273
 42
0.0
  0
VERTEX
  8
1
 10
166.835393206615
 20
154.587572362273
 42
0.0
  0
VERTEX
  8
1
 10
166.053220881414
 20
154.526014065248
 42
0.0
  0
VERTEX
  8
1
 10
165.29030823474
 20
154.342854943748
 42
0.0
  0
VERTEX
  8
1
 10
164.565440707917
 20
154.042604983214
 42
0.0
  0
VERTEX
  8
1
 10
163.896466945152
 20
153.632657334147
 42
0.0
  0
VERTEX
  8
1
 10
163.299859300682
 20
153.123106268205
 42
0.0
  0
VERTEX
  8
1
 10
162.79030823474
 20
152.526498623735
 42
0.0
  0
VERTEX
  8
1
 10
162.380360585673
 20
151.85752486097
 42
0.0
  0
VERTEX
  8
1
 10
162.080110625139
 20
151.132657334147
 42
0.0
  0
VERTEX
  8
1
 10
161.896951503639
 20
150.369744687474
 42
0.0
  0
VERTEX
  8
1
 10
161.835393206615
 20
149.587572362273
 42
0.0
  0
VERTEX
  8
1
 10
161.835393206615
 20
105.587572362272
 42
0.0
  0
VERTEX
  8
1
 10
161.896951503639
 20
104.805400037071
 42
0.0
  0
VERTEX
  8
1
 10
162.080110625139
 20
104.042487390398
 42
0.0
  0
VERTEX
  8
1
 10
162.380360585673
 20
103.317619863575
 42
0.0
  0
VERTEX
  8
1
 10
162.79030823474
 20
102.64864610081
 42
0.0
  0
VERTEX
  8
1
 10
163.299859300682
 20
102.05203845634
 42
0.0
  0
VERTEX
  8
1
 10
163.896466945152
 20
101.542487390398
 42
0.0
  0
VERTEX
  8
1
 10
164.565440707917
 20
101.132539741331
 42
0.0
  0
VERTEX
  8
1
 10
165.29030823474
 20
100.832289780797
 42
0.0
  0
VERTEX
  8
1
 10
166.053220881414
 20
100.649130659297
 42
0.0
  0
VERTEX
  8
1
 10
166.835393206615
 20
100.587572362273
 42
0.0
  0
VERTEX
  8
1
 10
187.835393206615
 20
100.587572362272
 42
0.0
  0
VERTEX
  8
1
 10
187.835393206615
 20
105.587572362273
 42
0.0
  0
VERTEX
  8
1
 10
197.835393206615
 20
105.587572362273
 42
0.0
  0
VERTEX
  8
1
 10
197.835393206615
 20
100.587572362273
 42
0.0
  0
VERTEX
  8
1
 10
207.835393206615
 20
100.587572362272
 42
0.0
  0
VERTEX
  8
1
 10
207.835393206615
 20
120.587572362273
 42
0.0
  0
VERTEX
  8
1
 10
207.773834909591
 20
121.369744687474
 42
0.0
  0
VERTEX
  8
1
 10
207.590675788091
 20
122.132657334147
 42
0.0
  0
VERTEX
  8
1
 10
207.290425827557
 20
122.85752486097
 42
0.0
  0
VERTEX
  8
1
 10
206.88047817849
 20
123.526498623735
 42
0.0
  0
VERTEX
  8
1
 10
206.370927112547
 20
124.123106268205
 42
0.0
  0
VERTEX
  8
1
 10
205.774319468077
 20
124.632657334147
 42
0.0
  0
VERTEX
  8
1
 10
205.105345705313
 20
125.042604983215
 42
0.0
  0
VERTEX
  8
1
 10
204.38047817849
 20
125.342854943748
 42
0.0
  0
SEQEND
  0
POLYLINE
  8
1
 66
     1
 10
0.0
 20
0.0
 30
0.0
 70
     1
  0
VERTEX
  8
1
 10
165.335393206615
 20
117.602527984215
 42
0.0
  0
VERTEX
  8
1
 10
165.335393206615
 20
148.087572362273
 42
0.0
  0
VERTEX
  8
1
 10
179.335393206615
 20
148.087572362273
 42
0.0
  0
VERTEX
  8
1
 10
179.335393206615
 20
117.602527984215
 42
0.0
  0
SEQEND
  0
POLYLINE
  8
1
 66
     1
 10
0.0
 20
0.0
 30
0.0
 70
     1
  0
VERTEX
  8
1
 10
224.316514953101
 20
100.390469816384
 42
0.0
  0
VERTEX
  8
1
 10
223.5343426279
 20
100.452028113408
 42
0.0
  0
VERTEX
  8
1
 10
222.771429981227
 20
100.635187234908
 42
0.0
  0
VERTEX
  8
1
 10
222.046562454404
 20
100.935437195442
 42
0.0
  0
VERTEX
  8
1
 10
221.377588691639
 20
101.345384844509
 42
0.0
  0
VERTEX
  8
1
 10
220.780981047169
 20
101.854935910451
 42
0.0
  0
VERTEX
  8
1
 10
220.271429981227
 20
102.451543554921
 42
0.0
  0
VERTEX
  8
1
 10
219.861482332159
 20
103.120517317686
 42
0.0
  0
VERTEX
  8
1
 10
219.561232371625
 20
103.845384844509
 42
0.0
  0
VERTEX
  8
1
 10
219.378073250126
 20
104.608297491183
 42
0.0
  0
VERTEX
  8
1
 10
219.316514953101
 20
105.390469816384
 42
0.0
  0
VERTEX
  8
1
 10
219.316514953101
 20
139.390469816384
 42
0.0
  0
VERTEX
  8
1
 10
219.378073250126
 20
140.172642141585
 42
0.0
  0
VERTEX
  8
1
 10
219.561232371625
 20
140.935554788258
 42
0.0
  0
VERTEX
  8
1
 10
219.861482332159
 20
141.660422315081
 42
0.0
  0
VERTEX
  8
1
 10
220.271429981227
 20
142.329396077846
 42
0.0
  0
VERTEX
  8
1
 10
220.780981047169
 20
142.926003722316
 42
0.0
  0
VERTEX
  8
1
 10
221.377588691639
 20
143.435554788258
 42
0.0
  0
VERTEX
  8
1
 10
222.046562454404
 20
143.845502437326
 42
0.0
  0
VERTEX
  8
1
 10
222.771429981227
 20
144.14575239786
 42
0.0
  0
VERTEX
  8
1
 10
223.5343426279
 20
144.32891151936
 42
0.0
  0
VERTEX
  8
1
 10
224.316514953101
 20
144.390469816384
 42
0.0
  0
VERTEX
  8
1
 10
254.316514953101
 20
144.390469816384
 42
0.0
  0
VERTEX
  8
1
 10
254.316514953101
 20
134.390469816384
 42
0.0
  0
VERTEX
  8
1
 10
249.316514953101
 20
134.390469816384
 42
0.0
  0
VERTEX
  8
1
 10
249.316514953101
 20
110.390469816384
 42
0.0
  0
VERTEX
  8
1
 10
254.316514953101
 20
110.390469816384
 42
0.0
  0
VERTEX
  8
1
 10
254.316514953101
 20
100.390469816384
 42
0.0
  0
SEQEND
  0
POLYLINE
  8
1
 66
     1
 10
0.0
 20
0.0
 30
0.0
 70
     1
  0
VERTEX
  8
1
 10
242.316514953101
 20
119.890469816384
 42
0.0
  0
VERTEX
  8
1
 10
237.316514953101
 20
119.890469816384
 42
0.0
  0
VERTEX
  8
1
 10
237.316514953101
 20
107.390469816384
 42
0.0
  0
VERTEX
  8
1
 10
223.316514953101
 20
107.390469816384
 42
0.0
  0
VERTEX
  8
1
 10
223.316514953101
 20
137.390469816384
 42
0.0
  0
VERTEX
  8
1
 10
237.316514953101
 20
137.390469816384
 42
0.0
  0
VERTEX
  8
1
 10
237.316514953101
 20
124.890469816384
 42
0.0
  0
VERTEX
  8
1
 10
242.316514953101
 20
124.890469816384
 42
0.0
  0
SEQEND
  0
POLYLINE
  8
1
 66
     1
 10
0.0
 20
0.0
 30
0.0
 70
     1
  0
VERTEX
  8
1
 10
150.787898674463
 20
105.841746021874
 42
0.0
  0
VERTEX
  8
1
 10
140.787898674463
 20
105.841746021874
 42
0.0
  0
VERTEX
  8
1
 10
140.787898674463
 20
100.841746021874
 42
0.0
  0
VERTEX
  8
1
 10
130.787898674463
 20
100.841746021874
 42
0.0
  0
VERTEX
  8
1
 10
130.005726349262
 20
100.903304318899
 42
0.0
  0
VERTEX
  8
1
 10
129.242813702588
 20
101.086463440399
 42
0.0
  0
VERTEX
  8
1
 10
128.517946175765
 20
101.386713400933
 42
0.0
  0
VERTEX
  8
1
 10
127.848972413
 20
101.79666105
 42
0.0
  0
VERTEX
  8
1
 10
127.25236476853
 20
102.306212115942
 42
0.0
  0
VERTEX
  8
1
 10
126.742813702588
 20
102.902819760412
 42
0.0
  0
VERTEX
  8
1
 10
126.332866053521
 20
103.571793523177
 42
0.0
  0
VERTEX
  8
1
 10
126.032616092987
 20
104.29666105
 42
0.0
  0
VERTEX
  8
1
 10
125.849456971487
 20
105.059573696673
 42
0.0
  0
VERTEX
  8
1
 10
125.787898674463
 20
105.841746021874
 42
0.0
  0
VERTEX
  8
1
 10
125.787898674463
 20
118.341746021874
 42
0.0
  0
VERTEX
  8
1
 10
135.787898674463
 20
118.341746021874
 42
0.0
  0
VERTEX
  8
1
 10
135.787898674463
 20
123.341746021874
 42
0.0
  0
VERTEX
  8
1
 10
125.787898674463
 20
123.341746021874
 42
0.0
  0
VERTEX
  8
1
 10
125.787898674463
 20
137.841746021874
 42
0.0
  0
VERTEX
  8
1
 10
135.787898674463
 20
137.841746021874
 42
0.0
  0
VERTEX
  8
1
 10
135.787898674463
 20
142.841746021874
 42
0.0
  0
VERTEX
  8
1
 10
145.787898674463
 20
142.841746021874
 42
0.0
  0
VERTEX
  8
1
 10
145.787898674463
 20
137.841746021874
 42
0.0
  0
VERTEX
  8
1
 10
155.787898674463
 20
137.841746021874
 42
0.0
  0
VERTEX
  8
1
 10
155.787898674463
 20
100.841746021874
 42
0.0
  0
VERTEX
  8
1
 10
150.787898674463
 20
100.841746021874
 42
0.0
  0
SEQEND
  0
POLYLINE
  8
1
 66
     1
 10
0.0
 20
0.0
 30
0.0
 70
     1
  0
VERTEX
  8
1
 10
146.738955190758
 20
132.150763016249
 42
0.0
  0
VERTEX
  8
1
 10
146.596915668838
 20
132.429531274167
 42
0.0
  0
VERTEX
  8
1
 10
146.375683926755
 20
132.650763016249
 42
0.0
  0
VERTEX
  8
1
 10
146.096915668838
 20
132.792802538169
 42
0.0
  0
VERTEX
  8
1
 10
145.787898674463
 20
132.841746021874
 42
0.0
  0
VERTEX
  8
1
 10
145.478881680088
 20
132.792802538169
 42
0.0
  0
VERTEX
  8
1
 10
145.20011342217
 20
132.650763016249
 42
0.0
  0
VERTEX
  8
1
 10
144.978881680088
 20
132.429531274167
 42
0.0
  0
VERTEX
  8
1
 10
144.836842158168
 20
132.150763016249
 42
0.0
  0
VERTEX
  8
1
 10
144.787898674463
 20
131.841746021874
 42
0.0
  0
VERTEX
  8
1
 10
144.836842158168
 20
131.532729027499
 42
0.0
  0
VERTEX
  8
1
 10
144.978881680088
 20
131.253960769582
 42
0.0
  0
VERTEX
  8
1
 10
145.20011342217
 20
131.032729027499
 42
0.0
  0
VERTEX
  8
1
 10
145.478881680088
 20
130.890689505579
 42
0.0
  0
VERTEX
  8
1
 10
145.787898674463
 20
130.841746021874
 42
0.0
  0
VERTEX
  8
1
 10
146.096915668838
 20
130.890689505579
 42
0.0
  0
VERTEX
  8
1
 10
146.375683926755
 20
131.032729027499
 42
0.0
  0
VERTEX
  8
1
 10
146.596915668838
 20
131.253960769582
 42
0.0
  0
VERTEX
  8
1
 10
146.738955190758
 20
131.532729027499
 42
0.0
  0
VERTEX
  8
1
 10
146.787898674463
 20
131.841746021874
 42
0.0
  0
SEQEND
  0
POLYLINE
  8
1
 66
     1
 10
0.0
 20
0.0
 30
0.0
 70
     1
  0
VERTEX
  8
1
 10
145.787898674463
 20
126.341746021874
 42
0.0
  0
VERTEX
  8
1
 10
144.397322199776
 20
126.121500345203
 42
0.0
  0
VERTEX
  8
1
 10
143.142865039147
 20
125.482322496562
 42
0.0
  0
VERTEX
  8
1
 10
142.147322199776
 20
124.48677965719
 42
0.0
  0
VERTEX
  8
1
 10
141.508144351135
 20
123.232322496562
 42
0.0
  0
VERTEX
  8
1
 10
141.287898674463
 20
121.841746021874
 42
0.0
  0
VERTEX
  8
1
 10
141.508144351135
 20
120.451169547187
 42
0.0
  0
VERTEX
  8
1
 10
142.147322199776
 20
119.196712386558
 42
0.0
  0
VERTEX
  8
1
 10
143.142865039147
 20
118.201169547187
 42
0.0
  0
VERTEX
  8
1
 10
144.397322199776
 20
117.561991698546
 42
0.0
  0
VERTEX
  8
1
 10
145.787898674463
 20
117.341746021874
 42
0.0
  0
VERTEX
  8
1
 10
147.17847514915
 20
117.561991698546
 42
0.0
  0
VERTEX
  8
1
 10
148.432932309779
 20
118.201169547187
 42
0.0
  0
VERTEX
  8
1
 10
149.42847514915
 20
119.196712386558
 42
0.0
  0
VERTEX
  8
1
 10
150.067652997791
 20
120.451169547187
 42
0.0
  0
VERTEX
  8
1
 10
150.287898674463
 20
121.841746021874
 42
0.0
  0
VERTEX
  8
1
 10
150.067652997791
 20
123.232322496562
 42
0.0
  0
VERTEX
  8
1
 10
149.42847514915
 20
124.48677965719
 42
0.0
  0
VERTEX
  8
1
 10
148.432932309779
 20
125.482322496562
 42
0.0
  0
VERTEX
  8
1
 10
147.17847514915
 20
126.121500345203
 42
0.0
  0
SEQEND
  0
POLYLINE
  8
1
 66
     1
 10
0.0
 20
0.0
 30
0.0
 70
     1
  0
VERTEX
  8
1
 10
145.787898674463
 20
112.841746021874
 42
0.0
  0
VERTEX
  8
1
 10
145.478881680088
 20
112.792802538169
 42
0.0
  0
VERTEX
  8
1
 10
145.20011342217
 20
112.650763016249
 42
0.0
  0
VERTEX
  8
1
 10
144.978881680088
 20
112.429531274167
 42
0.0
  0
VERTEX
  8
1
 10
144.836842158168
 20
112.150763016249
 42
0.0
  0
VERTEX
  8
1
 10
144.787898674463
 20
111.841746021874
 42
0.0
  0
VERTEX
  8
1
 10
144.836842158168
 20
111.532729027499
 42
0.0
  0
VERTEX
  8
1
 10
144.978881680088
 20
111.253960769582
 42
0.0
  0
VERTEX
  8
1
 10
145.20011342217
 20
111.032729027499
 42
0.0
  0
VERTEX
  8
1
 10
145.478881680088
 20
110.890689505579
 42
0.0
  0
VERTEX
  8
1
 10
145.787898674463
 20
110.841746021874
 42
0.0
  0
VERTEX
  8
1
 10
146.096915668838
 20
110.890689505579
 42
0.0
  0
VERTEX
  8
1
 10
146.375683926755
 20
111.032729027499
 42
0.0
  0
VERTEX
  8
1
 10
146.596915668838
 20
111.253960769582
 42
0.0
  0
VERTEX
  8
1
 10
146.738955190758
 20
111.532729027499
 42
0.0
  0
VERTEX
  8
1
 10
146.787898674463
 20
111.841746021874
 42
0.0
  0
VERTEX
  8
1
 10
146.738955190758
 20
112.150763016249
 42
0.0
  0
VERTEX
  8
1
 10
146.596915668838
 20
112.429531274167
 42
0.0
  0
VERTEX
  8
1
 10
146.375683926755
 20
112.650763016249
 42
0.0
  0
VERTEX
  8
1
 10
146.096915668838
 20
112.792802538169
 42
0.0
  0
SEQEND
  0
POLYLINE
  8
1
 66
     1
 10
0.0
 20
0.0
 30
0.0
 70
     1
  0
VERTEX
  8
1
 10
97.7198646934212
 20
131.392856109799
 42
0.0
  0
VERTEX
  8
1
 10
102.719864693421
 20
131.392856109799
 42
0.0
  0
VERTEX
  8
1
 10
102.719864693421
 20
126.392856109799
 42
0.0
  0
VERTEX
  8
1
 10
97.7198646934212
 20
126.392856109799
 42
0.0
  0
SEQEND
  0
POLYLINE
  8
1
 66
     1
 10
0.0
 20
0.0
 30
0.0
 70
     1
  0
VERTEX
  8
1
 10
88.2198646934213
 20
112.392856109799
 42
0.0
  0
VERTEX
  8
1
 10
88.3676046062796
 20
110.515642529316
 42
0.0
  0
VERTEX
  8
1
 10
88.8071864978795
 20
108.6846521773
 42
0.0
  0
VERTEX
  8
1
 10
89.5277864031609
 20
106.944970112925
 42
0.0
  0
VERTEX
  8
1
 10
90.5116607609219
 20
105.33943308229
 42
0.0
  0
VERTEX
  8
1
 10
91.7345833191827
 20
103.907574735561
 42
0.0
  0
VERTEX
  8
1
 10
93.1664416659116
 20
102.6846521773
 42
0.0
  0
VERTEX
  8
1
 10
94.7719786965467
 20
101.700777819539
 42
0.0
  0
VERTEX
  8
1
 10
96.5116607609219
 20
100.980177914257
 42
0.0
  0
VERTEX
  8
1
 10
98.3426511129385
 20
100.540596022658
 42
0.0
  0
VERTEX
  8
1
 10
100.219864693421
 20
100.392856109799
 42
0.0
  0
VERTEX
  8
1
 10
102.097078273904
 20
100.540596022658
 42
0.0
  0
VERTEX
  8
1
 10
103.928068625921
 20
100.980177914257
 42
0.0
  0
VERTEX
  8
1
 10
105.667750690296
 20
101.700777819539
 42
0.0
  0
VERTEX
  8
1
 10
107.273287720931
 20
102.6846521773
 42
0.0
  0
VERTEX
  8
1
 10
108.70514606766
 20
103.907574735561
 42
0.0
  0
VERTEX
  8
1
 10
109.928068625921
 20
105.33943308229
 42
0.0
  0
VERTEX
  8
1
 10
110.911942983682
 20
106.944970112925
 42
0.0
  0
VERTEX
  8
1
 10
111.632542888963
 20
108.6846521773
 42
0.0
  0
VERTEX
  8
1
 10
112.072124780563
 20
110.515642529316
 42
0.0
  0
VERTEX
  8
1
 10
112.219864693421
 20
112.392856109799
 42
0.0
  0
VERTEX
  8
1
 10
122.219864693421
 20
145.392856109799
 42
0.0
  0
VERTEX
  8
1
 10
112.219864693421
 20
145.392856109799
 42
0.0
  0
VERTEX
  8
1
 10
112.219864693421
 20
150.392856109799
 42
0.0
  0
VERTEX
  8
1
 10
88.2198646934213
 20
150.392856109799
 42
0.0
  0
VERTEX
  8
1
 10
88.2198646934213
 20
145.392856109799
 42
0.0
  0
VERTEX
  8
1
 10
78.2198646934212
 20
145.392856109799
 42
0.0
  0
SEQEND
  0
POLYLINE
  8
1
 66
     1
 10
0.0
 20
0.0
 30
0.0
 70
     1
  0
VERTEX
  8
1
 10
100.807649945714
 20
121.583839115424
 42
0.0
  0
VERTEX
  8
1
 10
100.926971474608
 20
121.685749328613
 42
0.0
  0
VERTEX
  8
1
 10
101.028881687796
 20
121.805070857507
 42
0.0
  0
VERTEX
  8
1
 10
101.11087121761
 20
121.93886561006
 42
0.0
  0
VERTEX
  8
1
 10
101.170921209716
 20
122.083839115424
 42
0.0
  0
VERTEX
  8
1
 10
101.207553034016
 20
122.236421644759
 42
0.0
  0
VERTEX
  8
1
 10
101.219864693421
 20
122.392856109799
 42
0.0
  0
VERTEX
  8
1
 10
101.207553034016
 20
122.54929057484
 42
0.0
  0
VERTEX
  8
1
 10
101.170921209716
 20
122.701873104174
 42
0.0
  0
VERTEX
  8
1
 10
101.11087121761
 20
122.846846609539
 42
0.0
  0
VERTEX
  8
1
 10
101.028881687796
 20
122.980641362092
 42
0.0
  0
VERTEX
  8
1
 10
100.926971474608
 20
123.099962890986
 42
0.0
  0
VERTEX
  8
1
 10
100.807649945714
 20
123.201873104174
 42
0.0
  0
VERTEX
  8
1
 10
100.673855193161
 20
123.283862633988
 42
0.0
  0
VERTEX
  8
1
 10
100.528881687796
 20
123.343912626094
 42
0.0
  0
VERTEX
  8
1
 10
100.376299158462
 20
123.380544450394
 42
0.0
  0
VERTEX
  8
1
 10
100.219864693421
 20
123.392856109799
 42
0.0
  0
VERTEX
  8
1
 10
100.063430228381
 20
123.380544450394
 42
0.0
  0
VERTEX
  8
1
 10
99.9108476990463
 20
123.343912626094
 42
0.0
  0
VERTEX
  8
1
 10
99.7658741936817
 20
123.283862633988
 42
0.0
  0
VERTEX
  8
1
 10
99.6320794411288
 20
123.201873104174
 42
0.0
  0
VERTEX
  8
1
 10
99.5127579122347
 20
123.099962890986
 42
0.0
  0
VERTEX
  8
1
 10
99.4108476990463
 20
122.980641362092
 42
0.0
  0
VERTEX
  8
1
 10
99.3288581692329
 20
122.846846609539
 42
0.0
  0
VERTEX
  8
1
 10
99.2688081771261
 20
122.701873104174
 42
0.0
  0
VERTEX
  8
1
 10
99.2321763528261
 20
122.54929057484
 42
0.0
  0
VERTEX
  8
1
 10
99.2198646934212
 20
122.392856109799
 42
0.0
  0
VERTEX
  8
1
 10
99.2321763528261
 20
122.236421644759
 42
0.0
  0
VERTEX
  8
1
 10
99.2688081771261
 20
122.083839115424
 42
0.0
  0
VERTEX
  8
1
 10
99.3288581692329
 20
121.93886561006
 42
0.0
  0
VERTEX
  8
1
 10
99.4108476990463
 20
121.805070857507
 42
0.0
  0
VERTEX
  8
1
 10
99.5127579122347
 20
121.685749328613
 42
0.0
  0
VERTEX
  8
1
 10
99.6320794411288
 20
121.583839115424
 42
0.0
  0
VERTEX
  8
1
 10
99.7658741936817
 20
121.501849585611
 42
0.0
  0
VERTEX
  8
1
 10
99.9108476990463
 20
121.441799593504
 42
0.0
  0
VERTEX
  8
1
 10
100.063430228381
 20
121.405167769204
 42
0.0
  0
VERTEX
  8
1
 10
100.219864693421
 20
121.392856109799
 42
0.0
  0
VERTEX
  8
1
 10
100.376299158462
 20
121.405167769204
 42
0.0
  0
VERTEX
  8
1
 10
100.528881687796
 20
121.441799593504
 42
0.0
  0
VERTEX
  8
1
 10
100.673855193161
 20
121.501849585611
 42
0.0
  0
SEQEND
  0
POLYLINE
  8
1
 66
     1
 10
0.0
 20
0.0
 30
0.0
 70
     1
  0
VERTEX
  8
1
 10
100.219864693421
 20
116.892856109799
 42
0.0
  0
VERTEX
  8
1
 10
99.5159096007403
 20
116.837453642477
 42
0.0
  0
VERTEX
  8
1
 10
98.829288218734
 20
116.672610433128
 42
0.0
  0
VERTEX
  8
1
 10
98.1769074445933
 20
116.402385468647
 42
0.0
  0
VERTEX
  8
1
 10
97.5748310581051
 20
116.033432584487
 42
0.0
  0
VERTEX
  8
1
 10
97.0378841780818
 20
115.574836625139
 42
0.0
  0
VERTEX
  8
1
 10
96.579288218734
 20
115.037889745115
 42
0.0
  0
VERTEX
  8
1
 10
96.2103353345736
 20
114.435813358627
 42
0.0
  0
VERTEX
  8
1
 10
95.9401103700931
 20
113.783432584487
 42
0.0
  0
VERTEX
  8
1
 10
95.7752671607432
 20
113.09681120248
 42
0.0
  0
VERTEX
  8
1
 10
95.7198646934213
 20
112.392856109799
 42
0.0
  0
VERTEX
  8
1
 10
95.7752671607432
 20
111.688901017118
 42
0.0
  0
VERTEX
  8
1
 10
95.9401103700931
 20
111.002279635112
 42
0.0
  0
VERTEX
  8
1
 10
96.2103353345736
 20
110.349898860971
 42
0.0
  0
VERTEX
  8
1
 10
96.579288218734
 20
109.747822474483
 42
0.0
  0
VERTEX
  8
1
 10
97.0378841780818
 20
109.21087559446
 42
0.0
  0
VERTEX
  8
1
 10
97.5748310581051
 20
108.752279635112
 42
0.0
  0
VERTEX
  8
1
 10
98.1769074445933
 20
108.383326750952
 42
0.0
  0
VERTEX
  8
1
 10
98.829288218734
 20
108.113101786471
 42
0.0
  0
VERTEX
  8
1
 10
99.5159096007403
 20
107.948258577121
 42
0.0
  0
VERTEX
  8
1
 10
100.219864693421
 20
107.892856109799
 42
0.0
  0
VERTEX
  8
1
 10
100.923819786102
 20
107.948258577121
 42
0.0
  0
VERTEX
  8
1
 10
101.610441168108
 20
108.113101786471
 42
0.0
  0
VERTEX
  8
1
 10
102.262821942249
 20
108.383326750952
 42
0.0
  0
VERTEX
  8
1
 10
102.864898328737
 20
108.752279635112
 42
0.0
  0
VERTEX
  8
1
 10
103.401845208761
 20
109.21087559446
 42
0.0
  0
VERTEX
  8
1
 10
103.860441168108
 20
109.747822474483
 42
0.0
  0
VERTEX
  8
1
 10
104.229394052269
 20
110.349898860971
 42
0.0
  0
VERTEX
  8
1
 10
104.49961901675
 20
111.002279635112
 42
0.0
  0
VERTEX
  8
1
 10
104.664462226099
 20
111.688901017118
 42
0.0
  0
VERTEX
  8
1
 10
104.719864693421
 20
112.392856109799
 42
0.0
  0
VERTEX
  8
1
 10
104.664462226099
 20
113.09681120248
 42
0.0
  0
VERTEX
  8
1
 10
104.49961901675
 20
113.783432584487
 42
0.0
  0
VERTEX
  8
1
 10
104.229394052269
 20
114.435813358627
 42
0.0
  0
VERTEX
  8
1
 10
103.860441168108
 20
115.037889745115
 42
0.0
  0
VERTEX
  8
1
 10
103.401845208761
 20
115.574836625139
 42
0.0
  0
VERTEX
  8
1
 10
102.864898328737
 20
116.033432584487
 42
0.0
  0
VERTEX
  8
1
 10
102.262821942249
 20
116.402385468647
 42
0.0
  0
VERTEX
  8
1
 10
101.610441168108
 20
116.672610433128
 42
0.0
  0
VERTEX
  8
1
 10
100.923819786102
 20
116.837453642477
 42
0.0
  0
SEQEND
  0
POLYLINE
  8
1
 66
     1
 10
0.0
 20
0.0
 30
0.0
 70
     1
  0
VERTEX
  8
1
 10
100.219864693421
 20
103.392856109799
 42
0.0
  0
VERTEX
  8
1
 10
100.063430228381
 20
103.380544450394
 42
0.0
  0
VERTEX
  8
1
 10
99.9108476990463
 20
103.343912626094
 42
0.0
  0
VERTEX
  8
1
 10
99.7658741936817
 20
103.283862633988
 42
0.0
  0
VERTEX
  8
1
 10
99.6320794411288
 20
103.201873104174
 42
0.0
  0
VERTEX
  8
1
 10
99.5127579122347
 20
103.099962890986
 42
0.0
  0
VERTEX
  8
1
 10
99.4108476990463
 20
102.980641362092
 42
0.0
  0
VERTEX
  8
1
 10
99.3288581692329
 20
102.846846609539
 42
0.0
  0
VERTEX
  8
1
 10
99.2688081771261
 20
102.701873104174
 42
0.0
  0
VERTEX
  8
1
 10
99.2321763528261
 20
102.54929057484
 42
0.0
  0
VERTEX
  8
1
 10
99.2198646934213
 20
102.392856109799
 42
0.0
  0
VERTEX
  8
1
 10
99.2321763528261
 20
102.236421644759
 42
0.0
  0
VERTEX
  8
1
 10
99.2688081771261
 20
102.083839115424
 42
0.0
  0
VERTEX
  8
1
 10
99.3288581692329
 20
101.93886561006
 42
0.0
  0
VERTEX
  8
1
 10
99.4108476990463
 20
101.805070857507
 42
0.0
  0
VERTEX
  8
1
 10
99.5127579122347
 20
101.685749328613
 42
0.0
  0
VERTEX
  8
1
 10
99.6320794411288
 20
101.583839115424
 42
0.0
  0
VERTEX
  8
1
 10
99.7658741936817
 20
101.501849585611
 42
0.0
  0
VERTEX
  8
1
 10
99.9108476990463
 20
101.441799593504
 42
0.0
  0
VERTEX
  8
1
 10
100.063430228381
 20
101.405167769204
 42
0.0
  0
VERTEX
  8
1
 10
100.219864693421
 20
101.392856109799
 42
0.0
  0
VERTEX
  8
1
 10
100.376299158462
 20
101.405167769204
 42
0.0
  0
VERTEX
  8
1
 10
100.528881687796
 20
101.441799593504
 42
0.0
  0
VERTEX
  8
1
 10
100.673855193161
 20
101.501849585611
 42
0.0
  0
VERTEX
  8
1
 10
100.807649945714
 20
101.583839115424
 42
0.0
  0
VERTEX
  8
1
 10
100.926971474608
 20
101.685749328613
 42
0.0
  0
VERTEX
  8
1
 10
101.028881687796
 20
101.805070857507
 42
0.0
  0
VERTEX
  8
1
 10
101.11087121761
 20
101.93886561006
 42
0.0
  0
VERTEX
  8
1
 10
101.170921209716
 20
102.083839115424
 42
0.0
  0
VERTEX
  8
1
 10
101.207553034016
 20
102.236421644759
 42
0.0
  0
VERTEX
  8
1
 10
101.219864693421
 20
102.392856109799
 42
0.0
  0
VERTEX
  8
1
 10
101.207553034016
 20
102.54929057484
 42
0.0
  0
VERTEX
  8
1
 10
101.170921209716
 20
102.701873104174
 42
0.0
  0
VERTEX
  8
1
 10
101.11087121761
 20
102.846846609539
 42
0.0
  0
VERTEX
  8
1
 10
101.028881687796
 20
102.980641362092
 42
0.0
  0
VERTEX
  8
1
 10
100.926971474608
 20
103.099962890986
 42
0.0
  0
VERTEX
  8
1
 10
100.807649945714
 20
103.201873104174
 42
0.0
  0
VERTEX
  8
1
 10
100.673855193161
 20
103.283862633988
 42
0.0
  0
VERTEX
  8
1
 10
100.528881687796
 20
103.343912626094
 42
0.0
  0
VERTEX
  8
1
 10
100.376299158462
 20
103.380544450394
 42
0.0
  0
SEQEND
  0
POLYLINE
  8
1
 66
     1
 10
0.0
 20
0.0
 30
0.0
 70
     1
  0
VERTEX
  8
1
 10
250.003403703832
 20
158.807838806709
 42
0.0
  0
VERTEX
  8
1
 10
247.353807382666
 20
154.567598325927
 42
0.0
  0
VERTEX
  8
1
 10
235.481134036476
 20
161.986468025192
 42
0.0
  0
VERTEX
  8
1
 10
231.771699186843
 20
156.050131352097
 42
0.0
  0
VERTEX
  8
1
 10
227.531458706061
 20
158.699727673263
 42
0.0
  0
VERTEX
  8
1
 10
224.881862384895
 20
154.459487192481
 42
0.0
  0
VERTEX
  8
1
 10
229.122102865677
 20
151.809890871315
 42
0.0
  0
VERTEX
  8
1
 10
251.594047863448
 20
151.918002004761
 42
0.0
  0
VERTEX
  8
1
 10
254.243644184614
 20
156.158242485543
 42
0.0
  0
SEQEND
  0
LINE
  8
1
 10
789.568840901687
 20
10.3247726191021
 30
0.0
 11
789.585974652909
 21
10.3247726191021
 31
0.0
  0
LINE
  8
1
 10
531.446539419991
 20
226.717146550417
 30
0.0
 11
531.463673171213
 21
226.717146550417
 31
0.0
  0
POLYLINE
  8
1
 66
     1
 10
0.0
 20
0.0
 30
0.0
 70
     1
  0
VERTEX
  8
1
 10
89.6892831523235
 20
33.9707380228682
 42
0.0
  0
VERTEX
  8
1
 10
89.8116418615857
 20
34.7432805088055
 42
0.0
  0
VERTEX
  8
1
 10
89.6892831523235
 20
35.5158229947429
 42
0.0
  0
VERTEX
  8
1
 10
89.334184347523
 20
36.2127436395367
 42
0.0
  0
VERTEX
  8
1
 10
88.7811049923168
 20
36.7658229947429
 42
0.0
  0
VERTEX
  8
1
 10
88.084184347523
 20
37.1209217995434
 42
0.0
  0
VERTEX
  8
1
 10
87.3116418615857
 20
37.2432805088055
 42
0.0
  0
VERTEX
  8
1
 10
86.5390993756483
 20
37.1209217995434
 42
0.0
  0
VERTEX
  8
1
 10
85.8421787308545
 20
36.7658229947429
 42
0.0
  0
VERTEX
  8
1
 10
85.2890993756483
 20
36.2127436395367
 42
0.0
  0
VERTEX
  8
1
 10
84.9340005708478
 20
35.5158229947429
 42
0.0
  0
VERTEX
  8
1
 10
84.8116418615857
 20
34.7432805088055
 42
0.0
  0
VERTEX
  8
1
 10
84.9340005708478
 20
33.9707380228682
 42
0.0
  0
VERTEX
  8
1
 10
85.2890993756483
 20
33.2738173780744
 42
0.0
  0
VERTEX
  8
1
 10
85.8421787308545
 20
32.7207380228682
 42
0.0
  0
VERTEX
  8
1
 10
86.5390993756483
 20
32.3656392180677
 42
0.0
  0
VERTEX
  8
1
 10
87.3116418615857
 20
32.2432805088055
 42
0.0
  0
VERTEX
  8
1
 10
88.084184347523
 20
32.3656392180677
 42
0.0
  0
VERTEX
  8
1
 10
88.7811049923168
 20
32.7207380228682
 42
0.0
  0
VERTEX
  8
1
 10
89.334184347523
 20
33.2738173780744
 42
0.0
  0
SEQEND
  0
POLYLINE
  8
1
 66
     1
 10
0.0
 20
0.0
 30
0.0
 70
     1
  0
VERTEX
  8
1
 10
89.6892831523235
 20
23.9707380228682
 42
0.0
  0
VERTEX
  8
1
 10
89.8116418615857
 20
24.7432805088056
 42
0.0
  0
VERTEX
  8
1
 10
89.6892831523235
 20
25.5158229947429
 42
0.0
  0
VERTEX
  8
1
 10
89.334184347523
 20
26.2127436395367
 42
0.0
  0
VERTEX
  8
1
 10
88.7811049923168
 20
26.7658229947429
 42
0.0
  0
VERTEX
  8
1
 10
88.084184347523
 20
27.1209217995434
 42
0.0
  0
VERTEX
  8
1
 10
87.3116418615857
 20
27.2432805088056
 42
0.0
  0
VERTEX
  8
1
 10
86.5390993756483
 20
27.1209217995434
 42
0.0
  0
VERTEX
  8
1
 10
85.8421787308545
 20
26.7658229947429
 42
0.0
  0
VERTEX
  8
1
 10
85.2890993756483
 20
26.2127436395367
 42
0.0
  0
VERTEX
  8
1
 10
84.9340005708478
 20
25.5158229947429
 42
0.0
  0
VERTEX
  8
1
 10
84.8116418615857
 20
24.7432805088056
 42
0.0
  0
VERTEX
  8
1
 10
84.9340005708478
 20
23.9707380228682
 42
0.0
  0
VERTEX
  8
1
 10
85.2890993756483
 20
23.2738173780744
 42
0.0
  0
VERTEX
  8
1
 10
85.8421787308545
 20
22.7207380228682
 42
0.0
  0
VERTEX
  8
1
 10
86.5390993756483
 20
22.3656392180677
 42
0.0
  0
VERTEX
  8
1
 10
87.3116418615857
 20
22.2432805088056
 42
0.0
  0
VERTEX
  8
1
 10
88.084184347523
 20
22.3656392180677
 42
0.0
  0
VERTEX
  8
1
 10
88.7811049923168
 20
22.7207380228682
 42
0.0
  0
VERTEX
  8
1
 10
89.334184347523
 20
23.2738173780744
 42
0.0
  0
SEQEND
  0
POLYLINE
  8
1
 66
     1
 10
0.0
 20
0.0
 30
0.0
 70
     1
  0
VERTEX
  8
1
 10
189.689283152323
 20
33.9707380228682
 42
0.0
  0
VERTEX
  8
1
 10
189.811641861586
 20
34.7432805088055
 42
0.0
  0
VERTEX
  8
1
 10
189.689283152323
 20
35.5158229947429
 42
0.0
  0
VERTEX
  8
1
 10
189.334184347523
 20
36.2127436395367
 42
0.0
  0
VERTEX
  8
1
 10
188.781104992317
 20
36.7658229947429
 42
0.0
  0
VERTEX
  8
1
 10
188.084184347523
 20
37.1209217995434
 42
0.0
  0
VERTEX
  8
1
 10
187.311641861586
 20
37.2432805088055
 42
0.0
  0
VERTEX
  8
1
 10
186.539099375648
 20
37.1209217995434
 42
0.0
  0
VERTEX
  8
1
 10
185.842178730854
 20
36.7658229947429
 42
0.0
  0
VERTEX
  8
1
 10
185.289099375648
 20
36.2127436395367
 42
0.0
  0
VERTEX
  8
1
 10
184.934000570848
 20
35.5158229947429
 42
0.0
  0
VERTEX
  8
1
 10
184.811641861586
 20
34.7432805088055
 42
0.0
  0
VERTEX
  8
1
 10
184.934000570848
 20
33.9707380228682
 42
0.0
  0
VERTEX
  8
1
 10
185.289099375648
 20
33.2738173780744
 42
0.0
  0
VERTEX
  8
1
 10
185.842178730854
 20
32.7207380228682
 42
0.0
  0
VERTEX
  8
1
 10
186.539099375648
 20
32.3656392180677
 42
0.0
  0
VERTEX
  8
1
 10
187.311641861586
 20
32.2432805088055
 42
0.0
  0
VERTEX
  8
1
 10
188.084184347523
 20
32.3656392180677
 42
0.0
  0
VERTEX
  8
1
 10
188.781104992317
 20
32.7207380228682
 42
0.0
  0
VERTEX
  8
1
 10
189.334184347523
 20
33.2738173780744
 42
0.0
  0
SEQEND
  0
POLYLINE
  8
1
 66
     1
 10
0.0
 20
0.0
 30
0.0
 70
     1
  0
VERTEX
  8
1
 10
189.689283152323
 20
23.9707380228682
 42
0.0
  0
VERTEX
  8
1
 10
189.811641861586
 20
24.7432805088056
 42
0.0
  0
VERTEX
  8
1
 10
189.689283152323
 20
25.5158229947429
 42
0.0
  0
VERTEX
  8
1
 10
189.334184347523
 20
26.2127436395367
 42
0.0
  0
VERTEX
  8
1
 10
188.781104992317
 20
26.7658229947429
 42
0.0
  0
VERTEX
  8
1
 10
188.084184347523
 20
27.1209217995434
 42
0.0
  0
VERTEX
  8
1
 10
187.311641861586
 20
27.2432805088056
 42
0.0
  0
VERTEX
  8
1
 10
186.539099375648
 20
27.1209217995434
 42
0.0
  0
VERTEX
  8
1
 10
185.842178730854
 20
26.7658229947429
 42
0.0
  0
VERTEX
  8
1
 10
185.289099375648
 20
26.2127436395367
 42
0.0
  0
VERTEX
  8
1
 10
184.934000570848
 20
25.5158229947429
 42
0.0
  0
VERTEX
  8
1
 10
184.811641861586
 20
24.7432805088056
 42
0.0
  0
VERTEX
  8
1
 10
184.934000570848
 20
23.9707380228682
 42
0.0
  0
VERTEX
  8
1
 10
185.289099375648
 20
23.2738173780744
 42
0.0
  0
VERTEX
  8
1
 10
185.842178730854
 20
22.7207380228682
 42
0.0
  0
VERTEX
  8
1
 10
186.539099375648
 20
22.3656392180677
 42
0.0
  0
VERTEX
  8
1
 10
187.311641861586
 20
22.2432805088056
 42
0.0
  0
VERTEX
  8
1
 10
188.084184347523
 20
22.3656392180677
 42
0.0
  0
VERTEX
  8
1
 10
188.781104992317
 20
22.7207380228682
 42
0.0
  0
VERTEX
  8
1
 10
189.334184347523
 20
23.2738173780744
 42
0.0
  0
SEQEND
  0
POLYLINE
  8
1
 66
     1
 10
0.0
 20
0.0
 30
0.0
 70
     1
  0
VERTEX
  8
1
 10
289.689283152324
 20
33.9707380228682
 42
0.0
  0
VERTEX
  8
1
 10
289.811641861586
 20
34.7432805088055
 42
0.0
  0
VERTEX
  8
1
 10
289.689283152324
 20
35.5158229947429
 42
0.0
  0
VERTEX
  8
1
 10
289.334184347523
 20
36.2127436395367
 42
0.0
  0
VERTEX
  8
1
 10
288.781104992317
 20
36.7658229947429
 42
0.0
  0
VERTEX
  8
1
 10
288.084184347523
 20
37.1209217995434
 42
0.0
  0
VERTEX
  8
1
 10
287.311641861586
 20
37.2432805088055
 42
0.0
  0
VERTEX
  8
1
 10
286.539099375648
 20
37.1209217995434
 42
0.0
  0
VERTEX
  8
1
 10
285.842178730855
 20
36.7658229947429
 42
0.0
  0
VERTEX
  8
1
 10
285.289099375648
 20
36.2127436395367
 42
0.0
  0
VERTEX
  8
1
 10
284.934000570848
 20
35.5158229947429
 42
0.0
  0
VERTEX
  8
1
 10
284.811641861586
 20
34.7432805088055
 42
0.0
  0
VERTEX
  8
1
 10
284.934000570848
 20
33.9707380228682
 42
0.0
  0
VERTEX
  8
1
 10
285.289099375648
 20
33.2738173780744
 42
0.0
  0
VERTEX
  8
1
 10
285.842178730855
 20
32.7207380228682
 42
0.0
  0
VERTEX
  8
1
 10
286.539099375648
 20
32.3656392180677
 42
0.0
  0
VERTEX
  8
1
 10
287.311641861586
 20
32.2432805088055
 42
0.0
  0
VERTEX
  8
1
 10
288.084184347523
 20
32.3656392180677
 42
0.0
  0
VERTEX
  8
1
 10
288.781104992317
 20
32.7207380228682
 42
0.0
  0
VERTEX
  8
1
 10
289.334184347523
 20
33.2738173780744
 42
0.0
  0
SEQEND
  0
POLYLINE
  8
1
 66
     1
 10
0.0
 20
0.0
 30
0.0
 70
     1
  0
VERTEX
  8
1
 10
289.689283152324
 20
23.9707380228682
 42
0.0
  0
VERTEX
  8
1
 10
289.811641861586
 20
24.7432805088056
 42
0.0
  0
VERTEX
  8
1
 10
289.689283152324
 20
25.5158229947429
 42
0.0
  0
VERTEX
  8
1
 10
289.334184347523
 20
26.2127436395367
 42
0.0
  0
VERTEX
  8
1
 10
288.781104992317
 20
26.7658229947429
 42
0.0
  0
VERTEX
  8
1
 10
288.084184347523
 20
27.1209217995434
 42
0.0
  0
VERTEX
  8
1
 10
287.311641861586
 20
27.2432805088056
 42
0.0
  0
VERTEX
  8
1
 10
286.539099375648
 20
27.1209217995434
 42
0.0
  0
VERTEX
  8
1
 10
285.842178730855
 20
26.7658229947429
 42
0.0
  0
VERTEX
  8
1
 10
285.289099375648
 20
26.2127436395367
 42
0.0
  0
VERTEX
  8
1
 10
284.934000570848
 20
25.5158229947429
 42
0.0
  0
VERTEX
  8
1
 10
284.811641861586
 20
24.7432805088056
 42
0.0
  0
VERTEX
  8
1
 10
284.934000570848
 20
23.9707380228682
 42
0.0
  0
VERTEX
  8
1
 10
285.289099375648
 20
23.2738173780744
 42
0.0
  0
VERTEX
  8
1
 10
285.842178730855
 20
22.7207380228682
 42
0.0
  0
VERTEX
  8
1
 10
286.539099375648
 20
22.3656392180677
 42
0.0
  0
VERTEX
  8
1
 10
287.311641861586
 20
22.2432805088056
 42
0.0
  0
VERTEX
  8
1
 10
288.084184347523
 20
22.3656392180677
 42
0.0
  0
VERTEX
  8
1
 10
288.781104992317
 20
22.7207380228682
 42
0.0
  0
VERTEX
  8
1
 10
289.334184347523
 20
23.2738173780744
 42
0.0
  0
SEQEND
  0
POLYLINE
  8
1
 66
     1
 10
0.0
 20
0.0
 30
0.0
 70
     1
  0
VERTEX
  8
1
 10
389.689283152324
 20
33.9707380228682
 42
0.0
  0
VERTEX
  8
1
 10
389.811641861586
 20
34.7432805088055
 42
0.0
  0
VERTEX
  8
1
 10
389.689283152324
 20
35.5158229947429
 42
0.0
  0
VERTEX
  8
1
 10
389.334184347523
 20
36.2127436395367
 42
0.0
  0
VERTEX
  8
1
 10
388.781104992317
 20
36.7658229947429
 42
0.0
  0
VERTEX
  8
1
 10
388.084184347523
 20
37.1209217995434
 42
0.0
  0
VERTEX
  8
1
 10
387.311641861586
 20
37.2432805088055
 42
0.0
  0
VERTEX
  8
1
 10
386.539099375648
 20
37.1209217995434
 42
0.0
  0
VERTEX
  8
1
 10
385.842178730855
 20
36.7658229947429
 42
0.0
  0
VERTEX
  8
1
 10
385.289099375648
 20
36.2127436395367
 42
0.0
  0
VERTEX
  8
1
 10
384.934000570848
 20
35.5158229947429
 42
0.0
  0
VERTEX
  8
1
 10
384.811641861586
 20
34.7432805088055
 42
0.0
  0
VERTEX
  8
1
 10
384.934000570848
 20
33.9707380228682
 42
0.0
  0
VERTEX
  8
1
 10
385.289099375648
 20
33.2738173780744
 42
0.0
  0
VERTEX
  8
1
 10
385.842178730855
 20
32.7207380228682
 42
0.0
  0
VERTEX
  8
1
 10
386.539099375648
 20
32.3656392180677
 42
0.0
  0
VERTEX
  8
1
 10
387.311641861586
 20
32.2432805088055
 42
0.0
  0
VERTEX
  8
1
 10
388.084184347523
 20
32.3656392180677
 42
0.0
  0
VERTEX
  8
1
 10
388.781104992317
 20
32.7207380228682
 42
0.0
  0
VERTEX
  8
1
 10
389.334184347523
 20
33.2738173780744
 42
0.0
  0
SEQEND
  0
POLYLINE
  8
1
 66
     1
 10
0.0
 20
0.0
 30
0.0
 70
     1
  0
VERTEX
  8
1
 10
389.689283152324
 20
23.9707380228682
 42
0.0
  0
VERTEX
  8
1
 10
389.811641861586
 20
24.7432805088056
 42
0.0
  0
VERTEX
  8
1
 10
389.689283152324
 20
25.5158229947429
 42
0.0
  0
VERTEX
  8
1
 10
389.334184347523
 20
26.2127436395367
 42
0.0
  0
VERTEX
  8
1
 10
388.781104992317
 20
26.7658229947429
 42
0.0
  0
VERTEX
  8
1
 10
388.084184347523
 20
27.1209217995434
 42
0.0
  0
VERTEX
  8
1
 10
387.311641861586
 20
27.2432805088056
 42
0.0
  0
VERTEX
  8
1
 10
386.539099375648
 20
27.1209217995434
 42
0.0
  0
VERTEX
  8
1
 10
385.842178730855
 20
26.7658229947429
 42
0.0
  0
VERTEX
  8
1
 10
385.289099375648
 20
26.2127436395367
 42
0.0
  0
VERTEX
  8
1
 10
384.934000570848
 20
25.5158229947429
 42
0.0
  0
VERTEX
  8
1
 10
384.811641861586
 20
24.7432805088056
 42
0.0
  0
VERTEX
  8
1
 10
384.934000570848
 20
23.9707380228682
 42
0.0
  0
VERTEX
  8
1
 10
385.289099375648
 20
23.2738173780744
 42
0.0
  0
VERTEX
  8
1
 10
385.842178730855
 20
22.7207380228682
 42
0.0
  0
VERTEX
  8
1
 10
386.539099375648
 20
22.3656392180677
 42
0.0
  0
VERTEX
  8
1
 10
387.311641861586
 20
22.2432805088056
 42
0.0
  0
VERTEX
  8
1
 10
388.084184347523
 20
22.3656392180677
 42
0.0
  0
VERTEX
  8
1
 10
388.781104992317
 20
22.7207380228682
 42
0.0
  0
VERTEX
  8
1
 10
389.334184347523
 20
23.2738173780744
 42
0.0
  0
SEQEND
  0
POLYLINE
  8
1
 66
     1
 10
0.0
 20
0.0
 30
0.0
 70
     1
  0
VERTEX
  8
1
 10
489.689283152324
 20
33.9707380228681
 42
0.0
  0
VERTEX
  8
1
 10
489.811641861586
 20
34.7432805088055
 42
0.0
  0
VERTEX
  8
1
 10
489.689283152324
 20
35.5158229947429
 42
0.0
  0
VERTEX
  8
1
 10
489.334184347523
 20
36.2127436395367
 42
0.0
  0
VERTEX
  8
1
 10
488.781104992317
 20
36.7658229947429
 42
0.0
  0
VERTEX
  8
1
 10
488.084184347523
 20
37.1209217995434
 42
0.0
  0
VERTEX
  8
1
 10
487.311641861586
 20
37.2432805088055
 42
0.0
  0
VERTEX
  8
1
 10
486.539099375648
 20
37.1209217995434
 42
0.0
  0
VERTEX
  8
1
 10
485.842178730854
 20
36.7658229947429
 42
0.0
  0
VERTEX
  8
1
 10
485.289099375648
 20
36.2127436395367
 42
0.0
  0
VERTEX
  8
1
 10
484.934000570848
 20
35.5158229947429
 42
0.0
  0
VERTEX
  8
1
 10
484.811641861586
 20
34.7432805088055
 42
0.0
  0
VERTEX
  8
1
 10
484.934000570848
 20
33.9707380228681
 42
0.0
  0
VERTEX
  8
1
 10
485.289099375648
 20
33.2738173780743
 42
0.0
  0
VERTEX
  8
1
 10
485.842178730854
 20
32.7207380228681
 42
0.0
  0
VERTEX
  8
1
 10
486.539099375648
 20
32.3656392180676
 42
0.0
  0
VERTEX
  8
1
 10
487.311641861586
 20
32.2432805088055
 42
0.0
  0
VERTEX
  8
1
 10
488.084184347523
 20
32.3656392180676
 42
0.0
  0
VERTEX
  8
1
 10
488.781104992317
 20
32.7207380228681
 42
0.0
  0
VERTEX
  8
1
 10
489.334184347523
 20
33.2738173780743
 42
0.0
  0
SEQEND
  0
POLYLINE
  8
1
 66
     1
 10
0.0
 20
0.0
 30
0.0
 70
     1
  0
VERTEX
  8
1
 10
489.689283152324
 20
23.9707380228681
 42
0.0
  0
VERTEX
  8
1
 10
489.811641861586
 20
24.7432805088055
 42
0.0
  0
VERTEX
  8
1
 10
489.689283152324
 20
25.5158229947429
 42
0.0
  0
VERTEX
  8
1
 10
489.334184347523
 20
26.2127436395367
 42
0.0
  0
VERTEX
  8
1
 10
488.781104992317
 20
26.7658229947429
 42
0.0
  0
VERTEX
  8
1
 10
488.084184347523
 20
27.1209217995434
 42
0.0
  0
VERTEX
  8
1
 10
487.311641861586
 20
27.2432805088055
 42
0.0
  0
VERTEX
  8
1
 10
486.539099375648
 20
27.1209217995434
 42
0.0
  0
VERTEX
  8
1
 10
485.842178730854
 20
26.7658229947429
 42
0.0
  0
VERTEX
  8
1
 10
485.289099375648
 20
26.2127436395367
 42
0.0
  0
VERTEX
  8
1
 10
484.934000570848
 20
25.5158229947429
 42
0.0
  0
VERTEX
  8
1
 10
484.811641861586
 20
24.7432805088055
 42
0.0
  0
VERTEX
  8
1
 10
484.934000570848
 20
23.9707380228681
 42
0.0
  0
VERTEX
  8
1
 10
485.289099375648
 20
23.2738173780743
 42
0.0
  0
VERTEX
  8
1
 10
485.842178730854
 20
22.7207380228681
 42
0.0
  0
VERTEX
  8
1
 10
486.539099375648
 20
22.3656392180676
 42
0.0
  0
VERTEX
  8
1
 10
487.311641861586
 20
22.2432805088055
 42
0.0
  0
VERTEX
  8
1
 10
488.084184347523
 20
22.3656392180676
 42
0.0
  0
VERTEX
  8
1
 10
488.781104992317
 20
22.7207380228681
 42
0.0
  0
VERTEX
  8
1
 10
489.334184347523
 20
23.2738173780743
 42
0.0
  0
SEQEND
  0
POLYLINE
  8
1
 66
     1
 10
0.0
 20
0.0
 30
0.0
 70
     1
  0
VERTEX
  8
1
 10
515.311641861586
 20
31.7432805088055
 42
0.0
  0
VERTEX
  8
1
 10
515.311641861586
 20
44.7432805088055
 42
0.0
  0
VERTEX
  8
1
 10
565.311641861586
 20
9.7432805088055
 42
0.0
  0
VERTEX
  8
1
 10
565.311641861586
 20
1.7432805088055
 42
0.0
  0
VERTEX
  8
1
 10
515.311641861586
 20
1.7432805088055
 42
0.0
  0
VERTEX
  8
1
 10
457.311641861586
 20
1.7432805088056
 42
0.0
  0
VERTEX
  8
1
 10
457.311641861586
 20
9.7432805088056
 42
0.0
  0
VERTEX
  8
1
 10
407.311641861586
 20
9.7432805088056
 42
0.0
  0
VERTEX
  8
1
 10
407.311641861586
 20
1.7432805088056
 42
0.0
  0
VERTEX
  8
1
 10
357.311641861586
 20
1.7432805088056
 42
0.0
  0
VERTEX
  8
1
 10
357.311641861586
 20
9.7432805088056
 42
0.0
  0
VERTEX
  8
1
 10
307.311641861586
 20
9.7432805088056
 42
0.0
  0
VERTEX
  8
1
 10
307.311641861586
 20
1.7432805088056
 42
0.0
  0
VERTEX
  8
1
 10
257.311641861586
 20
1.7432805088056
 42
0.0
  0
VERTEX
  8
1
 10
257.311641861586
 20
9.7432805088056
 42
0.0
  0
VERTEX
  8
1
 10
207.311641861586
 20
9.7432805088056
 42
0.0
  0
VERTEX
  8
1
 10
207.311641861586
 20
1.7432805088056
 42
0.0
  0
VERTEX
  8
1
 10
157.311641861586
 20
1.7432805088056
 42
0.0
  0
VERTEX
  8
1
 10
157.311641861586
 20
9.7432805088056
 42
0.0
  0
VERTEX
  8
1
 10
107.311641861586
 20
9.7432805088056
 42
0.0
  0
VERTEX
  8
1
 10
107.311641861586
 20
1.7432805088056
 42
0.0
  0
VERTEX
  8
1
 10
57.3116418615857
 20
1.7432805088056
 42
0.0
  0
VERTEX
  8
1
 10
57.3116418615857
 20
9.7432805088056
 42
0.0
  0
VERTEX
  8
1
 10
7.3116418615857
 20
9.7432805088056
 42
0.0
  0
VERTEX
  8
1
 10
7.3116418615857
 20
21.7432805088056
 42
0.0
  0
VERTEX
  8
1
 10
3.3116418615857
 20
21.7432805088056
 42
0.0
  0
VERTEX
  8
1
 10
3.3116418615857
 20
31.7432805088056
 42
0.0
  0
VERTEX
  8
1
 10
7.3116418615857
 20
31.7432805088056
 42
0.0
  0
VERTEX
  8
1
 10
7.3116418615857
 20
39.7432805088056
 42
0.0
  0
VERTEX
  8
1
 10
17.3116418615857
 20
39.7432805088056
 42
0.0
  0
VERTEX
  8
1
 10
17.3116418615857
 20
44.7432805088055
 42
0.0
  0
VERTEX
  8
1
 10
62.3116418615857
 20
44.7432805088055
 42
0.0
  0
VERTEX
  8
1
 10
62.3116418615857
 20
39.7432805088056
 42
0.0
  0
VERTEX
  8
1
 10
72.3116418615857
 20
39.7432805088056
 42
0.0
  0
VERTEX
  8
1
 10
72.3116418615857
 20
44.7432805088055
 42
0.0
  0
VERTEX
  8
1
 10
507.311641861586
 20
44.7432805088055
 42
0.0
  0
VERTEX
  8
1
 10
507.311641861586
 20
31.7432805088055
 42
0.0
  0
SEQEND
  0
POLYLINE
  8
1
 66
     1
 10
0.0
 20
0.0
 30
0.0
 70
     1
  0
VERTEX
  8
1
 10
514.42145143977
 20
81.1488433797512
 42
0.0
  0
VERTEX
  8
1
 10
514.42145143977
 20
94.1488433797512
 42
0.0
  0
VERTEX
  8
1
 10
564.42145143977
 20
59.1488433797512
 42
0.0
  0
VERTEX
  8
1
 10
564.42145143977
 20
51.1488433797512
 42
0.0
  0
VERTEX
  8
1
 10
514.42145143977
 20
51.1488433797512
 42
0.0
  0
VERTEX
  8
1
 10
456.42145143977
 20
51.1488433797512
 42
0.0
  0
VERTEX
  8
1
 10
456.42145143977
 20
59.1488433797512
 42
0.0
  0
VERTEX
  8
1
 10
406.42145143977
 20
59.1488433797512
 42
0.0
  0
VERTEX
  8
1
 10
406.42145143977
 20
51.1488433797512
 42
0.0
  0
VERTEX
  8
1
 10
356.42145143977
 20
51.1488433797513
 42
0.0
  0
VERTEX
  8
1
 10
356.42145143977
 20
59.1488433797512
 42
0.0
  0
VERTEX
  8
1
 10
306.42145143977
 20
59.1488433797512
 42
0.0
  0
VERTEX
  8
1
 10
306.42145143977
 20
51.1488433797512
 42
0.0
  0
VERTEX
  8
1
 10
256.42145143977
 20
51.1488433797512
 42
0.0
  0
VERTEX
  8
1
 10
256.42145143977
 20
59.1488433797512
 42
0.0
  0
VERTEX
  8
1
 10
206.42145143977
 20
59.1488433797512
 42
0.0
  0
VERTEX
  8
1
 10
206.42145143977
 20
51.1488433797512
 42
0.0
  0
VERTEX
  8
1
 10
156.42145143977
 20
51.1488433797513
 42
0.0
  0
VERTEX
  8
1
 10
156.42145143977
 20
59.1488433797512
 42
0.0
  0
VERTEX
  8
1
 10
106.42145143977
 20
59.1488433797512
 42
0.0
  0
VERTEX
  8
1
 10
106.42145143977
 20
51.1488433797512
 42
0.0
  0
VERTEX
  8
1
 10
56.42145143977
 20
51.1488433797513
 42
0.0
  0
VERTEX
  8
1
 10
56.42145143977
 20
59.1488433797512
 42
0.0
  0
VERTEX
  8
1
 10
6.42145143977
 20
59.1488433797513
 42
0.0
  0
VERTEX
  8
1
 10
6.42145143977
 20
71.1488433797512
 42
0.0
  0
VERTEX
  8
1
 10
2.42145143977
 20
71.1488433797512
 42
0.0
  0
VERTEX
  8
1
 10
2.42145143977
 20
81.1488433797512
 42
0.0
  0
VERTEX
  8
1
 10
6.42145143977
 20
81.1488433797512
 42
0.0
  0
VERTEX
  8
1
 10
6.42145143977
 20
89.1488433797513
 42
0.0
  0
VERTEX
  8
1
 10
16.42145143977
 20
89.1488433797513
 42
0.0
  0
VERTEX
  8
1
 10
16.42145143977
 20
94.1488433797512
 42
0.0
  0
VERTEX
  8
1
 10
61.42145143977
 20
94.1488433797512
 42
0.0
  0
VERTEX
  8
1
 10
61.42145143977
 20
89.1488433797513
 42
0.0
  0
VERTEX
  8
1
 10
71.42145143977
 20
89.1488433797513
 42
0.0
  0
VERTEX
  8
1
 10
71.42145143977
 20
94.1488433797512
 42
0.0
  0
VERTEX
  8
1
 10
506.42145143977
 20
94.1488433797512
 42
0.0
  0
VERTEX
  8
1
 10
506.42145143977
 20
81.1488433797512
 42
0.0
  0
SEQEND
  0
ENDSEC
  0
EOF
