  0
SECTION
  2
HEADER
  9
$ACADVER
  1
AC1009
  9
$EXTMAX
 10
512.072204589844
 20
298.644653320313
 30
0.0
  9
$EXTMIN
 10
1.3936706781387
 20
2.067412853241
 30
0.0
  9
$INSUNITS
 70
     4
  9
$LUNITS
 70
     2
  9
$LUPREC
 70
     4
  9
$MEASUREMENT
 70
     1
  0
ENDSEC
  0
SECTION
  2
TABLES
  0
TABLE
  2
LAYER
 70
     1
  0
LAYER
  2
0
 70
     0
 62
     7
  6
Continuous
  0
LAYER
  2
1
 70
     0
 62
     7
  6
Continuous
  0
ENDTAB
  0
TABLE
  2
APPID
 70
     1
  0
APPID
  2
ACAD
 70
     0
  0
ENDTAB
  0
ENDSEC
  0
SECTION
  2
ENTITIES
  0
POLYLINE
  8
1
 66
     1
 10
0.0
 20
0.0
 30
0.0
 70
     1
  0
VERTEX
  8
1
 10
319.39075663282
 20
192.17927640202
 42
0.0
  0
VERTEX
  8
1
 10
319.39075663282
 20
232.17927640202
 42
0.0
  0
VERTEX
  8
1
 10
323.39075663282
 20
232.17927640202
 42
0.0
  0
VERTEX
  8
1
 10
323.39075663282
 20
252.17927640202
 42
0.0
  0
VERTEX
  8
1
 10
319.39075663282
 20
252.17927640202
 42
0.0
  0
VERTEX
  8
1
 10
219.39075663282
 20
272.17927640202
 42
0.0
  0
VERTEX
  8
1
 10
215.39075663282
 20
272.17927640202
 42
0.0
  0
VERTEX
  8
1
 10
215.39075663282
 20
252.17927640202
 42
0.0
  0
VERTEX
  8
1
 10
219.39075663282
 20
252.17927640202
 42
0.0
  0
VERTEX
  8
1
 10
219.39075663282
 20
232.17927640202
 42
0.0
  0
VERTEX
  8
1
 10
215.39075663282
 20
232.17927640202
 42
0.0
  0
VERTEX
  8
1
 10
215.39075663282
 20
212.17927640202
 42
0.0
  0
VERTEX
  8
1
 10
219.39075663282
 20
212.17927640202
 42
0.0
  0
VERTEX
  8
1
 10
219.39075663282
 20
192.17927640202
 42
0.0
  0
VERTEX
  8
1
 10
215.39075663282
 20
192.17927640202
 42
0.0
  0
VERTEX
  8
1
 10
215.39075663282
 20
172.17927640202
 42
0.0
  0
VERTEX
  8
1
 10
239.39075663282
 20
172.17927640202
 42
0.0
  0
VERTEX
  8
1
 10
239.39075663282
 20
180.17927640202
 42
0.0
  0
VERTEX
  8
1
 10
259.39075663282
 20
180.17927640202
 42
0.0
  0
VERTEX
  8
1
 10
259.39075663282
 20
172.17927640202
 42
0.0
  0
VERTEX
  8
1
 10
279.39075663282
 20
172.17927640202
 42
0.0
  0
VERTEX
  8
1
 10
279.39075663282
 20
180.17927640202
 42
0.0
  0
VERTEX
  8
1
 10
299.39075663282
 20
180.17927640202
 42
0.0
  0
VERTEX
  8
1
 10
299.39075663282
 20
172.17927640202
 42
0.0
  0
VERTEX
  8
1
 10
323.39075663282
 20
172.17927640202
 42
0.0
  0
VERTEX
  8
1
 10
323.39075663282
 20
192.17927640202
 42
0.0
  0
SEQEND
  0
POLYLINE
  8
1
 66
     1
 10
0.0
 20
0.0
 30
0.0
 70
     1
  0
VERTEX
  8
1
 10
125.428201026475
 20
218.644662950173
 42
0.0
  0
VERTEX
  8
1
 10
85.428201026475
 20
218.644662950173
 42
0.0
  0
VERTEX
  8
1
 10
85.428201026475
 20
226.644662950173
 42
0.0
  0
VERTEX
  8
1
 10
45.428201026475
 20
226.644662950173
 42
0.0
  0
VERTEX
  8
1
 10
45.428201026475
 20
218.644662950173
 42
0.0
  0
VERTEX
  8
1
 10
5.428201026475
 20
218.644662950173
 42
0.0
  0
VERTEX
  8
1
 10
5.428201026475
 20
238.644662950173
 42
0.0
  0
VERTEX
  8
1
 10
1.428201026475
 20
238.644662950173
 42
0.0
  0
VERTEX
  8
1
 10
1.428201026475
 20
278.644662950173
 42
0.0
  0
VERTEX
  8
1
 10
5.428201026475
 20
278.644662950173
 42
0.0
  0
VERTEX
  8
1
 10
5.428201026475
 20
298.644662950173
 42
0.0
  0
VERTEX
  8
1
 10
205.428201026475
 20
298.644662950173
 42
0.0
  0
VERTEX
  8
1
 10
205.428201026475
 20
278.644662950173
 42
0.0
  0
VERTEX
  8
1
 10
209.428201026475
 20
278.644662950173
 42
0.0
  0
VERTEX
  8
1
 10
209.428201026475
 20
238.644662950173
 42
0.0
  0
VERTEX
  8
1
 10
205.428201026475
 20
238.644662950173
 42
0.0
  0
VERTEX
  8
1
 10
205.428201026475
 20
218.644662950173
 42
0.0
  0
VERTEX
  8
1
 10
165.428201026475
 20
218.644662950173
 42
0.0
  0
VERTEX
  8
1
 10
165.428201026475
 20
226.644662950173
 42
0.0
  0
VERTEX
  8
1
 10
125.428201026475
 20
226.644662950173
 42
0.0
  0
SEQEND
  0
POLYLINE
  8
1
 66
     1
 10
0.0
 20
0.0
 30
0.0
 70
     1
  0
VERTEX
  8
1
 10
10.5852951203511
 20
15.11761288603
 42
0.0
  0
VERTEX
  8
1
 10
41.8852951203511
 20
15.11761288603
 42
0.0
  0
VERTEX
  8
1
 10
41.8852951203511
 20
36.31761288603
 42
0.0
  0
VERTEX
  8
1
 10
10.5852951203511
 20
36.31761288603
 42
0.0
  0
SEQEND
  0
POLYLINE
  8
1
 66
     1
 10
0.0
 20
0.0
 30
0.0
 70
     1
  0
VERTEX
  8
1
 10
32.0352951203511
 20
25.71761288603
 42
0.0
  0
VERTEX
  8
1
 10
31.9638874958029
 20
26.6249327832634
 42
0.0
  0
VERTEX
  8
1
 10
31.751422914863
 20
27.5099114534047
 42
0.0
  0
VERTEX
  8
1
 10
31.4031329606437
 20
28.3507577845194
 42
0.0
  0
VERTEX
  8
1
 10
30.9275936877258
 20
29.1267673493263
 42
0.0
  0
VERTEX
  8
1
 10
30.3365144512331
 20
29.818832216912
 42
0.0
  0
VERTEX
  8
1
 10
29.6444495836475
 20
30.4099114534047
 42
0.0
  0
VERTEX
  8
1
 10
28.8684400188405
 20
30.8854507263225
 42
0.0
  0
VERTEX
  8
1
 10
28.0275936877258
 20
31.2337406805419
 42
0.0
  0
VERTEX
  8
1
 10
27.1426150175845
 20
31.4462052614818
 42
0.0
  0
VERTEX
  8
1
 10
26.2352951203511
 20
31.51761288603
 42
0.0
  0
VERTEX
  8
1
 10
25.3279752231178
 20
31.4462052614818
 42
0.0
  0
VERTEX
  8
1
 10
24.4429965529764
 20
31.2337406805419
 42
0.0
  0
VERTEX
  8
1
 10
23.6021502218618
 20
30.8854507263225
 42
0.0
  0
VERTEX
  8
1
 10
22.8261406570548
 20
30.4099114534047
 42
0.0
  0
VERTEX
  8
1
 10
22.1340757894692
 20
29.818832216912
 42
0.0
  0
VERTEX
  8
1
 10
21.5429965529764
 20
29.1267673493263
 42
0.0
  0
VERTEX
  8
1
 10
21.0674572800586
 20
28.3507577845194
 42
0.0
  0
VERTEX
  8
1
 10
20.7191673258392
 20
27.5099114534047
 42
0.0
  0
VERTEX
  8
1
 10
20.5067027448993
 20
26.6249327832634
 42
0.0
  0
VERTEX
  8
1
 10
20.4352951203512
 20
25.71761288603
 42
0.0
  0
VERTEX
  8
1
 10
20.5067027448993
 20
24.8102929887967
 42
0.0
  0
VERTEX
  8
1
 10
20.7191673258392
 20
23.9253143186553
 42
0.0
  0
VERTEX
  8
1
 10
21.0674572800586
 20
23.0844679875406
 42
0.0
  0
VERTEX
  8
1
 10
21.5429965529764
 20
22.3084584227337
 42
0.0
  0
VERTEX
  8
1
 10
22.1340757894692
 20
21.616393555148
 42
0.0
  0
VERTEX
  8
1
 10
22.8261406570548
 20
21.0253143186553
 42
0.0
  0
VERTEX
  8
1
 10
23.6021502218618
 20
20.5497750457375
 42
0.0
  0
VERTEX
  8
1
 10
24.4429965529764
 20
20.2014850915181
 42
0.0
  0
VERTEX
  8
1
 10
25.3279752231178
 20
19.9890205105782
 42
0.0
  0
VERTEX
  8
1
 10
26.2352951203511
 20
19.91761288603
 42
0.0
  0
VERTEX
  8
1
 10
27.1426150175845
 20
19.9890205105782
 42
0.0
  0
VERTEX
  8
1
 10
28.0275936877258
 20
20.2014850915181
 42
0.0
  0
VERTEX
  8
1
 10
28.8684400188405
 20
20.5497750457375
 42
0.0
  0
VERTEX
  8
1
 10
29.6444495836475
 20
21.0253143186553
 42
0.0
  0
VERTEX
  8
1
 10
30.3365144512331
 20
21.616393555148
 42
0.0
  0
VERTEX
  8
1
 10
30.9275936877258
 20
22.3084584227337
 42
0.0
  0
VERTEX
  8
1
 10
31.4031329606437
 20
23.0844679875406
 42
0.0
  0
VERTEX
  8
1
 10
31.751422914863
 20
23.9253143186553
 42
0.0
  0
VERTEX
  8
1
 10
31.9638874958029
 20
24.8102929887967
 42
0.0
  0
SEQEND
  0
POLYLINE
  8
1
 66
     1
 10
0.0
 20
0.0
 30
0.0
 70
     1
  0
VERTEX
  8
1
 10
1.3987731588236
 20
62.0674127770298
 42
0.0
  0
VERTEX
  8
1
 10
1.3987731588236
 20
82.0674127770298
 42
0.0
  0
VERTEX
  8
1
 10
5.3987731588236
 20
82.0674127770298
 42
0.0
  0
VERTEX
  8
1
 10
5.3987731588236
 20
102.06741277703
 42
0.0
  0
VERTEX
  8
1
 10
205.398773158824
 20
102.06741277703
 42
0.0
  0
VERTEX
  8
1
 10
205.398773158824
 20
82.0674127770298
 42
0.0
  0
VERTEX
  8
1
 10
209.398773158824
 20
82.0674127770298
 42
0.0
  0
VERTEX
  8
1
 10
209.398773158824
 20
62.0674127770298
 42
0.0
  0
VERTEX
  8
1
 10
205.398773158824
 20
62.0674127770298
 42
0.0
  0
VERTEX
  8
1
 10
205.398773158824
 20
42.0674127770298
 42
0.0
  0
VERTEX
  8
1
 10
209.398773158824
 20
42.0674127770298
 42
0.0
  0
VERTEX
  8
1
 10
209.398773158824
 20
22.0674127770298
 42
0.0
  0
VERTEX
  8
1
 10
205.398773158824
 20
22.0674127770298
 42
0.0
  0
VERTEX
  8
1
 10
205.398773158824
 20
2.0674127770298
 42
0.0
  0
VERTEX
  8
1
 10
165.398773158824
 20
2.0674127770298
 42
0.0
  0
VERTEX
  8
1
 10
165.398773158824
 20
10.0674127770298
 42
0.0
  0
VERTEX
  8
1
 10
125.398773158824
 20
10.0674127770298
 42
0.0
  0
VERTEX
  8
1
 10
125.398773158824
 20
2.0674127770298
 42
0.0
  0
VERTEX
  8
1
 10
85.3987731588236
 20
2.0674127770298
 42
0.0
  0
VERTEX
  8
1
 10
85.3987731588236
 20
10.0674127770298
 42
0.0
  0
VERTEX
  8
1
 10
45.3987731588236
 20
10.0674127770298
 42
0.0
  0
VERTEX
  8
1
 10
45.3987731588236
 20
2.0674127770298
 42
0.0
  0
VERTEX
  8
1
 10
5.3987731588236
 20
2.0674127770298
 42
0.0
  0
VERTEX
  8
1
 10
5.3987731588236
 20
22.0674127770298
 42
0.0
  0
VERTEX
  8
1
 10
1.3987731588236
 20
22.0674127770298
 42
0.0
  0
VERTEX
  8
1
 10
1.3987731588236
 20
42.0674127770298
 42
0.0
  0
VERTEX
  8
1
 10
5.3987731588236
 20
42.0674127770298
 42
0.0
  0
VERTEX
  8
1
 10
5.3987731588236
 20
62.0674127770298
 42
0.0
  0
SEQEND
  0
POLYLINE
  8
1
 66
     1
 10
0.0
 20
0.0
 30
0.0
 70
     1
  0
VERTEX
  8
1
 10
22.6487731588236
 20
97.0674157791754
 42
0.0
  0
VERTEX
  8
1
 10
22.5875938041926
 20
97.4536870221441
 42
0.0
  0
VERTEX
  8
1
 10
22.4100444017923
 20
97.802147344541
 42
0.0
  0
VERTEX
  8
1
 10
22.1335047241892
 20
98.078687022144
 42
0.0
  0
VERTEX
  8
1
 10
21.7850444017923
 20
98.2562364245443
 42
0.0
  0
VERTEX
  8
1
 10
21.3987731588236
 20
98.3174157791754
 42
0.0
  0
VERTEX
  8
1
 10
21.012501915855
 20
98.2562364245443
 42
0.0
  0
VERTEX
  8
1
 10
20.6640415934581
 20
98.078687022144
 42
0.0
  0
VERTEX
  8
1
 10
20.387501915855
 20
97.802147344541
 42
0.0
  0
VERTEX
  8
1
 10
20.2099525134547
 20
97.4536870221441
 42
0.0
  0
VERTEX
  8
1
 10
20.1487731588236
 20
97.0674157791754
 42
0.0
  0
VERTEX
  8
1
 10
20.2099525134547
 20
96.6811445362067
 42
0.0
  0
VERTEX
  8
1
 10
20.387501915855
 20
96.3326842138098
 42
0.0
  0
VERTEX
  8
1
 10
20.6640415934581
 20
96.0561445362067
 42
0.0
  0
VERTEX
  8
1
 10
21.012501915855
 20
95.8785951338064
 42
0.0
  0
VERTEX
  8
1
 10
21.3987731588236
 20
95.8174157791754
 42
0.0
  0
VERTEX
  8
1
 10
21.7850444017923
 20
95.8785951338064
 42
0.0
  0
VERTEX
  8
1
 10
22.1335047241892
 20
96.0561445362067
 42
0.0
  0
VERTEX
  8
1
 10
22.4100444017923
 20
96.3326842138098
 42
0.0
  0
VERTEX
  8
1
 10
22.5875938041926
 20
96.6811445362067
 42
0.0
  0
SEQEND
  0
POLYLINE
  8
1
 66
     1
 10
0.0
 20
0.0
 30
0.0
 70
     1
  0
VERTEX
  8
1
 10
40.6487731588236
 20
97.0674157791754
 42
0.0
  0
VERTEX
  8
1
 10
40.5875938041926
 20
97.4536870221441
 42
0.0
  0
VERTEX
  8
1
 10
40.4100444017923
 20
97.802147344541
 42
0.0
  0
VERTEX
  8
1
 10
40.1335047241892
 20
98.078687022144
 42
0.0
  0
VERTEX
  8
1
 10
39.7850444017923
 20
98.2562364245443
 42
0.0
  0
VERTEX
  8
1
 10
39.3987731588236
 20
98.3174157791754
 42
0.0
  0
VERTEX
  8
1
 10
39.0125019158549
 20
98.2562364245443
 42
0.0
  0
VERTEX
  8
1
 10
38.6640415934581
 20
98.078687022144
 42
0.0
  0
VERTEX
  8
1
 10
38.3875019158549
 20
97.802147344541
 42
0.0
  0
VERTEX
  8
1
 10
38.2099525134547
 20
97.4536870221441
 42
0.0
  0
VERTEX
  8
1
 10
38.1487731588236
 20
97.0674157791754
 42
0.0
  0
VERTEX
  8
1
 10
38.2099525134547
 20
96.6811445362067
 42
0.0
  0
VERTEX
  8
1
 10
38.3875019158549
 20
96.3326842138098
 42
0.0
  0
VERTEX
  8
1
 10
38.6640415934581
 20
96.0561445362067
 42
0.0
  0
VERTEX
  8
1
 10
39.0125019158549
 20
95.8785951338064
 42
0.0
  0
VERTEX
  8
1
 10
39.3987731588236
 20
95.8174157791754
 42
0.0
  0
VERTEX
  8
1
 10
39.7850444017923
 20
95.8785951338064
 42
0.0
  0
VERTEX
  8
1
 10
40.1335047241892
 20
96.0561445362067
 42
0.0
  0
VERTEX
  8
1
 10
40.4100444017923
 20
96.3326842138098
 42
0.0
  0
VERTEX
  8
1
 10
40.5875938041926
 20
96.6811445362067
 42
0.0
  0
SEQEND
  0
POLYLINE
  8
1
 66
     1
 10
0.0
 20
0.0
 30
0.0
 70
     1
  0
VERTEX
  8
1
 10
172.648773158824
 20
97.0674157791754
 42
0.0
  0
VERTEX
  8
1
 10
172.587593804193
 20
97.4536870221441
 42
0.0
  0
VERTEX
  8
1
 10
172.410044401792
 20
97.802147344541
 42
0.0
  0
VERTEX
  8
1
 10
172.133504724189
 20
98.078687022144
 42
0.0
  0
VERTEX
  8
1
 10
171.785044401792
 20
98.2562364245443
 42
0.0
  0
VERTEX
  8
1
 10
171.398773158824
 20
98.3174157791754
 42
0.0
  0
VERTEX
  8
1
 10
171.012501915855
 20
98.2562364245443
 42
0.0
  0
VERTEX
  8
1
 10
170.664041593458
 20
98.078687022144
 42
0.0
  0
VERTEX
  8
1
 10
170.387501915855
 20
97.802147344541
 42
0.0
  0
VERTEX
  8
1
 10
170.209952513455
 20
97.4536870221441
 42
0.0
  0
VERTEX
  8
1
 10
170.148773158824
 20
97.0674157791754
 42
0.0
  0
VERTEX
  8
1
 10
170.209952513455
 20
96.6811445362067
 42
0.0
  0
VERTEX
  8
1
 10
170.387501915855
 20
96.3326842138098
 42
0.0
  0
VERTEX
  8
1
 10
170.664041593458
 20
96.0561445362067
 42
0.0
  0
VERTEX
  8
1
 10
171.012501915855
 20
95.8785951338064
 42
0.0
  0
VERTEX
  8
1
 10
171.398773158824
 20
95.8174157791754
 42
0.0
  0
VERTEX
  8
1
 10
171.785044401792
 20
95.8785951338064
 42
0.0
  0
VERTEX
  8
1
 10
172.133504724189
 20
96.0561445362067
 42
0.0
  0
VERTEX
  8
1
 10
172.410044401792
 20
96.3326842138098
 42
0.0
  0
VERTEX
  8
1
 10
172.587593804193
 20
96.6811445362067
 42
0.0
  0
SEQEND
  0
POLYLINE
  8
1
 66
     1
 10
0.0
 20
0.0
 30
0.0
 70
     1
  0
VERTEX
  8
1
 10
190.648773158824
 20
97.0674157791754
 42
0.0
  0
VERTEX
  8
1
 10
190.587593804193
 20
97.4536870221441
 42
0.0
  0
VERTEX
  8
1
 10
190.410044401792
 20
97.802147344541
 42
0.0
  0
VERTEX
  8
1
 10
190.133504724189
 20
98.078687022144
 42
0.0
  0
VERTEX
  8
1
 10
189.785044401792
 20
98.2562364245443
 42
0.0
  0
VERTEX
  8
1
 10
189.398773158824
 20
98.3174157791754
 42
0.0
  0
VERTEX
  8
1
 10
189.012501915855
 20
98.2562364245443
 42
0.0
  0
VERTEX
  8
1
 10
188.664041593458
 20
98.078687022144
 42
0.0
  0
VERTEX
  8
1
 10
188.387501915855
 20
97.802147344541
 42
0.0
  0
VERTEX
  8
1
 10
188.209952513455
 20
97.4536870221441
 42
0.0
  0
VERTEX
  8
1
 10
188.148773158824
 20
97.0674157791754
 42
0.0
  0
VERTEX
  8
1
 10
188.209952513455
 20
96.6811445362067
 42
0.0
  0
VERTEX
  8
1
 10
188.387501915855
 20
96.3326842138098
 42
0.0
  0
VERTEX
  8
1
 10
188.664041593458
 20
96.0561445362067
 42
0.0
  0
VERTEX
  8
1
 10
189.012501915855
 20
95.8785951338064
 42
0.0
  0
VERTEX
  8
1
 10
189.398773158824
 20
95.8174157791754
 42
0.0
  0
VERTEX
  8
1
 10
189.785044401792
 20
95.8785951338064
 42
0.0
  0
VERTEX
  8
1
 10
190.133504724189
 20
96.0561445362067
 42
0.0
  0
VERTEX
  8
1
 10
190.410044401792
 20
96.3326842138098
 42
0.0
  0
VERTEX
  8
1
 10
190.587593804193
 20
96.6811445362067
 42
0.0
  0
SEQEND
  0
POLYLINE
  8
1
 66
     1
 10
0.0
 20
0.0
 30
0.0
 70
     1
  0
VERTEX
  8
1
 10
22.6436706770023
 20
208.294335613001
 42
0.0
  0
VERTEX
  8
1
 10
22.5824913223713
 20
208.68060685597
 42
0.0
  0
VERTEX
  8
1
 10
22.404941919971
 20
209.029067178367
 42
0.0
  0
VERTEX
  8
1
 10
22.1284022423679
 20
209.30560685597
 42
0.0
  0
VERTEX
  8
1
 10
21.779941919971
 20
209.48315625837
 42
0.0
  0
VERTEX
  8
1
 10
21.3936706770023
 20
209.544335613001
 42
0.0
  0
VERTEX
  8
1
 10
21.0073994340336
 20
209.48315625837
 42
0.0
  0
VERTEX
  8
1
 10
20.6589391116367
 20
209.30560685597
 42
0.0
  0
VERTEX
  8
1
 10
20.3823994340336
 20
209.029067178367
 42
0.0
  0
VERTEX
  8
1
 10
20.2048500316334
 20
208.68060685597
 42
0.0
  0
VERTEX
  8
1
 10
20.1436706770023
 20
208.294335613001
 42
0.0
  0
VERTEX
  8
1
 10
20.2048500316334
 20
207.908064370032
 42
0.0
  0
VERTEX
  8
1
 10
20.3823994340336
 20
207.559604047636
 42
0.0
  0
VERTEX
  8
1
 10
20.6589391116367
 20
207.283064370032
 42
0.0
  0
VERTEX
  8
1
 10
21.0073994340336
 20
207.105514967632
 42
0.0
  0
VERTEX
  8
1
 10
21.3936706770023
 20
207.044335613001
 42
0.0
  0
VERTEX
  8
1
 10
21.779941919971
 20
207.105514967632
 42
0.0
  0
VERTEX
  8
1
 10
22.1284022423679
 20
207.283064370032
 42
0.0
  0
VERTEX
  8
1
 10
22.404941919971
 20
207.559604047636
 42
0.0
  0
VERTEX
  8
1
 10
22.5824913223713
 20
207.908064370032
 42
0.0
  0
SEQEND
  0
POLYLINE
  8
1
 66
     1
 10
0.0
 20
0.0
 30
0.0
 70
     1
  0
VERTEX
  8
1
 10
40.6436706770023
 20
208.294335613001
 42
0.0
  0
VERTEX
  8
1
 10
40.5824913223712
 20
208.68060685597
 42
0.0
  0
VERTEX
  8
1
 10
40.404941919971
 20
209.029067178367
 42
0.0
  0
VERTEX
  8
1
 10
40.1284022423679
 20
209.30560685597
 42
0.0
  0
VERTEX
  8
1
 10
39.779941919971
 20
209.48315625837
 42
0.0
  0
VERTEX
  8
1
 10
39.3936706770023
 20
209.544335613001
 42
0.0
  0
VERTEX
  8
1
 10
39.0073994340336
 20
209.48315625837
 42
0.0
  0
VERTEX
  8
1
 10
38.6589391116367
 20
209.30560685597
 42
0.0
  0
VERTEX
  8
1
 10
38.3823994340336
 20
209.029067178367
 42
0.0
  0
VERTEX
  8
1
 10
38.2048500316334
 20
208.68060685597
 42
0.0
  0
VERTEX
  8
1
 10
38.1436706770023
 20
208.294335613001
 42
0.0
  0
VERTEX
  8
1
 10
38.2048500316334
 20
207.908064370032
 42
0.0
  0
VERTEX
  8
1
 10
38.3823994340336
 20
207.559604047636
 42
0.0
  0
VERTEX
  8
1
 10
38.6589391116367
 20
207.283064370032
 42
0.0
  0
VERTEX
  8
1
 10
39.0073994340336
 20
207.105514967632
 42
0.0
  0
VERTEX
  8
1
 10
39.3936706770023
 20
207.044335613001
 42
0.0
  0
VERTEX
  8
1
 10
39.779941919971
 20
207.105514967632
 42
0.0
  0
VERTEX
  8
1
 10
40.1284022423679
 20
207.283064370032
 42
0.0
  0
VERTEX
  8
1
 10
40.404941919971
 20
207.559604047636
 42
0.0
  0
VERTEX
  8
1
 10
40.5824913223712
 20
207.908064370032
 42
0.0
  0
SEQEND
  0
POLYLINE
  8
1
 66
     1
 10
0.0
 20
0.0
 30
0.0
 70
     1
  0
VERTEX
  8
1
 10
172.643670677002
 20
208.294335613001
 42
0.0
  0
VERTEX
  8
1
 10
172.582491322371
 20
208.68060685597
 42
0.0
  0
VERTEX
  8
1
 10
172.404941919971
 20
209.029067178367
 42
0.0
  0
VERTEX
  8
1
 10
172.128402242368
 20
209.30560685597
 42
0.0
  0
VERTEX
  8
1
 10
171.779941919971
 20
209.48315625837
 42
0.0
  0
VERTEX
  8
1
 10
171.393670677002
 20
209.544335613001
 42
0.0
  0
VERTEX
  8
1
 10
171.007399434034
 20
209.48315625837
 42
0.0
  0
VERTEX
  8
1
 10
170.658939111637
 20
209.30560685597
 42
0.0
  0
VERTEX
  8
1
 10
170.382399434034
 20
209.029067178367
 42
0.0
  0
VERTEX
  8
1
 10
170.204850031633
 20
208.68060685597
 42
0.0
  0
VERTEX
  8
1
 10
170.143670677002
 20
208.294335613001
 42
0.0
  0
VERTEX
  8
1
 10
170.204850031633
 20
207.908064370032
 42
0.0
  0
VERTEX
  8
1
 10
170.382399434034
 20
207.559604047636
 42
0.0
  0
VERTEX
  8
1
 10
170.658939111637
 20
207.283064370032
 42
0.0
  0
VERTEX
  8
1
 10
171.007399434034
 20
207.105514967632
 42
0.0
  0
VERTEX
  8
1
 10
171.393670677002
 20
207.044335613001
 42
0.0
  0
VERTEX
  8
1
 10
171.779941919971
 20
207.105514967632
 42
0.0
  0
VERTEX
  8
1
 10
172.128402242368
 20
207.283064370032
 42
0.0
  0
VERTEX
  8
1
 10
172.404941919971
 20
207.559604047636
 42
0.0
  0
VERTEX
  8
1
 10
172.582491322371
 20
207.908064370032
 42
0.0
  0
SEQEND
  0
POLYLINE
  8
1
 66
     1
 10
0.0
 20
0.0
 30
0.0
 70
     1
  0
VERTEX
  8
1
 10
190.643670677002
 20
208.294335613001
 42
0.0
  0
VERTEX
  8
1
 10
190.582491322371
 20
208.68060685597
 42
0.0
  0
VERTEX
  8
1
 10
190.404941919971
 20
209.029067178367
 42
0.0
  0
VERTEX
  8
1
 10
190.128402242368
 20
209.30560685597
 42
0.0
  0
VERTEX
  8
1
 10
189.779941919971
 20
209.48315625837
 42
0.0
  0
VERTEX
  8
1
 10
189.393670677002
 20
209.544335613001
 42
0.0
  0
VERTEX
  8
1
 10
189.007399434034
 20
209.48315625837
 42
0.0
  0
VERTEX
  8
1
 10
188.658939111637
 20
209.30560685597
 42
0.0
  0
VERTEX
  8
1
 10
188.382399434034
 20
209.029067178367
 42
0.0
  0
VERTEX
  8
1
 10
188.204850031633
 20
208.68060685597
 42
0.0
  0
VERTEX
  8
1
 10
188.143670677002
 20
208.294335613001
 42
0.0
  0
VERTEX
  8
1
 10
188.204850031633
 20
207.908064370032
 42
0.0
  0
VERTEX
  8
1
 10
188.382399434034
 20
207.559604047636
 42
0.0
  0
VERTEX
  8
1
 10
188.658939111637
 20
207.283064370032
 42
0.0
  0
VERTEX
  8
1
 10
189.007399434034
 20
207.105514967632
 42
0.0
  0
VERTEX
  8
1
 10
189.393670677002
 20
207.044335613001
 42
0.0
  0
VERTEX
  8
1
 10
189.779941919971
 20
207.105514967632
 42
0.0
  0
VERTEX
  8
1
 10
190.128402242368
 20
207.283064370032
 42
0.0
  0
VERTEX
  8
1
 10
190.404941919971
 20
207.559604047636
 42
0.0
  0
VERTEX
  8
1
 10
190.582491322371
 20
207.908064370032
 42
0.0
  0
SEQEND
  0
POLYLINE
  8
1
 66
     1
 10
0.0
 20
0.0
 30
0.0
 70
     1
  0
VERTEX
  8
1
 10
1.3936706770023
 20
107.394332610856
 42
0.0
  0
VERTEX
  8
1
 10
209.393670677002
 20
107.394332610856
 42
0.0
  0
VERTEX
  8
1
 10
209.393670677002
 20
213.294332610856
 42
0.0
  0
VERTEX
  8
1
 10
1.3936706770023
 20
213.294332610856
 42
0.0
  0
SEQEND
  0
POLYLINE
  8
1
 66
     1
 10
0.0
 20
0.0
 30
0.0
 70
     1
  0
VERTEX
  8
1
 10
69.6936706770023
 20
147.044332610856
 42
0.0
  0
VERTEX
  8
1
 10
141.093670677002
 20
147.044332610856
 42
0.0
  0
VERTEX
  8
1
 10
141.093670677002
 20
173.644332610856
 42
0.0
  0
VERTEX
  8
1
 10
69.6936706770023
 20
173.644332610856
 42
0.0
  0
SEQEND
  0
POLYLINE
  8
1
 66
     1
 10
0.0
 20
0.0
 30
0.0
 70
     1
  0
VERTEX
  8
1
 10
40.9086021064657
 20
162.232904309126
 42
0.0
  0
VERTEX
  8
1
 10
40.8495061413224
 20
162.983789741319
 42
0.0
  0
VERTEX
  8
1
 10
40.6736733846824
 20
163.716185882125
 42
0.0
  0
VERTEX
  8
1
 10
40.3854334225699
 20
164.412058707875
 42
0.0
  0
VERTEX
  8
1
 10
39.9918836794655
 20
165.054273520129
 42
0.0
  0
VERTEX
  8
1
 10
39.5027146561612
 20
165.627016858821
 42
0.0
  0
VERTEX
  8
1
 10
38.9299713174696
 20
166.116185882125
 42
0.0
  0
VERTEX
  8
1
 10
38.2877565052155
 20
166.50973562523
 42
0.0
  0
VERTEX
  8
1
 10
37.5918836794655
 20
166.797975587342
 42
0.0
  0
VERTEX
  8
1
 10
36.8594875386589
 20
166.973808343982
 42
0.0
  0
VERTEX
  8
1
 10
36.1086021064658
 20
167.032904309126
 42
0.0
  0
VERTEX
  8
1
 10
35.3577166742726
 20
166.973808343982
 42
0.0
  0
VERTEX
  8
1
 10
34.625320533466
 20
166.797975587342
 42
0.0
  0
VERTEX
  8
1
 10
33.929447707716
 20
166.50973562523
 42
0.0
  0
VERTEX
  8
1
 10
33.2872328954618
 20
166.116185882125
 42
0.0
  0
VERTEX
  8
1
 10
32.7144895567703
 20
165.627016858821
 42
0.0
  0
VERTEX
  8
1
 10
32.225320533466
 20
165.054273520129
 42
0.0
  0
VERTEX
  8
1
 10
31.8317707903616
 20
164.412058707875
 42
0.0
  0
VERTEX
  8
1
 10
31.543530828249
 20
163.716185882125
 42
0.0
  0
VERTEX
  8
1
 10
31.3676980716091
 20
162.983789741319
 42
0.0
  0
VERTEX
  8
1
 10
31.3086021064657
 20
162.232904309126
 42
0.0
  0
VERTEX
  8
1
 10
31.3676980716091
 20
161.482018876932
 42
0.0
  0
VERTEX
  8
1
 10
31.543530828249
 20
160.749622736126
 42
0.0
  0
VERTEX
  8
1
 10
31.8317707903616
 20
160.053749910376
 42
0.0
  0
VERTEX
  8
1
 10
32.225320533466
 20
159.411535098122
 42
0.0
  0
VERTEX
  8
1
 10
32.7144895567703
 20
158.83879175943
 42
0.0
  0
VERTEX
  8
1
 10
33.2872328954618
 20
158.349622736126
 42
0.0
  0
VERTEX
  8
1
 10
33.929447707716
 20
157.956072993021
 42
0.0
  0
VERTEX
  8
1
 10
34.625320533466
 20
157.667833030909
 42
0.0
  0
VERTEX
  8
1
 10
35.3577166742726
 20
157.492000274269
 42
0.0
  0
VERTEX
  8
1
 10
36.1086021064658
 20
157.432904309125
 42
0.0
  0
VERTEX
  8
1
 10
36.8594875386589
 20
157.492000274269
 42
0.0
  0
VERTEX
  8
1
 10
37.5918836794655
 20
157.667833030909
 42
0.0
  0
VERTEX
  8
1
 10
38.2877565052155
 20
157.956072993021
 42
0.0
  0
VERTEX
  8
1
 10
38.9299713174696
 20
158.349622736126
 42
0.0
  0
VERTEX
  8
1
 10
39.5027146561612
 20
158.83879175943
 42
0.0
  0
VERTEX
  8
1
 10
39.9918836794655
 20
159.411535098122
 42
0.0
  0
VERTEX
  8
1
 10
40.3854334225699
 20
160.053749910376
 42
0.0
  0
VERTEX
  8
1
 10
40.6736733846824
 20
160.749622736126
 42
0.0
  0
VERTEX
  8
1
 10
40.8495061413224
 20
161.482018876932
 42
0.0
  0
SEQEND
  0
POLYLINE
  8
1
 66
     1
 10
0.0
 20
0.0
 30
0.0
 70
     1
  0
VERTEX
  8
1
 10
47.7086021064658
 20
162.232904309126
 42
0.0
  0
VERTEX
  8
1
 10
47.688903451418
 20
162.48319945319
 42
0.0
  0
VERTEX
  8
1
 10
47.630292532538
 20
162.727331500126
 42
0.0
  0
VERTEX
  8
1
 10
47.5342125451671
 20
162.959289108709
 42
0.0
  0
VERTEX
  8
1
 10
47.4030292974657
 20
163.173360712794
 42
0.0
  0
VERTEX
  8
1
 10
47.2399729563642
 20
163.364275159024
 42
0.0
  0
VERTEX
  8
1
 10
47.0490585101337
 20
163.527331500126
 42
0.0
  0
VERTEX
  8
1
 10
46.834986906049
 20
163.658514747827
 42
0.0
  0
VERTEX
  8
1
 10
46.6030292974656
 20
163.754594735198
 42
0.0
  0
VERTEX
  8
1
 10
46.3588972505301
 20
163.813205654078
 42
0.0
  0
VERTEX
  8
1
 10
46.1086021064658
 20
163.832904309126
 42
0.0
  0
VERTEX
  8
1
 10
45.8583069624014
 20
163.813205654078
 42
0.0
  0
VERTEX
  8
1
 10
45.6141749154659
 20
163.754594735198
 42
0.0
  0
VERTEX
  8
1
 10
45.3822173068825
 20
163.658514747827
 42
0.0
  0
VERTEX
  8
1
 10
45.1681457027978
 20
163.527331500126
 42
0.0
  0
VERTEX
  8
1
 10
44.9772312565673
 20
163.364275159024
 42
0.0
  0
VERTEX
  8
1
 10
44.8141749154658
 20
163.173360712794
 42
0.0
  0
VERTEX
  8
1
 10
44.6829916677644
 20
162.959289108709
 42
0.0
  0
VERTEX
  8
1
 10
44.5869116803935
 20
162.727331500126
 42
0.0
  0
VERTEX
  8
1
 10
44.5283007615135
 20
162.48319945319
 42
0.0
  0
VERTEX
  8
1
 10
44.5086021064657
 20
162.232904309126
 42
0.0
  0
VERTEX
  8
1
 10
44.5283007615135
 20
161.982609165061
 42
0.0
  0
VERTEX
  8
1
 10
44.5869116803935
 20
161.738477118126
 42
0.0
  0
VERTEX
  8
1
 10
44.6829916677644
 20
161.506519509542
 42
0.0
  0
VERTEX
  8
1
 10
44.8141749154658
 20
161.292447905458
 42
0.0
  0
VERTEX
  8
1
 10
44.9772312565673
 20
161.101533459227
 42
0.0
  0
VERTEX
  8
1
 10
45.1681457027978
 20
160.938477118126
 42
0.0
  0
VERTEX
  8
1
 10
45.3822173068825
 20
160.807293870424
 42
0.0
  0
VERTEX
  8
1
 10
45.6141749154659
 20
160.711213883053
 42
0.0
  0
VERTEX
  8
1
 10
45.8583069624014
 20
160.652602964173
 42
0.0
  0
VERTEX
  8
1
 10
46.1086021064658
 20
160.632904309126
 42
0.0
  0
VERTEX
  8
1
 10
46.3588972505301
 20
160.652602964173
 42
0.0
  0
VERTEX
  8
1
 10
46.6030292974656
 20
160.711213883053
 42
0.0
  0
VERTEX
  8
1
 10
46.834986906049
 20
160.807293870424
 42
0.0
  0
VERTEX
  8
1
 10
47.0490585101337
 20
160.938477118126
 42
0.0
  0
VERTEX
  8
1
 10
47.2399729563642
 20
161.101533459227
 42
0.0
  0
VERTEX
  8
1
 10
47.4030292974657
 20
161.292447905458
 42
0.0
  0
VERTEX
  8
1
 10
47.5342125451671
 20
161.506519509542
 42
0.0
  0
VERTEX
  8
1
 10
47.630292532538
 20
161.738477118126
 42
0.0
  0
VERTEX
  8
1
 10
47.688903451418
 20
161.982609165061
 42
0.0
  0
SEQEND
  0
POLYLINE
  8
1
 66
     1
 10
0.0
 20
0.0
 30
0.0
 70
     1
  0
VERTEX
  8
1
 10
38.6086021064657
 20
192.298513536542
 42
0.0
  0
VERTEX
  8
1
 10
38.5778229579535
 20
192.689599699142
 42
0.0
  0
VERTEX
  8
1
 10
38.4862433972036
 20
193.071056022479
 42
0.0
  0
VERTEX
  8
1
 10
38.3361184169366
 20
193.43348978589
 42
0.0
  0
VERTEX
  8
1
 10
38.1311445924031
 20
193.767976667273
 42
0.0
  0
VERTEX
  8
1
 10
37.8763690594321
 20
194.066280489508
 42
0.0
  0
VERTEX
  8
1
 10
37.5780652371969
 20
194.321056022479
 42
0.0
  0
VERTEX
  8
1
 10
37.2435783558146
 20
194.526029847012
 42
0.0
  0
VERTEX
  8
1
 10
36.8811445924031
 20
194.67615482728
 42
0.0
  0
VERTEX
  8
1
 10
36.4996882690663
 20
194.76773438803
 42
0.0
  0
VERTEX
  8
1
 10
36.1086021064657
 20
194.798513536542
 42
0.0
  0
VERTEX
  8
1
 10
35.7175159438651
 20
194.76773438803
 42
0.0
  0
VERTEX
  8
1
 10
35.3360596205283
 20
194.67615482728
 42
0.0
  0
VERTEX
  8
1
 10
34.9736258571168
 20
194.526029847012
 42
0.0
  0
VERTEX
  8
1
 10
34.6391389757345
 20
194.321056022479
 42
0.0
  0
VERTEX
  8
1
 10
34.3408351534993
 20
194.066280489508
 42
0.0
  0
VERTEX
  8
1
 10
34.0860596205283
 20
193.767976667273
 42
0.0
  0
VERTEX
  8
1
 10
33.8810857959948
 20
193.43348978589
 42
0.0
  0
VERTEX
  8
1
 10
33.7309608157278
 20
193.071056022479
 42
0.0
  0
VERTEX
  8
1
 10
33.6393812549779
 20
192.689599699142
 42
0.0
  0
VERTEX
  8
1
 10
33.6086021064657
 20
192.298513536542
 42
0.0
  0
VERTEX
  8
1
 10
33.6393812549779
 20
191.907427373941
 42
0.0
  0
VERTEX
  8
1
 10
33.7309608157278
 20
191.525971050604
 42
0.0
  0
VERTEX
  8
1
 10
33.8810857959948
 20
191.163537287193
 42
0.0
  0
VERTEX
  8
1
 10
34.0860596205283
 20
190.82905040581
 42
0.0
  0
VERTEX
  8
1
 10
34.3408351534993
 20
190.530746583575
 42
0.0
  0
VERTEX
  8
1
 10
34.6391389757345
 20
190.275971050604
 42
0.0
  0
VERTEX
  8
1
 10
34.9736258571168
 20
190.070997226071
 42
0.0
  0
VERTEX
  8
1
 10
35.3360596205283
 20
189.920872245804
 42
0.0
  0
VERTEX
  8
1
 10
35.7175159438651
 20
189.829292685054
 42
0.0
  0
VERTEX
  8
1
 10
36.1086021064657
 20
189.798513536542
 42
0.0
  0
VERTEX
  8
1
 10
36.4996882690663
 20
189.829292685054
 42
0.0
  0
VERTEX
  8
1
 10
36.8811445924031
 20
189.920872245804
 42
0.0
  0
VERTEX
  8
1
 10
37.2435783558146
 20
190.070997226071
 42
0.0
  0
VERTEX
  8
1
 10
37.5780652371969
 20
190.275971050604
 42
0.0
  0
VERTEX
  8
1
 10
37.8763690594321
 20
190.530746583575
 42
0.0
  0
VERTEX
  8
1
 10
38.1311445924031
 20
190.82905040581
 42
0.0
  0
VERTEX
  8
1
 10
38.3361184169366
 20
191.163537287193
 42
0.0
  0
VERTEX
  8
1
 10
38.4862433972036
 20
191.525971050604
 42
0.0
  0
VERTEX
  8
1
 10
38.5778229579535
 20
191.907427373941
 42
0.0
  0
SEQEND
  0
POLYLINE
  8
1
 66
     1
 10
0.0
 20
0.0
 30
0.0
 70
     1
  0
VERTEX
  8
1
 10
33.0090546574065
 20
129.687657207284
 42
0.0
  0
VERTEX
  8
1
 10
39.9090546574065
 20
129.687657207284
 42
0.0
  0
VERTEX
  8
1
 10
39.9090546574065
 20
135.687657207284
 42
0.0
  0
VERTEX
  8
1
 10
33.0090546574065
 20
135.687657207284
 42
0.0
  0
SEQEND
  0
POLYLINE
  8
1
 66
     1
 10
0.0
 20
0.0
 30
0.0
 70
     1
  0
VERTEX
  8
1
 10
120.398773158824
 20
25.1333614019074
 42
0.0
  0
VERTEX
  8
1
 10
120.214098267751
 20
27.4798783775108
 42
0.0
  0
VERTEX
  8
1
 10
119.664620903251
 20
29.7686163175316
 42
0.0
  0
VERTEX
  8
1
 10
118.763871021649
 20
31.9432188980006
 42
0.0
  0
VERTEX
  8
1
 10
117.534028074448
 20
33.9501401862944
 42
0.0
  0
VERTEX
  8
1
 10
116.005374876622
 20
35.7399631197056
 42
0.0
  0
VERTEX
  8
1
 10
114.215551943211
 20
37.2686163175316
 42
0.0
  0
VERTEX
  8
1
 10
112.208630654917
 20
38.4984592647329
 42
0.0
  0
VERTEX
  8
1
 10
110.034028074448
 20
39.3992091463347
 42
0.0
  0
VERTEX
  8
1
 10
107.745290134427
 20
39.9486865108344
 42
0.0
  0
VERTEX
  8
1
 10
105.398773158824
 20
40.1333614019074
 42
0.0
  0
VERTEX
  8
1
 10
103.05225618322
 20
39.9486865108344
 42
0.0
  0
VERTEX
  8
1
 10
100.763518243199
 20
39.3992091463347
 42
0.0
  0
VERTEX
  8
1
 10
98.5889156627304
 20
38.4984592647329
 42
0.0
  0
VERTEX
  8
1
 10
96.5819943744365
 20
37.2686163175316
 42
0.0
  0
VERTEX
  8
1
 10
94.7921714410254
 20
35.7399631197056
 42
0.0
  0
VERTEX
  8
1
 10
93.2635182431994
 20
33.9501401862945
 42
0.0
  0
VERTEX
  8
1
 10
92.0336752959981
 20
31.9432188980006
 42
0.0
  0
VERTEX
  8
1
 10
91.1329254143963
 20
29.7686163175316
 42
0.0
  0
VERTEX
  8
1
 10
90.5834480498965
 20
27.4798783775108
 42
0.0
  0
VERTEX
  8
1
 10
90.3987731588236
 20
25.1333614019074
 42
0.0
  0
VERTEX
  8
1
 10
90.5834480498965
 20
22.7868444263039
 42
0.0
  0
VERTEX
  8
1
 10
91.1329254143963
 20
20.4981064862831
 42
0.0
  0
VERTEX
  8
1
 10
92.0336752959981
 20
18.3235039058142
 42
0.0
  0
VERTEX
  8
1
 10
93.2635182431994
 20
16.3165826175203
 42
0.0
  0
VERTEX
  8
1
 10
94.7921714410254
 20
14.5267596841092
 42
0.0
  0
VERTEX
  8
1
 10
96.5819943744365
 20
12.9981064862832
 42
0.0
  0
VERTEX
  8
1
 10
98.5889156627304
 20
11.7682635390819
 42
0.0
  0
VERTEX
  8
1
 10
100.763518243199
 20
10.8675136574801
 42
0.0
  0
VERTEX
  8
1
 10
103.05225618322
 20
10.3180362929803
 42
0.0
  0
VERTEX
  8
1
 10
105.398773158824
 20
10.1333614019074
 42
0.0
  0
VERTEX
  8
1
 10
107.745290134427
 20
10.3180362929803
 42
0.0
  0
VERTEX
  8
1
 10
110.034028074448
 20
10.8675136574801
 42
0.0
  0
VERTEX
  8
1
 10
112.208630654917
 20
11.7682635390819
 42
0.0
  0
VERTEX
  8
1
 10
114.215551943211
 20
12.9981064862832
 42
0.0
  0
VERTEX
  8
1
 10
116.005374876622
 20
14.5267596841092
 42
0.0
  0
VERTEX
  8
1
 10
117.534028074448
 20
16.3165826175203
 42
0.0
  0
VERTEX
  8
1
 10
118.763871021649
 20
18.3235039058142
 42
0.0
  0
VERTEX
  8
1
 10
119.664620903251
 20
20.4981064862831
 42
0.0
  0
VERTEX
  8
1
 10
120.214098267751
 20
22.7868444263039
 42
0.0
  0
SEQEND
  0
POLYLINE
  8
1
 66
     1
 10
0.0
 20
0.0
 30
0.0
 70
     1
  0
VERTEX
  8
1
 10
80.3987731588236
 20
40.0674127770298
 42
0.0
  0
VERTEX
  8
1
 10
90.3987731588236
 20
40.0674127770298
 42
0.0
  0
VERTEX
  8
1
 10
90.3987731588236
 20
44.8674127770298
 42
0.0
  0
VERTEX
  8
1
 10
80.3987731588236
 20
44.8674127770298
 42
0.0
  0
SEQEND
  0
POLYLINE
  8
1
 66
     1
 10
0.0
 20
0.0
 30
0.0
 70
     1
  0
VERTEX
  8
1
 10
120.398773158824
 20
40.0674127770298
 42
0.0
  0
VERTEX
  8
1
 10
130.398773158824
 20
40.0674127770298
 42
0.0
  0
VERTEX
  8
1
 10
130.398773158824
 20
44.8674127770298
 42
0.0
  0
VERTEX
  8
1
 10
120.398773158824
 20
44.8674127770298
 42
0.0
  0
SEQEND
  0
POLYLINE
  8
1
 66
     1
 10
0.0
 20
0.0
 30
0.0
 70
     1
  0
VERTEX
  8
1
 10
80.3987731588236
 20
32.0674127770298
 42
0.0
  0
VERTEX
  8
1
 10
85.1987731588236
 20
32.0674127770298
 42
0.0
  0
VERTEX
  8
1
 10
85.1987731588236
 20
22.0674127770298
 42
0.0
  0
VERTEX
  8
1
 10
80.3987731588236
 20
22.0674127770298
 42
0.0
  0
SEQEND
  0
POLYLINE
  8
1
 66
     1
 10
0.0
 20
0.0
 30
0.0
 70
     1
  0
VERTEX
  8
1
 10
125.598773158824
 20
32.0674127770298
 42
0.0
  0
VERTEX
  8
1
 10
130.398773158824
 20
32.0674127770298
 42
0.0
  0
VERTEX
  8
1
 10
130.398773158824
 20
22.0674127770298
 42
0.0
  0
VERTEX
  8
1
 10
125.598773158824
 20
22.0674127770298
 42
0.0
  0
SEQEND
  0
POLYLINE
  8
1
 66
     1
 10
0.0
 20
0.0
 30
0.0
 70
     1
  0
VERTEX
  8
1
 10
334.401352832576
 20
233.333814319502
 42
0.0
  0
VERTEX
  8
1
 10
334.401352832576
 20
193.333814319502
 42
0.0
  0
VERTEX
  8
1
 10
330.401352832576
 20
193.333814319502
 42
0.0
  0
VERTEX
  8
1
 10
330.401352832576
 20
173.333814319502
 42
0.0
  0
VERTEX
  8
1
 10
334.401352832576
 20
173.333814319502
 42
0.0
  0
VERTEX
  8
1
 10
434.401352832576
 20
153.333814319502
 42
0.0
  0
VERTEX
  8
1
 10
438.401352832576
 20
153.333814319502
 42
0.0
  0
VERTEX
  8
1
 10
438.401352832576
 20
173.333814319502
 42
0.0
  0
VERTEX
  8
1
 10
434.401352832576
 20
173.333814319502
 42
0.0
  0
VERTEX
  8
1
 10
434.401352832576
 20
193.333814319502
 42
0.0
  0
VERTEX
  8
1
 10
438.401352832576
 20
193.333814319502
 42
0.0
  0
VERTEX
  8
1
 10
438.401352832576
 20
213.333814319502
 42
0.0
  0
VERTEX
  8
1
 10
434.401352832576
 20
213.333814319502
 42
0.0
  0
VERTEX
  8
1
 10
434.401352832576
 20
233.333814319502
 42
0.0
  0
VERTEX
  8
1
 10
438.401352832576
 20
233.333814319502
 42
0.0
  0
VERTEX
  8
1
 10
438.401352832576
 20
253.333814319502
 42
0.0
  0
VERTEX
  8
1
 10
414.401352832576
 20
253.333814319502
 42
0.0
  0
VERTEX
  8
1
 10
414.401352832576
 20
245.333814319502
 42
0.0
  0
VERTEX
  8
1
 10
394.401352832576
 20
245.333814319502
 42
0.0
  0
VERTEX
  8
1
 10
394.401352832576
 20
253.333814319502
 42
0.0
  0
VERTEX
  8
1
 10
374.401352832576
 20
253.333814319502
 42
0.0
  0
VERTEX
  8
1
 10
374.401352832576
 20
245.333814319502
 42
0.0
  0
VERTEX
  8
1
 10
354.401352832576
 20
245.333814319502
 42
0.0
  0
VERTEX
  8
1
 10
354.401352832576
 20
253.333814319502
 42
0.0
  0
VERTEX
  8
1
 10
330.401352832576
 20
253.333814319502
 42
0.0
  0
VERTEX
  8
1
 10
330.401352832576
 20
233.333814319502
 42
0.0
  0
SEQEND
  0
POLYLINE
  8
1
 66
     1
 10
0.0
 20
0.0
 30
0.0
 70
     1
  0
VERTEX
  8
1
 10
69.3936706770023
 20
177.54741277703
 42
0.0
  0
VERTEX
  8
1
 10
69.3752031878951
 20
177.78206447459
 42
0.0
  0
VERTEX
  8
1
 10
69.3202554514451
 20
178.010938268592
 42
0.0
  0
VERTEX
  8
1
 10
69.2301804632849
 20
178.228398526639
 42
0.0
  0
VERTEX
  8
1
 10
69.1071961685648
 20
178.429090655469
 42
0.0
  0
VERTEX
  8
1
 10
68.9543308487822
 20
178.60807294881
 42
0.0
  0
VERTEX
  8
1
 10
68.7753485554411
 20
178.760938268592
 42
0.0
  0
VERTEX
  8
1
 10
68.5746564266117
 20
178.883922563312
 42
0.0
  0
VERTEX
  8
1
 10
68.3571961685648
 20
178.973997551473
 42
0.0
  0
VERTEX
  8
1
 10
68.1283223745627
 20
179.028945287923
 42
0.0
  0
VERTEX
  8
1
 10
67.8936706770023
 20
179.04741277703
 42
0.0
  0
VERTEX
  8
1
 10
67.659018979442
 20
179.028945287923
 42
0.0
  0
VERTEX
  8
1
 10
67.4301451854399
 20
178.973997551473
 42
0.0
  0
VERTEX
  8
1
 10
67.212684927393
 20
178.883922563312
 42
0.0
  0
VERTEX
  8
1
 10
67.0119927985636
 20
178.760938268592
 42
0.0
  0
VERTEX
  8
1
 10
66.8330105052225
 20
178.60807294881
 42
0.0
  0
VERTEX
  8
1
 10
66.6801451854399
 20
178.429090655469
 42
0.0
  0
VERTEX
  8
1
 10
66.5571608907198
 20
178.228398526639
 42
0.0
  0
VERTEX
  8
1
 10
66.4670859025596
 20
178.010938268592
 42
0.0
  0
VERTEX
  8
1
 10
66.4121381661096
 20
177.78206447459
 42
0.0
  0
VERTEX
  8
1
 10
66.3936706770023
 20
177.54741277703
 42
0.0
  0
VERTEX
  8
1
 10
66.4121381661096
 20
177.31276107947
 42
0.0
  0
VERTEX
  8
1
 10
66.4670859025596
 20
177.083887285467
 42
0.0
  0
VERTEX
  8
1
 10
66.5571608907198
 20
176.866427027421
 42
0.0
  0
VERTEX
  8
1
 10
66.6801451854399
 20
176.665734898591
 42
0.0
  0
VERTEX
  8
1
 10
66.8330105052225
 20
176.48675260525
 42
0.0
  0
VERTEX
  8
1
 10
67.0119927985636
 20
176.333887285467
 42
0.0
  0
VERTEX
  8
1
 10
67.212684927393
 20
176.210902990747
 42
0.0
  0
VERTEX
  8
1
 10
67.4301451854399
 20
176.120828002587
 42
0.0
  0
VERTEX
  8
1
 10
67.659018979442
 20
176.065880266137
 42
0.0
  0
VERTEX
  8
1
 10
67.8936706770023
 20
176.04741277703
 42
0.0
  0
VERTEX
  8
1
 10
68.1283223745627
 20
176.065880266137
 42
0.0
  0
VERTEX
  8
1
 10
68.3571961685648
 20
176.120828002587
 42
0.0
  0
VERTEX
  8
1
 10
68.5746564266117
 20
176.210902990747
 42
0.0
  0
VERTEX
  8
1
 10
68.7753485554411
 20
176.333887285467
 42
0.0
  0
VERTEX
  8
1
 10
68.9543308487822
 20
176.48675260525
 42
0.0
  0
VERTEX
  8
1
 10
69.1071961685648
 20
176.665734898591
 42
0.0
  0
VERTEX
  8
1
 10
69.2301804632849
 20
176.866427027421
 42
0.0
  0
VERTEX
  8
1
 10
69.3202554514451
 20
177.083887285467
 42
0.0
  0
VERTEX
  8
1
 10
69.3752031878951
 20
177.31276107947
 42
0.0
  0
SEQEND
  0
POLYLINE
  8
1
 66
     1
 10
0.0
 20
0.0
 30
0.0
 70
     1
  0
VERTEX
  8
1
 10
69.3936706770023
 20
146.54741277703
 42
0.0
  0
VERTEX
  8
1
 10
69.3752031878951
 20
146.78206447459
 42
0.0
  0
VERTEX
  8
1
 10
69.3202554514451
 20
147.010938268592
 42
0.0
  0
VERTEX
  8
1
 10
69.2301804632849
 20
147.228398526639
 42
0.0
  0
VERTEX
  8
1
 10
69.1071961685648
 20
147.429090655469
 42
0.0
  0
VERTEX
  8
1
 10
68.9543308487822
 20
147.60807294881
 42
0.0
  0
VERTEX
  8
1
 10
68.7753485554411
 20
147.760938268592
 42
0.0
  0
VERTEX
  8
1
 10
68.5746564266117
 20
147.883922563312
 42
0.0
  0
VERTEX
  8
1
 10
68.3571961685648
 20
147.973997551473
 42
0.0
  0
VERTEX
  8
1
 10
68.1283223745627
 20
148.028945287923
 42
0.0
  0
VERTEX
  8
1
 10
67.8936706770023
 20
148.04741277703
 42
0.0
  0
VERTEX
  8
1
 10
67.659018979442
 20
148.028945287923
 42
0.0
  0
VERTEX
  8
1
 10
67.4301451854399
 20
147.973997551473
 42
0.0
  0
VERTEX
  8
1
 10
67.212684927393
 20
147.883922563312
 42
0.0
  0
VERTEX
  8
1
 10
67.0119927985636
 20
147.760938268592
 42
0.0
  0
VERTEX
  8
1
 10
66.8330105052225
 20
147.60807294881
 42
0.0
  0
VERTEX
  8
1
 10
66.6801451854399
 20
147.429090655469
 42
0.0
  0
VERTEX
  8
1
 10
66.5571608907198
 20
147.228398526639
 42
0.0
  0
VERTEX
  8
1
 10
66.4670859025596
 20
147.010938268592
 42
0.0
  0
VERTEX
  8
1
 10
66.4121381661096
 20
146.78206447459
 42
0.0
  0
VERTEX
  8
1
 10
66.3936706770023
 20
146.54741277703
 42
0.0
  0
VERTEX
  8
1
 10
66.4121381661096
 20
146.31276107947
 42
0.0
  0
VERTEX
  8
1
 10
66.4670859025596
 20
146.083887285467
 42
0.0
  0
VERTEX
  8
1
 10
66.5571608907198
 20
145.866427027421
 42
0.0
  0
VERTEX
  8
1
 10
66.6801451854399
 20
145.665734898591
 42
0.0
  0
VERTEX
  8
1
 10
66.8330105052225
 20
145.48675260525
 42
0.0
  0
VERTEX
  8
1
 10
67.0119927985636
 20
145.333887285467
 42
0.0
  0
VERTEX
  8
1
 10
67.212684927393
 20
145.210902990747
 42
0.0
  0
VERTEX
  8
1
 10
67.4301451854399
 20
145.120828002587
 42
0.0
  0
VERTEX
  8
1
 10
67.659018979442
 20
145.065880266137
 42
0.0
  0
VERTEX
  8
1
 10
67.8936706770023
 20
145.04741277703
 42
0.0
  0
VERTEX
  8
1
 10
68.1283223745627
 20
145.065880266137
 42
0.0
  0
VERTEX
  8
1
 10
68.3571961685648
 20
145.120828002587
 42
0.0
  0
VERTEX
  8
1
 10
68.5746564266117
 20
145.210902990747
 42
0.0
  0
VERTEX
  8
1
 10
68.7753485554411
 20
145.333887285467
 42
0.0
  0
VERTEX
  8
1
 10
68.9543308487822
 20
145.48675260525
 42
0.0
  0
VERTEX
  8
1
 10
69.1071961685648
 20
145.665734898591
 42
0.0
  0
VERTEX
  8
1
 10
69.2301804632849
 20
145.866427027421
 42
0.0
  0
VERTEX
  8
1
 10
69.3202554514451
 20
146.083887285467
 42
0.0
  0
VERTEX
  8
1
 10
69.3752031878951
 20
146.31276107947
 42
0.0
  0
SEQEND
  0
POLYLINE
  8
1
 66
     1
 10
0.0
 20
0.0
 30
0.0
 70
     1
  0
VERTEX
  8
1
 10
144.393670677002
 20
146.54741277703
 42
0.0
  0
VERTEX
  8
1
 10
144.375203187895
 20
146.78206447459
 42
0.0
  0
VERTEX
  8
1
 10
144.320255451445
 20
147.010938268592
 42
0.0
  0
VERTEX
  8
1
 10
144.230180463285
 20
147.228398526639
 42
0.0
  0
VERTEX
  8
1
 10
144.107196168565
 20
147.429090655469
 42
0.0
  0
VERTEX
  8
1
 10
143.954330848782
 20
147.60807294881
 42
0.0
  0
VERTEX
  8
1
 10
143.775348555441
 20
147.760938268592
 42
0.0
  0
VERTEX
  8
1
 10
143.574656426612
 20
147.883922563312
 42
0.0
  0
VERTEX
  8
1
 10
143.357196168565
 20
147.973997551473
 42
0.0
  0
VERTEX
  8
1
 10
143.128322374563
 20
148.028945287923
 42
0.0
  0
VERTEX
  8
1
 10
142.893670677002
 20
148.04741277703
 42
0.0
  0
VERTEX
  8
1
 10
142.659018979442
 20
148.028945287923
 42
0.0
  0
VERTEX
  8
1
 10
142.43014518544
 20
147.973997551473
 42
0.0
  0
VERTEX
  8
1
 10
142.212684927393
 20
147.883922563312
 42
0.0
  0
VERTEX
  8
1
 10
142.011992798564
 20
147.760938268592
 42
0.0
  0
VERTEX
  8
1
 10
141.833010505222
 20
147.60807294881
 42
0.0
  0
VERTEX
  8
1
 10
141.68014518544
 20
147.429090655469
 42
0.0
  0
VERTEX
  8
1
 10
141.55716089072
 20
147.228398526639
 42
0.0
  0
VERTEX
  8
1
 10
141.46708590256
 20
147.010938268592
 42
0.0
  0
VERTEX
  8
1
 10
141.41213816611
 20
146.78206447459
 42
0.0
  0
VERTEX
  8
1
 10
141.393670677002
 20
146.54741277703
 42
0.0
  0
VERTEX
  8
1
 10
141.41213816611
 20
146.31276107947
 42
0.0
  0
VERTEX
  8
1
 10
141.46708590256
 20
146.083887285467
 42
0.0
  0
VERTEX
  8
1
 10
141.55716089072
 20
145.866427027421
 42
0.0
  0
VERTEX
  8
1
 10
141.68014518544
 20
145.665734898591
 42
0.0
  0
VERTEX
  8
1
 10
141.833010505222
 20
145.48675260525
 42
0.0
  0
VERTEX
  8
1
 10
142.011992798564
 20
145.333887285467
 42
0.0
  0
VERTEX
  8
1
 10
142.212684927393
 20
145.210902990747
 42
0.0
  0
VERTEX
  8
1
 10
142.43014518544
 20
145.120828002587
 42
0.0
  0
VERTEX
  8
1
 10
142.659018979442
 20
145.065880266137
 42
0.0
  0
VERTEX
  8
1
 10
142.893670677002
 20
145.04741277703
 42
0.0
  0
VERTEX
  8
1
 10
143.128322374563
 20
145.065880266137
 42
0.0
  0
VERTEX
  8
1
 10
143.357196168565
 20
145.120828002587
 42
0.0
  0
VERTEX
  8
1
 10
143.574656426612
 20
145.210902990747
 42
0.0
  0
VERTEX
  8
1
 10
143.775348555441
 20
145.333887285467
 42
0.0
  0
VERTEX
  8
1
 10
143.954330848782
 20
145.48675260525
 42
0.0
  0
VERTEX
  8
1
 10
144.107196168565
 20
145.665734898591
 42
0.0
  0
VERTEX
  8
1
 10
144.230180463285
 20
145.866427027421
 42
0.0
  0
VERTEX
  8
1
 10
144.320255451445
 20
146.083887285467
 42
0.0
  0
VERTEX
  8
1
 10
144.375203187895
 20
146.31276107947
 42
0.0
  0
SEQEND
  0
POLYLINE
  8
1
 66
     1
 10
0.0
 20
0.0
 30
0.0
 70
     1
  0
VERTEX
  8
1
 10
144.393670677002
 20
177.54741277703
 42
0.0
  0
VERTEX
  8
1
 10
144.375203187895
 20
177.78206447459
 42
0.0
  0
VERTEX
  8
1
 10
144.320255451445
 20
178.010938268592
 42
0.0
  0
VERTEX
  8
1
 10
144.230180463285
 20
178.228398526639
 42
0.0
  0
VERTEX
  8
1
 10
144.107196168565
 20
178.429090655469
 42
0.0
  0
VERTEX
  8
1
 10
143.954330848782
 20
178.60807294881
 42
0.0
  0
VERTEX
  8
1
 10
143.775348555441
 20
178.760938268592
 42
0.0
  0
VERTEX
  8
1
 10
143.574656426612
 20
178.883922563312
 42
0.0
  0
VERTEX
  8
1
 10
143.357196168565
 20
178.973997551473
 42
0.0
  0
VERTEX
  8
1
 10
143.128322374563
 20
179.028945287923
 42
0.0
  0
VERTEX
  8
1
 10
142.893670677002
 20
179.04741277703
 42
0.0
  0
VERTEX
  8
1
 10
142.659018979442
 20
179.028945287923
 42
0.0
  0
VERTEX
  8
1
 10
142.43014518544
 20
178.973997551473
 42
0.0
  0
VERTEX
  8
1
 10
142.212684927393
 20
178.883922563312
 42
0.0
  0
VERTEX
  8
1
 10
142.011992798564
 20
178.760938268592
 42
0.0
  0
VERTEX
  8
1
 10
141.833010505222
 20
178.60807294881
 42
0.0
  0
VERTEX
  8
1
 10
141.68014518544
 20
178.429090655469
 42
0.0
  0
VERTEX
  8
1
 10
141.55716089072
 20
178.228398526639
 42
0.0
  0
VERTEX
  8
1
 10
141.46708590256
 20
178.010938268592
 42
0.0
  0
VERTEX
  8
1
 10
141.41213816611
 20
177.78206447459
 42
0.0
  0
VERTEX
  8
1
 10
141.393670677002
 20
177.54741277703
 42
0.0
  0
VERTEX
  8
1
 10
141.41213816611
 20
177.31276107947
 42
0.0
  0
VERTEX
  8
1
 10
141.46708590256
 20
177.083887285467
 42
0.0
  0
VERTEX
  8
1
 10
141.55716089072
 20
176.866427027421
 42
0.0
  0
VERTEX
  8
1
 10
141.68014518544
 20
176.665734898591
 42
0.0
  0
VERTEX
  8
1
 10
141.833010505222
 20
176.48675260525
 42
0.0
  0
VERTEX
  8
1
 10
142.011992798564
 20
176.333887285467
 42
0.0
  0
VERTEX
  8
1
 10
142.212684927393
 20
176.210902990747
 42
0.0
  0
VERTEX
  8
1
 10
142.43014518544
 20
176.120828002587
 42
0.0
  0
VERTEX
  8
1
 10
142.659018979442
 20
176.065880266137
 42
0.0
  0
VERTEX
  8
1
 10
142.893670677002
 20
176.04741277703
 42
0.0
  0
VERTEX
  8
1
 10
143.128322374563
 20
176.065880266137
 42
0.0
  0
VERTEX
  8
1
 10
143.357196168565
 20
176.120828002587
 42
0.0
  0
VERTEX
  8
1
 10
143.574656426612
 20
176.210902990747
 42
0.0
  0
VERTEX
  8
1
 10
143.775348555441
 20
176.333887285467
 42
0.0
  0
VERTEX
  8
1
 10
143.954330848782
 20
176.48675260525
 42
0.0
  0
VERTEX
  8
1
 10
144.107196168565
 20
176.665734898591
 42
0.0
  0
VERTEX
  8
1
 10
144.230180463285
 20
176.866427027421
 42
0.0
  0
VERTEX
  8
1
 10
144.320255451445
 20
177.083887285467
 42
0.0
  0
VERTEX
  8
1
 10
144.375203187895
 20
177.31276107947
 42
0.0
  0
SEQEND
  0
POLYLINE
  8
1
 66
     1
 10
0.0
 20
0.0
 30
0.0
 70
     1
  0
VERTEX
  8
1
 10
72.8987731588236
 20
44.2741230292687
 42
0.0
  0
VERTEX
  8
1
 10
72.8803056697163
 20
44.508774726829
 42
0.0
  0
VERTEX
  8
1
 10
72.8253579332664
 20
44.7376485208311
 42
0.0
  0
VERTEX
  8
1
 10
72.7352829451062
 20
44.955108778878
 42
0.0
  0
VERTEX
  8
1
 10
72.612298650386
 20
45.1558009077074
 42
0.0
  0
VERTEX
  8
1
 10
72.4594333306034
 20
45.3347832010485
 42
0.0
  0
VERTEX
  8
1
 10
72.2804510372623
 20
45.4876485208311
 42
0.0
  0
VERTEX
  8
1
 10
72.079758908433
 20
45.6106328155512
 42
0.0
  0
VERTEX
  8
1
 10
71.862298650386
 20
45.7007078037114
 42
0.0
  0
VERTEX
  8
1
 10
71.633424856384
 20
45.7556555401614
 42
0.0
  0
VERTEX
  8
1
 10
71.3987731588236
 20
45.7741230292687
 42
0.0
  0
VERTEX
  8
1
 10
71.1641214612633
 20
45.7556555401614
 42
0.0
  0
VERTEX
  8
1
 10
70.9352476672612
 20
45.7007078037114
 42
0.0
  0
VERTEX
  8
1
 10
70.7177874092143
 20
45.6106328155512
 42
0.0
  0
VERTEX
  8
1
 10
70.5170952803849
 20
45.4876485208311
 42
0.0
  0
VERTEX
  8
1
 10
70.3381129870438
 20
45.3347832010485
 42
0.0
  0
VERTEX
  8
1
 10
70.1852476672612
 20
45.1558009077074
 42
0.0
  0
VERTEX
  8
1
 10
70.0622633725411
 20
44.955108778878
 42
0.0
  0
VERTEX
  8
1
 10
69.9721883843809
 20
44.7376485208311
 42
0.0
  0
VERTEX
  8
1
 10
69.9172406479309
 20
44.508774726829
 42
0.0
  0
VERTEX
  8
1
 10
69.8987731588236
 20
44.2741230292687
 42
0.0
  0
VERTEX
  8
1
 10
69.9172406479309
 20
44.0394713317083
 42
0.0
  0
VERTEX
  8
1
 10
69.9721883843809
 20
43.8105975377062
 42
0.0
  0
VERTEX
  8
1
 10
70.0622633725411
 20
43.5931372796593
 42
0.0
  0
VERTEX
  8
1
 10
70.1852476672612
 20
43.3924451508299
 42
0.0
  0
VERTEX
  8
1
 10
70.3381129870438
 20
43.2134628574888
 42
0.0
  0
VERTEX
  8
1
 10
70.5170952803849
 20
43.0605975377062
 42
0.0
  0
VERTEX
  8
1
 10
70.7177874092143
 20
42.9376132429861
 42
0.0
  0
VERTEX
  8
1
 10
70.9352476672612
 20
42.8475382548259
 42
0.0
  0
VERTEX
  8
1
 10
71.1641214612633
 20
42.792590518376
 42
0.0
  0
VERTEX
  8
1
 10
71.3987731588236
 20
42.7741230292687
 42
0.0
  0
VERTEX
  8
1
 10
71.633424856384
 20
42.792590518376
 42
0.0
  0
VERTEX
  8
1
 10
71.8622986503861
 20
42.8475382548259
 42
0.0
  0
VERTEX
  8
1
 10
72.079758908433
 20
42.9376132429861
 42
0.0
  0
VERTEX
  8
1
 10
72.2804510372623
 20
43.0605975377062
 42
0.0
  0
VERTEX
  8
1
 10
72.4594333306034
 20
43.2134628574888
 42
0.0
  0
VERTEX
  8
1
 10
72.612298650386
 20
43.3924451508299
 42
0.0
  0
VERTEX
  8
1
 10
72.7352829451062
 20
43.5931372796593
 42
0.0
  0
VERTEX
  8
1
 10
72.8253579332664
 20
43.8105975377062
 42
0.0
  0
VERTEX
  8
1
 10
72.8803056697163
 20
44.0394713317083
 42
0.0
  0
SEQEND
  0
POLYLINE
  8
1
 66
     1
 10
0.0
 20
0.0
 30
0.0
 70
     1
  0
VERTEX
  8
1
 10
147.898773158824
 20
44.2741230292687
 42
0.0
  0
VERTEX
  8
1
 10
147.880305669716
 20
44.508774726829
 42
0.0
  0
VERTEX
  8
1
 10
147.825357933266
 20
44.7376485208311
 42
0.0
  0
VERTEX
  8
1
 10
147.735282945106
 20
44.955108778878
 42
0.0
  0
VERTEX
  8
1
 10
147.612298650386
 20
45.1558009077074
 42
0.0
  0
VERTEX
  8
1
 10
147.459433330603
 20
45.3347832010485
 42
0.0
  0
VERTEX
  8
1
 10
147.280451037262
 20
45.4876485208311
 42
0.0
  0
VERTEX
  8
1
 10
147.079758908433
 20
45.6106328155512
 42
0.0
  0
VERTEX
  8
1
 10
146.862298650386
 20
45.7007078037114
 42
0.0
  0
VERTEX
  8
1
 10
146.633424856384
 20
45.7556555401614
 42
0.0
  0
VERTEX
  8
1
 10
146.398773158824
 20
45.7741230292687
 42
0.0
  0
VERTEX
  8
1
 10
146.164121461263
 20
45.7556555401614
 42
0.0
  0
VERTEX
  8
1
 10
145.935247667261
 20
45.7007078037114
 42
0.0
  0
VERTEX
  8
1
 10
145.717787409214
 20
45.6106328155512
 42
0.0
  0
VERTEX
  8
1
 10
145.517095280385
 20
45.4876485208311
 42
0.0
  0
VERTEX
  8
1
 10
145.338112987044
 20
45.3347832010485
 42
0.0
  0
VERTEX
  8
1
 10
145.185247667261
 20
45.1558009077074
 42
0.0
  0
VERTEX
  8
1
 10
145.062263372541
 20
44.955108778878
 42
0.0
  0
VERTEX
  8
1
 10
144.972188384381
 20
44.7376485208311
 42
0.0
  0
VERTEX
  8
1
 10
144.917240647931
 20
44.508774726829
 42
0.0
  0
VERTEX
  8
1
 10
144.898773158824
 20
44.2741230292687
 42
0.0
  0
VERTEX
  8
1
 10
144.917240647931
 20
44.0394713317083
 42
0.0
  0
VERTEX
  8
1
 10
144.972188384381
 20
43.8105975377062
 42
0.0
  0
VERTEX
  8
1
 10
145.062263372541
 20
43.5931372796593
 42
0.0
  0
VERTEX
  8
1
 10
145.185247667261
 20
43.3924451508299
 42
0.0
  0
VERTEX
  8
1
 10
145.338112987044
 20
43.2134628574888
 42
0.0
  0
VERTEX
  8
1
 10
145.517095280385
 20
43.0605975377062
 42
0.0
  0
VERTEX
  8
1
 10
145.717787409214
 20
42.9376132429861
 42
0.0
  0
VERTEX
  8
1
 10
145.935247667261
 20
42.8475382548259
 42
0.0
  0
VERTEX
  8
1
 10
146.164121461263
 20
42.792590518376
 42
0.0
  0
VERTEX
  8
1
 10
146.398773158824
 20
42.7741230292687
 42
0.0
  0
VERTEX
  8
1
 10
146.633424856384
 20
42.792590518376
 42
0.0
  0
VERTEX
  8
1
 10
146.862298650386
 20
42.8475382548259
 42
0.0
  0
VERTEX
  8
1
 10
147.079758908433
 20
42.9376132429861
 42
0.0
  0
VERTEX
  8
1
 10
147.280451037262
 20
43.0605975377062
 42
0.0
  0
VERTEX
  8
1
 10
147.459433330603
 20
43.2134628574888
 42
0.0
  0
VERTEX
  8
1
 10
147.612298650386
 20
43.3924451508299
 42
0.0
  0
VERTEX
  8
1
 10
147.735282945106
 20
43.5931372796593
 42
0.0
  0
VERTEX
  8
1
 10
147.825357933266
 20
43.8105975377062
 42
0.0
  0
VERTEX
  8
1
 10
147.880305669716
 20
44.0394713317083
 42
0.0
  0
SEQEND
  0
POLYLINE
  8
1
 66
     1
 10
0.0
 20
0.0
 30
0.0
 70
     1
  0
VERTEX
  8
1
 10
147.898773158824
 20
92.2741230292687
 42
0.0
  0
VERTEX
  8
1
 10
147.880305669716
 20
92.508774726829
 42
0.0
  0
VERTEX
  8
1
 10
147.825357933266
 20
92.7376485208311
 42
0.0
  0
VERTEX
  8
1
 10
147.735282945106
 20
92.955108778878
 42
0.0
  0
VERTEX
  8
1
 10
147.612298650386
 20
93.1558009077074
 42
0.0
  0
VERTEX
  8
1
 10
147.459433330603
 20
93.3347832010485
 42
0.0
  0
VERTEX
  8
1
 10
147.280451037262
 20
93.4876485208311
 42
0.0
  0
VERTEX
  8
1
 10
147.079758908433
 20
93.6106328155512
 42
0.0
  0
VERTEX
  8
1
 10
146.862298650386
 20
93.7007078037114
 42
0.0
  0
VERTEX
  8
1
 10
146.633424856384
 20
93.7556555401614
 42
0.0
  0
VERTEX
  8
1
 10
146.398773158824
 20
93.7741230292687
 42
0.0
  0
VERTEX
  8
1
 10
146.164121461263
 20
93.7556555401614
 42
0.0
  0
VERTEX
  8
1
 10
145.935247667261
 20
93.7007078037114
 42
0.0
  0
VERTEX
  8
1
 10
145.717787409214
 20
93.6106328155512
 42
0.0
  0
VERTEX
  8
1
 10
145.517095280385
 20
93.4876485208311
 42
0.0
  0
VERTEX
  8
1
 10
145.338112987044
 20
93.3347832010485
 42
0.0
  0
VERTEX
  8
1
 10
145.185247667261
 20
93.1558009077074
 42
0.0
  0
VERTEX
  8
1
 10
145.062263372541
 20
92.955108778878
 42
0.0
  0
VERTEX
  8
1
 10
144.972188384381
 20
92.7376485208311
 42
0.0
  0
VERTEX
  8
1
 10
144.917240647931
 20
92.508774726829
 42
0.0
  0
VERTEX
  8
1
 10
144.898773158824
 20
92.2741230292687
 42
0.0
  0
VERTEX
  8
1
 10
144.917240647931
 20
92.0394713317083
 42
0.0
  0
VERTEX
  8
1
 10
144.972188384381
 20
91.8105975377062
 42
0.0
  0
VERTEX
  8
1
 10
145.062263372541
 20
91.5931372796593
 42
0.0
  0
VERTEX
  8
1
 10
145.185247667261
 20
91.3924451508299
 42
0.0
  0
VERTEX
  8
1
 10
145.338112987044
 20
91.2134628574888
 42
0.0
  0
VERTEX
  8
1
 10
145.517095280385
 20
91.0605975377062
 42
0.0
  0
VERTEX
  8
1
 10
145.717787409214
 20
90.9376132429861
 42
0.0
  0
VERTEX
  8
1
 10
145.935247667261
 20
90.8475382548259
 42
0.0
  0
VERTEX
  8
1
 10
146.164121461263
 20
90.7925905183759
 42
0.0
  0
VERTEX
  8
1
 10
146.398773158824
 20
90.7741230292687
 42
0.0
  0
VERTEX
  8
1
 10
146.633424856384
 20
90.7925905183759
 42
0.0
  0
VERTEX
  8
1
 10
146.862298650386
 20
90.8475382548259
 42
0.0
  0
VERTEX
  8
1
 10
147.079758908433
 20
90.9376132429861
 42
0.0
  0
VERTEX
  8
1
 10
147.280451037262
 20
91.0605975377062
 42
0.0
  0
VERTEX
  8
1
 10
147.459433330603
 20
91.2134628574888
 42
0.0
  0
VERTEX
  8
1
 10
147.612298650386
 20
91.3924451508299
 42
0.0
  0
VERTEX
  8
1
 10
147.735282945106
 20
91.5931372796593
 42
0.0
  0
VERTEX
  8
1
 10
147.825357933266
 20
91.8105975377062
 42
0.0
  0
VERTEX
  8
1
 10
147.880305669716
 20
92.0394713317083
 42
0.0
  0
SEQEND
  0
POLYLINE
  8
1
 66
     1
 10
0.0
 20
0.0
 30
0.0
 70
     1
  0
VERTEX
  8
1
 10
65.8987731588236
 20
92.2741230292687
 42
0.0
  0
VERTEX
  8
1
 10
65.8803056697163
 20
92.508774726829
 42
0.0
  0
VERTEX
  8
1
 10
65.8253579332664
 20
92.7376485208311
 42
0.0
  0
VERTEX
  8
1
 10
65.7352829451062
 20
92.955108778878
 42
0.0
  0
VERTEX
  8
1
 10
65.612298650386
 20
93.1558009077074
 42
0.0
  0
VERTEX
  8
1
 10
65.4594333306034
 20
93.3347832010485
 42
0.0
  0
VERTEX
  8
1
 10
65.2804510372623
 20
93.4876485208311
 42
0.0
  0
VERTEX
  8
1
 10
65.079758908433
 20
93.6106328155512
 42
0.0
  0
VERTEX
  8
1
 10
64.862298650386
 20
93.7007078037114
 42
0.0
  0
VERTEX
  8
1
 10
64.633424856384
 20
93.7556555401614
 42
0.0
  0
VERTEX
  8
1
 10
64.3987731588236
 20
93.7741230292687
 42
0.0
  0
VERTEX
  8
1
 10
64.1641214612633
 20
93.7556555401614
 42
0.0
  0
VERTEX
  8
1
 10
63.9352476672612
 20
93.7007078037114
 42
0.0
  0
VERTEX
  8
1
 10
63.7177874092143
 20
93.6106328155512
 42
0.0
  0
VERTEX
  8
1
 10
63.5170952803849
 20
93.4876485208311
 42
0.0
  0
VERTEX
  8
1
 10
63.3381129870438
 20
93.3347832010485
 42
0.0
  0
VERTEX
  8
1
 10
63.1852476672612
 20
93.1558009077074
 42
0.0
  0
VERTEX
  8
1
 10
63.0622633725411
 20
92.955108778878
 42
0.0
  0
VERTEX
  8
1
 10
62.9721883843809
 20
92.7376485208311
 42
0.0
  0
VERTEX
  8
1
 10
62.9172406479309
 20
92.508774726829
 42
0.0
  0
VERTEX
  8
1
 10
62.8987731588236
 20
92.2741230292687
 42
0.0
  0
VERTEX
  8
1
 10
62.9172406479309
 20
92.0394713317083
 42
0.0
  0
VERTEX
  8
1
 10
62.9721883843809
 20
91.8105975377062
 42
0.0
  0
VERTEX
  8
1
 10
63.0622633725411
 20
91.5931372796593
 42
0.0
  0
VERTEX
  8
1
 10
63.1852476672612
 20
91.3924451508299
 42
0.0
  0
VERTEX
  8
1
 10
63.3381129870438
 20
91.2134628574888
 42
0.0
  0
VERTEX
  8
1
 10
63.5170952803849
 20
91.0605975377062
 42
0.0
  0
VERTEX
  8
1
 10
63.7177874092143
 20
90.9376132429861
 42
0.0
  0
VERTEX
  8
1
 10
63.9352476672612
 20
90.8475382548259
 42
0.0
  0
VERTEX
  8
1
 10
64.1641214612633
 20
90.7925905183759
 42
0.0
  0
VERTEX
  8
1
 10
64.3987731588236
 20
90.7741230292687
 42
0.0
  0
VERTEX
  8
1
 10
64.633424856384
 20
90.7925905183759
 42
0.0
  0
VERTEX
  8
1
 10
64.862298650386
 20
90.8475382548259
 42
0.0
  0
VERTEX
  8
1
 10
65.079758908433
 20
90.9376132429861
 42
0.0
  0
VERTEX
  8
1
 10
65.2804510372623
 20
91.0605975377062
 42
0.0
  0
VERTEX
  8
1
 10
65.4594333306034
 20
91.2134628574888
 42
0.0
  0
VERTEX
  8
1
 10
65.612298650386
 20
91.3924451508299
 42
0.0
  0
VERTEX
  8
1
 10
65.7352829451062
 20
91.5931372796593
 42
0.0
  0
VERTEX
  8
1
 10
65.8253579332664
 20
91.8105975377062
 42
0.0
  0
VERTEX
  8
1
 10
65.8803056697163
 20
92.0394713317083
 42
0.0
  0
SEQEND
  0
POLYLINE
  8
1
 66
     1
 10
0.0
 20
0.0
 30
0.0
 70
     1
  0
VERTEX
  8
1
 10
116.428201026475
 20
255.218184443206
 42
0.0
  0
VERTEX
  8
1
 10
116.413125908775
 20
255.793879961878
 42
0.0
  0
VERTEX
  8
1
 10
116.367941875526
 20
256.36799753915
 42
0.0
  0
VERTEX
  8
1
 10
116.292772773021
 20
256.938963558648
 42
0.0
  0
VERTEX
  8
1
 10
116.187824634547
 20
257.505213042201
 42
0.0
  0
VERTEX
  8
1
 10
116.053385115655
 20
258.065193939333
 42
0.0
  0
VERTEX
  8
1
 10
115.889822705722
 20
258.61737138133
 42
0.0
  0
VERTEX
  8
1
 10
115.697585717944
 20
259.160231888204
 42
0.0
  0
VERTEX
  8
1
 10
115.477201060544
 20
259.692287517039
 42
0.0
  0
VERTEX
  8
1
 10
115.229272792547
 20
260.212079940341
 42
0.0
  0
VERTEX
  8
1
 10
114.954480468104
 20
260.718184443206
 42
0.0
  0
VERTEX
  8
1
 10
114.653577273875
 20
261.209213828371
 42
0.0
  0
VERTEX
  8
1
 10
114.327387964599
 20
261.683822218423
 42
0.0
  0
VERTEX
  8
1
 10
113.976806602502
 20
262.140708744754
 42
0.0
  0
VERTEX
  8
1
 10
113.602794106726
 20
262.578621113153
 42
0.0
  0
VERTEX
  8
1
 10
113.206375619527
 20
262.996359036258
 42
0.0
  0
VERTEX
  8
1
 10
112.788637696422
 20
263.392777523457
 42
0.0
  0
VERTEX
  8
1
 10
112.350725328023
 20
263.766790019232
 42
0.0
  0
VERTEX
  8
1
 10
111.893838801692
 20
264.11737138133
 42
0.0
  0
VERTEX
  8
1
 10
111.41923041164
 20
264.443560690605
 42
0.0
  0
VERTEX
  8
1
 10
110.928201026475
 20
264.744463884834
 42
0.0
  0
VERTEX
  8
1
 10
110.42209652361
 20
265.019256209278
 42
0.0
  0
VERTEX
  8
1
 10
109.902304100309
 20
265.267184477274
 42
0.0
  0
VERTEX
  8
1
 10
109.370248471473
 20
265.487569134675
 42
0.0
  0
VERTEX
  8
1
 10
108.827387964599
 20
265.679806122452
 42
0.0
  0
VERTEX
  8
1
 10
108.275210522603
 20
265.843368532385
 42
0.0
  0
VERTEX
  8
1
 10
107.71522962547
 20
265.977808051277
 42
0.0
  0
VERTEX
  8
1
 10
107.148980141918
 20
266.082756189752
 42
0.0
  0
VERTEX
  8
1
 10
106.578014122419
 20
266.157925292257
 42
0.0
  0
VERTEX
  8
1
 10
106.003896545147
 20
266.203109325506
 42
0.0
  0
VERTEX
  8
1
 10
105.428201026475
 20
266.218184443206
 42
0.0
  0
VERTEX
  8
1
 10
104.852505507803
 20
266.203109325506
 42
0.0
  0
VERTEX
  8
1
 10
104.278387930531
 20
266.157925292257
 42
0.0
  0
VERTEX
  8
1
 10
103.707421911032
 20
266.082756189752
 42
0.0
  0
VERTEX
  8
1
 10
103.14117242748
 20
265.977808051277
 42
0.0
  0
VERTEX
  8
1
 10
102.581191530347
 20
265.843368532385
 42
0.0
  0
VERTEX
  8
1
 10
102.029014088351
 20
265.679806122452
 42
0.0
  0
VERTEX
  8
1
 10
101.486153581477
 20
265.487569134675
 42
0.0
  0
VERTEX
  8
1
 10
100.954097952641
 20
265.267184477274
 42
0.0
  0
VERTEX
  8
1
 10
100.43430552934
 20
265.019256209278
 42
0.0
  0
VERTEX
  8
1
 10
99.928201026475
 20
264.744463884834
 42
0.0
  0
VERTEX
  8
1
 10
99.4371716413097
 20
264.443560690605
 42
0.0
  0
VERTEX
  8
1
 10
98.9625632512578
 20
264.11737138133
 42
0.0
  0
VERTEX
  8
1
 10
98.5056767249268
 20
263.766790019232
 42
0.0
  0
VERTEX
  8
1
 10
98.0677643565275
 20
263.392777523457
 42
0.0
  0
VERTEX
  8
1
 10
97.650026433423
 20
262.996359036258
 42
0.0
  0
VERTEX
  8
1
 10
97.2536079462237
 20
262.578621113153
 42
0.0
  0
VERTEX
  8
1
 10
96.8795954504483
 20
262.140708744754
 42
0.0
  0
VERTEX
  8
1
 10
96.5290140883506
 20
261.683822218423
 42
0.0
  0
VERTEX
  8
1
 10
96.2028247790753
 20
261.209213828371
 42
0.0
  0
VERTEX
  8
1
 10
95.9019215848462
 20
260.718184443206
 42
0.0
  0
VERTEX
  8
1
 10
95.627129260403
 20
260.212079940341
 42
0.0
  0
VERTEX
  8
1
 10
95.3792009924064
 20
259.692287517039
 42
0.0
  0
VERTEX
  8
1
 10
95.1588163350058
 20
259.160231888204
 42
0.0
  0
VERTEX
  8
1
 10
94.9665793472283
 20
258.61737138133
 42
0.0
  0
VERTEX
  8
1
 10
94.8030169372952
 20
258.065193939333
 42
0.0
  0
VERTEX
  8
1
 10
94.6685774184031
 20
257.505213042201
 42
0.0
  0
VERTEX
  8
1
 10
94.5636292799285
 20
256.938963558648
 42
0.0
  0
VERTEX
  8
1
 10
94.488460177424
 20
256.36799753915
 42
0.0
  0
VERTEX
  8
1
 10
94.4432761441747
 20
255.793879961878
 42
0.0
  0
VERTEX
  8
1
 10
94.428201026475
 20
255.218184443206
 42
0.0
  0
VERTEX
  8
1
 10
94.4432761441747
 20
254.642488924533
 42
0.0
  0
VERTEX
  8
1
 10
94.488460177424
 20
254.068371347261
 42
0.0
  0
VERTEX
  8
1
 10
94.5636292799285
 20
253.497405327763
 42
0.0
  0
VERTEX
  8
1
 10
94.6685774184031
 20
252.93115584421
 42
0.0
  0
VERTEX
  8
1
 10
94.8030169372952
 20
252.371174947078
 42
0.0
  0
VERTEX
  8
1
 10
94.9665793472283
 20
251.818997505081
 42
0.0
  0
VERTEX
  8
1
 10
95.1588163350058
 20
251.276136998207
 42
0.0
  0
VERTEX
  8
1
 10
95.3792009924064
 20
250.744081369372
 42
0.0
  0
VERTEX
  8
1
 10
95.6271292604029
 20
250.224288946071
 42
0.0
  0
VERTEX
  8
1
 10
95.9019215848462
 20
249.718184443206
 42
0.0
  0
VERTEX
  8
1
 10
96.2028247790753
 20
249.22715505804
 42
0.0
  0
VERTEX
  8
1
 10
96.5290140883506
 20
248.752546667988
 42
0.0
  0
VERTEX
  8
1
 10
96.8795954504483
 20
248.295660141657
 42
0.0
  0
VERTEX
  8
1
 10
97.2536079462236
 20
247.857747773258
 42
0.0
  0
VERTEX
  8
1
 10
97.6500264334229
 20
247.440009850154
 42
0.0
  0
VERTEX
  8
1
 10
98.0677643565275
 20
247.043591362954
 42
0.0
  0
VERTEX
  8
1
 10
98.5056767249267
 20
246.669578867179
 42
0.0
  0
VERTEX
  8
1
 10
98.9625632512577
 20
246.318997505081
 42
0.0
  0
VERTEX
  8
1
 10
99.4371716413097
 20
245.992808195806
 42
0.0
  0
VERTEX
  8
1
 10
99.928201026475
 20
245.691905001577
 42
0.0
  0
VERTEX
  8
1
 10
100.43430552934
 20
245.417112677134
 42
0.0
  0
VERTEX
  8
1
 10
100.954097952641
 20
245.169184409137
 42
0.0
  0
VERTEX
  8
1
 10
101.486153581477
 20
244.948799751736
 42
0.0
  0
VERTEX
  8
1
 10
102.029014088351
 20
244.756562763959
 42
0.0
  0
VERTEX
  8
1
 10
102.581191530347
 20
244.593000354026
 42
0.0
  0
VERTEX
  8
1
 10
103.14117242748
 20
244.458560835134
 42
0.0
  0
VERTEX
  8
1
 10
103.707421911032
 20
244.353612696659
 42
0.0
  0
VERTEX
  8
1
 10
104.278387930531
 20
244.278443594155
 42
0.0
  0
VERTEX
  8
1
 10
104.852505507803
 20
244.233259560905
 42
0.0
  0
VERTEX
  8
1
 10
105.428201026475
 20
244.218184443206
 42
0.0
  0
VERTEX
  8
1
 10
106.003896545147
 20
244.233259560905
 42
0.0
  0
VERTEX
  8
1
 10
106.578014122419
 20
244.278443594155
 42
0.0
  0
VERTEX
  8
1
 10
107.148980141918
 20
244.353612696659
 42
0.0
  0
VERTEX
  8
1
 10
107.71522962547
 20
244.458560835134
 42
0.0
  0
VERTEX
  8
1
 10
108.275210522603
 20
244.593000354026
 42
0.0
  0
VERTEX
  8
1
 10
108.827387964599
 20
244.756562763959
 42
0.0
  0
VERTEX
  8
1
 10
109.370248471473
 20
244.948799751736
 42
0.0
  0
VERTEX
  8
1
 10
109.902304100309
 20
245.169184409137
 42
0.0
  0
VERTEX
  8
1
 10
110.42209652361
 20
245.417112677134
 42
0.0
  0
VERTEX
  8
1
 10
110.928201026475
 20
245.691905001577
 42
0.0
  0
VERTEX
  8
1
 10
111.41923041164
 20
245.992808195806
 42
0.0
  0
VERTEX
  8
1
 10
111.893838801692
 20
246.318997505081
 42
0.0
  0
VERTEX
  8
1
 10
112.350725328023
 20
246.669578867179
 42
0.0
  0
VERTEX
  8
1
 10
112.788637696422
 20
247.043591362954
 42
0.0
  0
VERTEX
  8
1
 10
113.206375619527
 20
247.440009850154
 42
0.0
  0
VERTEX
  8
1
 10
113.602794106726
 20
247.857747773258
 42
0.0
  0
VERTEX
  8
1
 10
113.976806602502
 20
248.295660141657
 42
0.0
  0
VERTEX
  8
1
 10
114.327387964599
 20
248.752546667988
 42
0.0
  0
VERTEX
  8
1
 10
114.653577273875
 20
249.22715505804
 42
0.0
  0
VERTEX
  8
1
 10
114.954480468104
 20
249.718184443206
 42
0.0
  0
VERTEX
  8
1
 10
115.229272792547
 20
250.224288946071
 42
0.0
  0
VERTEX
  8
1
 10
115.477201060544
 20
250.744081369372
 42
0.0
  0
VERTEX
  8
1
 10
115.697585717944
 20
251.276136998207
 42
0.0
  0
VERTEX
  8
1
 10
115.889822705722
 20
251.818997505081
 42
0.0
  0
VERTEX
  8
1
 10
116.053385115655
 20
252.371174947078
 42
0.0
  0
VERTEX
  8
1
 10
116.187824634547
 20
252.93115584421
 42
0.0
  0
VERTEX
  8
1
 10
116.292772773021
 20
253.497405327763
 42
0.0
  0
VERTEX
  8
1
 10
116.367941875526
 20
254.068371347261
 42
0.0
  0
VERTEX
  8
1
 10
116.413125908775
 20
254.642488924533
 42
0.0
  0
SEQEND
  0
POLYLINE
  8
1
 66
     1
 10
0.0
 20
0.0
 30
0.0
 70
     1
  0
VERTEX
  8
1
 10
214.247235463066
 20
146.933074240067
 42
0.0
  0
VERTEX
  8
1
 10
214.247235463066
 20
166.933074240064
 42
0.0
  0
VERTEX
  8
1
 10
341.847235463067
 20
166.933074240064
 42
0.0
  0
VERTEX
  8
1
 10
341.847235463067
 20
146.933074240064
 42
0.0
  0
VERTEX
  8
1
 10
337.847235463067
 20
146.933074240064
 42
0.0
  0
VERTEX
  8
1
 10
337.847235463066
 20
126.933074240064
 42
0.0
  0
VERTEX
  8
1
 10
218.247235463066
 20
126.933074240064
 42
0.0
  0
VERTEX
  8
1
 10
218.247235463066
 20
146.933074240064
 42
0.0
  0
SEQEND
  0
POLYLINE
  8
1
 66
     1
 10
0.0
 20
0.0
 30
0.0
 70
     1
  0
VERTEX
  8
1
 10
358.536797812561
 20
76.5528335866487
 42
0.0
  0
VERTEX
  8
1
 10
218.936797812561
 20
76.5528335866486
 42
0.0
  0
VERTEX
  8
1
 10
218.936797812561
 20
67.0528335866486
 42
0.0
  0
VERTEX
  8
1
 10
214.936797812561
 20
67.0528335866488
 42
0.0
  0
VERTEX
  8
1
 10
214.936797812561
 20
47.0528335866486
 42
0.0
  0
VERTEX
  8
1
 10
362.536797812561
 20
47.0528335866486
 42
0.0
  0
VERTEX
  8
1
 10
362.536797812561
 20
67.0528335866488
 42
0.0
  0
VERTEX
  8
1
 10
358.536797812561
 20
67.0528335866486
 42
0.0
  0
SEQEND
  0
POLYLINE
  8
1
 66
     1
 10
0.0
 20
0.0
 30
0.0
 70
     1
  0
VERTEX
  8
1
 10
356.957046386491
 20
42.3541838953676
 42
0.0
  0
VERTEX
  8
1
 10
217.357046386491
 20
42.3541838953675
 42
0.0
  0
VERTEX
  8
1
 10
217.357046386491
 20
22.3541838953676
 42
0.0
  0
VERTEX
  8
1
 10
213.357046386491
 20
22.3541838953678
 42
0.0
  0
VERTEX
  8
1
 10
213.357046386491
 20
2.3541838953676
 42
0.0
  0
VERTEX
  8
1
 10
360.957046386491
 20
2.3541838953676
 42
0.0
  0
VERTEX
  8
1
 10
360.957046386491
 20
22.3541838953678
 42
0.0
  0
VERTEX
  8
1
 10
356.957046386491
 20
22.3541838953676
 42
0.0
  0
SEQEND
  0
POLYLINE
  8
1
 66
     1
 10
0.0
 20
0.0
 30
0.0
 70
     1
  0
VERTEX
  8
1
 10
212.460303760988
 20
161.682182284283
 42
0.0
  0
VERTEX
  8
1
 10
343.399446404259
 20
161.682182284283
 42
0.0
  0
VERTEX
  8
1
 10
343.399446404259
 20
157.182182284283
 42
0.0
  0
VERTEX
  8
1
 10
212.460303760988
 20
157.182182284283
 42
0.0
  0
SEQEND
  0
POLYLINE
  8
1
 66
     1
 10
0.0
 20
0.0
 30
0.0
 70
     1
  0
VERTEX
  8
1
 10
214.623125529912
 20
101.298532685727
 42
0.0
  0
VERTEX
  8
1
 10
214.623125529912
 20
121.298532685724
 42
0.0
  0
VERTEX
  8
1
 10
342.223125529913
 20
121.298532685724
 42
0.0
  0
VERTEX
  8
1
 10
342.223125529913
 20
101.298532685724
 42
0.0
  0
VERTEX
  8
1
 10
338.223125529913
 20
101.298532685724
 42
0.0
  0
VERTEX
  8
1
 10
338.223125529912
 20
81.2985326857243
 42
0.0
  0
VERTEX
  8
1
 10
218.623125529912
 20
81.2985326857243
 42
0.0
  0
VERTEX
  8
1
 10
218.623125529912
 20
101.298532685724
 42
0.0
  0
SEQEND
  0
POLYLINE
  8
1
 66
     1
 10
0.0
 20
0.0
 30
0.0
 70
     1
  0
VERTEX
  8
1
 10
212.836193827834
 20
116.047640729943
 42
0.0
  0
VERTEX
  8
1
 10
343.775336471105
 20
116.047640729943
 42
0.0
  0
VERTEX
  8
1
 10
343.775336471105
 20
111.547640729943
 42
0.0
  0
VERTEX
  8
1
 10
212.836193827834
 20
111.547640729943
 42
0.0
  0
SEQEND
  0
POLYLINE
  8
1
 66
     1
 10
0.0
 20
0.0
 30
0.0
 70
     1
  0
VERTEX
  8
1
 10
512.072220954772
 20
131.587058847498
 42
0.0
  0
VERTEX
  8
1
 10
451.96934391909
 20
131.587058847498
 42
0.0
  0
VERTEX
  8
1
 10
451.883842773005
 20
132.673453914835
 42
0.0
  0
VERTEX
  8
1
 10
451.44576809159
 20
134.498166284615
 42
0.0
  0
VERTEX
  8
1
 10
450.727638933028
 20
136.231883438751
 42
0.0
  0
VERTEX
  8
1
 10
449.747138020537
 20
137.831915507032
 42
0.0
  0
VERTEX
  8
1
 10
448.528408540677
 20
139.258864389734
 42
0.0
  0
VERTEX
  8
1
 10
447.101459657975
 20
140.477593869593
 42
0.0
  0
VERTEX
  8
1
 10
445.501427589694
 20
141.458094782085
 42
0.0
  0
VERTEX
  8
1
 10
443.767710435558
 20
142.176223940647
 42
0.0
  0
VERTEX
  8
1
 10
441.942998065778
 20
142.614298622062
 42
0.0
  0
VERTEX
  8
1
 10
440.072220954772
 20
142.761531973787
 42
0.0
  0
VERTEX
  8
1
 10
438.201443843767
 20
142.614298622062
 42
0.0
  0
VERTEX
  8
1
 10
436.376731473987
 20
142.176223940647
 42
0.0
  0
VERTEX
  8
1
 10
434.643014319851
 20
141.458094782085
 42
0.0
  0
VERTEX
  8
1
 10
433.04298225157
 20
140.477593869593
 42
0.0
  0
VERTEX
  8
1
 10
431.616033368868
 20
139.258864389734
 42
0.0
  0
VERTEX
  8
1
 10
430.397303889008
 20
137.831915507032
 42
0.0
  0
VERTEX
  8
1
 10
429.416802976517
 20
136.231883438751
 42
0.0
  0
VERTEX
  8
1
 10
428.698673817955
 20
134.498166284615
 42
0.0
  0
VERTEX
  8
1
 10
428.26059913654
 20
132.673453914835
 42
0.0
  0
VERTEX
  8
1
 10
428.175097990455
 20
131.587058847498
 42
0.0
  0
VERTEX
  8
1
 10
368.072220954772
 20
131.587058847498
 42
0.0
  0
VERTEX
  8
1
 10
368.072220954772
 20
2.5870588474978
 42
0.0
  0
VERTEX
  8
1
 10
512.072220954772
 20
2.5870588474978
 42
0.0
  0
SEQEND
  0
POLYLINE
  8
1
 66
     1
 10
0.0
 20
0.0
 30
0.0
 70
     1
  0
VERTEX
  8
1
 10
272.104899579894
 20
4.3541838953676
 42
0.0
  0
VERTEX
  8
1
 10
302.209193193087
 20
4.3541838953676
 42
0.0
  0
VERTEX
  8
1
 10
302.023876288292
 20
6.7088584287645
 42
0.0
  0
VERTEX
  8
1
 10
301.472488691135
 20
9.0055530604325
 42
0.0
  0
VERTEX
  8
1
 10
300.568607394209
 20
11.1877155462473
 42
0.0
  0
VERTEX
  8
1
 10
299.334488954854
 20
13.2016138036262
 42
0.0
  0
VERTEX
  8
1
 10
297.80052146485
 20
14.9976589737273
 42
0.0
  0
VERTEX
  8
1
 10
296.004476294749
 20
16.5316264637306
 42
0.0
  0
VERTEX
  8
1
 10
293.99057803737
 20
17.765744903086
 42
0.0
  0
VERTEX
  8
1
 10
291.808415551556
 20
18.6696262000123
 42
0.0
  0
VERTEX
  8
1
 10
289.511720919888
 20
19.2210137971691
 42
0.0
  0
VERTEX
  8
1
 10
287.157046386491
 20
19.4063307019639
 42
0.0
  0
VERTEX
  8
1
 10
284.802371853094
 20
19.2210137971691
 42
0.0
  0
VERTEX
  8
1
 10
282.505677221426
 20
18.6696262000123
 42
0.0
  0
VERTEX
  8
1
 10
280.323514735611
 20
17.765744903086
 42
0.0
  0
VERTEX
  8
1
 10
278.309616478232
 20
16.5316264637306
 42
0.0
  0
VERTEX
  8
1
 10
276.513571308131
 20
14.9976589737273
 42
0.0
  0
VERTEX
  8
1
 10
274.979603818128
 20
13.2016138036262
 42
0.0
  0
VERTEX
  8
1
 10
273.745485378772
 20
11.1877155462473
 42
0.0
  0
VERTEX
  8
1
 10
272.841604081846
 20
9.0055530604325
 42
0.0
  0
VERTEX
  8
1
 10
272.290216484689
 20
6.7088584287645
 42
0.0
  0
SEQEND
  0
TEXT
  8
1
 10
360.854495129423
 20
145.281528399367
 30
0.0
 40
4.0
  1
Hier 2 mm tiefe Taschen fraesen
 72
     0
 73
     1
  0
TEXT
  8
1
 10
249.215094601648
 20
292.013423987328
 30
0.0
 40
4.0
  1
Alle Bohrungen und Ausfraesungen in Front-/ Rueck- 
 72
     0
 73
     1
  0
TEXT
  8
1
 10
249.215094601648
 20
284.013423739241
 30
0.0
 40
4.0
  1
und Deckelplatte bitte nachmessen und ggf.
 72
     0
 73
     1
  0
TEXT
  8
1
 10
249.215094601648
 20
276.013423491153
 30
0.0
 40
4.0
  1
an die eigenen Bauteile anpassen!
 72
     0
 73
     1
  0
POLYLINE
  8
1
 66
     1
 10
0.0
 20
0.0
 30
0.0
 70
     1
  0
VERTEX
  8
1
 10
47.3987731588236
 20
79.0674127770298
 42
0.0
  0
VERTEX
  8
1
 10
47.3919208325965
 20
79.3290925582445
 42
0.0
  0
VERTEX
  8
1
 10
47.371382635665
 20
79.5900550933681
 42
0.0
  0
VERTEX
  8
1
 10
47.3372148617993
 20
79.849585102231
 42
0.0
  0
VERTEX
  8
1
 10
47.2895111624927
 20
80.1069712311186
 42
0.0
  0
VERTEX
  8
1
 10
47.228402290269
 20
80.3615080025424
 42
0.0
  0
VERTEX
  8
1
 10
47.1540557402994
 20
80.6124977489045
 42
0.0
  0
VERTEX
  8
1
 10
47.0666752913097
 20
80.8592525247563
 42
0.0
  0
VERTEX
  8
1
 10
46.9665004470367
 20
81.1010959924088
 42
0.0
  0
VERTEX
  8
1
 10
46.8538057797655
 20
81.3373652757275
 42
0.0
  0
VERTEX
  8
1
 10
46.7289001777458
 20
81.5674127770298
 42
0.0
  0
VERTEX
  8
1
 10
46.5921259985508
 20
81.7906079521049
 42
0.0
  0
VERTEX
  8
1
 10
46.4438581306984
 20
82.0063390384922
 42
0.0
  0
VERTEX
  8
1
 10
46.2845029661085
 20
82.214014732279
 42
0.0
  0
VERTEX
  8
1
 10
46.1144972862106
 20
82.4130658088241
 42
0.0
  0
VERTEX
  8
1
 10
45.9343070647564
 20
82.6029466829625
 42
0.0
  0
VERTEX
  8
1
 10
45.7444261906179
 20
82.7831369044168
 42
0.0
  0
VERTEX
  8
1
 10
45.5453751140728
 20
82.9531425843147
 42
0.0
  0
VERTEX
  8
1
 10
45.337699420286
 20
83.1124977489045
 42
0.0
  0
VERTEX
  8
1
 10
45.1219683338988
 20
83.2607656167569
 42
0.0
  0
VERTEX
  8
1
 10
44.8987731588236
 20
83.397539795952
 42
0.0
  0
VERTEX
  8
1
 10
44.6687256575214
 20
83.5224453979716
 42
0.0
  0
VERTEX
  8
1
 10
44.4324563742026
 20
83.6351400652428
 42
0.0
  0
VERTEX
  8
1
 10
44.1906129065501
 20
83.7353149095158
 42
0.0
  0
VERTEX
  8
1
 10
43.9438581306984
 20
83.8226953585056
 42
0.0
  0
VERTEX
  8
1
 10
43.6928683843363
 20
83.8970419084751
 42
0.0
  0
VERTEX
  8
1
 10
43.4383316129124
 20
83.9581507806988
 42
0.0
  0
VERTEX
  8
1
 10
43.1809454840248
 20
84.0058544800055
 42
0.0
  0
VERTEX
  8
1
 10
42.9214154751619
 20
84.0400222538712
 42
0.0
  0
VERTEX
  8
1
 10
42.6604529400384
 20
84.0605604508027
 42
0.0
  0
VERTEX
  8
1
 10
42.3987731588236
 20
84.0674127770298
 42
0.0
  0
VERTEX
  8
1
 10
42.1370933776089
 20
84.0605604508027
 42
0.0
  0
VERTEX
  8
1
 10
41.8761308424854
 20
84.0400222538712
 42
0.0
  0
VERTEX
  8
1
 10
41.6166008336225
 20
84.0058544800055
 42
0.0
  0
VERTEX
  8
1
 10
41.3592147047349
 20
83.9581507806988
 42
0.0
  0
VERTEX
  8
1
 10
41.104677933311
 20
83.8970419084751
 42
0.0
  0
VERTEX
  8
1
 10
40.8536881869489
 20
83.8226953585056
 42
0.0
  0
VERTEX
  8
1
 10
40.6069334110971
 20
83.7353149095158
 42
0.0
  0
VERTEX
  8
1
 10
40.3650899434446
 20
83.6351400652428
 42
0.0
  0
VERTEX
  8
1
 10
40.1288206601259
 20
83.5224453979716
 42
0.0
  0
VERTEX
  8
1
 10
39.8987731588236
 20
83.397539795952
 42
0.0
  0
VERTEX
  8
1
 10
39.6755779837485
 20
83.2607656167569
 42
0.0
  0
VERTEX
  8
1
 10
39.4598468973613
 20
83.1124977489045
 42
0.0
  0
VERTEX
  8
1
 10
39.2521712035745
 20
82.9531425843147
 42
0.0
  0
VERTEX
  8
1
 10
39.0531201270294
 20
82.7831369044168
 42
0.0
  0
VERTEX
  8
1
 10
38.8632392528909
 20
82.6029466829625
 42
0.0
  0
VERTEX
  8
1
 10
38.6830490314367
 20
82.4130658088241
 42
0.0
  0
VERTEX
  8
1
 10
38.5130433515388
 20
82.214014732279
 42
0.0
  0
VERTEX
  8
1
 10
38.3536881869489
 20
82.0063390384922
 42
0.0
  0
VERTEX
  8
1
 10
38.2054203190965
 20
81.7906079521049
 42
0.0
  0
VERTEX
  8
1
 10
38.0686461399015
 20
81.5674127770298
 42
0.0
  0
VERTEX
  8
1
 10
37.9437405378818
 20
81.3373652757275
 42
0.0
  0
VERTEX
  8
1
 10
37.8310458706106
 20
81.1010959924088
 42
0.0
  0
VERTEX
  8
1
 10
37.7308710263376
 20
80.8592525247563
 42
0.0
  0
VERTEX
  8
1
 10
37.6434905773479
 20
80.6124977489045
 42
0.0
  0
VERTEX
  8
1
 10
37.5691440273783
 20
80.3615080025424
 42
0.0
  0
VERTEX
  8
1
 10
37.5080351551546
 20
80.1069712311186
 42
0.0
  0
VERTEX
  8
1
 10
37.460331455848
 20
79.849585102231
 42
0.0
  0
VERTEX
  8
1
 10
37.4261636819823
 20
79.5900550933681
 42
0.0
  0
VERTEX
  8
1
 10
37.4056254850508
 20
79.3290925582445
 42
0.0
  0
VERTEX
  8
1
 10
37.3987731588236
 20
79.0674127770298
 42
0.0
  0
VERTEX
  8
1
 10
37.4056254850508
 20
78.8057329958151
 42
0.0
  0
VERTEX
  8
1
 10
37.4261636819823
 20
78.5447704606916
 42
0.0
  0
VERTEX
  8
1
 10
37.460331455848
 20
78.2852404518287
 42
0.0
  0
VERTEX
  8
1
 10
37.5080351551546
 20
78.027854322941
 42
0.0
  0
VERTEX
  8
1
 10
37.5691440273783
 20
77.7733175515172
 42
0.0
  0
VERTEX
  8
1
 10
37.6434905773479
 20
77.5223278051551
 42
0.0
  0
VERTEX
  8
1
 10
37.7308710263376
 20
77.2755730293033
 42
0.0
  0
VERTEX
  8
1
 10
37.8310458706106
 20
77.0337295616508
 42
0.0
  0
VERTEX
  8
1
 10
37.9437405378818
 20
76.7974602783321
 42
0.0
  0
VERTEX
  8
1
 10
38.0686461399014
 20
76.5674127770298
 42
0.0
  0
VERTEX
  8
1
 10
38.2054203190965
 20
76.3442176019547
 42
0.0
  0
VERTEX
  8
1
 10
38.3536881869489
 20
76.1284865155675
 42
0.0
  0
VERTEX
  8
1
 10
38.5130433515388
 20
75.9208108217806
 42
0.0
  0
VERTEX
  8
1
 10
38.6830490314367
 20
75.7217597452355
 42
0.0
  0
VERTEX
  8
1
 10
38.8632392528909
 20
75.5318788710971
 42
0.0
  0
VERTEX
  8
1
 10
39.0531201270293
 20
75.3516886496429
 42
0.0
  0
VERTEX
  8
1
 10
39.2521712035744
 20
75.181682969745
 42
0.0
  0
VERTEX
  8
1
 10
39.4598468973613
 20
75.0223278051551
 42
0.0
  0
VERTEX
  8
1
 10
39.6755779837485
 20
74.8740599373027
 42
0.0
  0
VERTEX
  8
1
 10
39.8987731588236
 20
74.7372857581076
 42
0.0
  0
VERTEX
  8
1
 10
40.1288206601259
 20
74.612380156088
 42
0.0
  0
VERTEX
  8
1
 10
40.3650899434446
 20
74.4996854888168
 42
0.0
  0
VERTEX
  8
1
 10
40.6069334110971
 20
74.3995106445438
 42
0.0
  0
VERTEX
  8
1
 10
40.8536881869489
 20
74.312130195554
 42
0.0
  0
VERTEX
  8
1
 10
41.104677933311
 20
74.2377836455845
 42
0.0
  0
VERTEX
  8
1
 10
41.3592147047348
 20
74.1766747733608
 42
0.0
  0
VERTEX
  8
1
 10
41.6166008336225
 20
74.1289710740541
 42
0.0
  0
VERTEX
  8
1
 10
41.8761308424854
 20
74.0948033001884
 42
0.0
  0
VERTEX
  8
1
 10
42.1370933776089
 20
74.0742651032569
 42
0.0
  0
VERTEX
  8
1
 10
42.3987731588236
 20
74.0674127770298
 42
0.0
  0
VERTEX
  8
1
 10
42.6604529400384
 20
74.0742651032569
 42
0.0
  0
VERTEX
  8
1
 10
42.9214154751619
 20
74.0948033001884
 42
0.0
  0
VERTEX
  8
1
 10
43.1809454840248
 20
74.1289710740541
 42
0.0
  0
VERTEX
  8
1
 10
43.4383316129124
 20
74.1766747733608
 42
0.0
  0
VERTEX
  8
1
 10
43.6928683843363
 20
74.2377836455845
 42
0.0
  0
VERTEX
  8
1
 10
43.9438581306984
 20
74.312130195554
 42
0.0
  0
VERTEX
  8
1
 10
44.1906129065502
 20
74.3995106445438
 42
0.0
  0
VERTEX
  8
1
 10
44.4324563742027
 20
74.4996854888168
 42
0.0
  0
VERTEX
  8
1
 10
44.6687256575214
 20
74.612380156088
 42
0.0
  0
VERTEX
  8
1
 10
44.8987731588237
 20
74.7372857581076
 42
0.0
  0
VERTEX
  8
1
 10
45.1219683338988
 20
74.8740599373027
 42
0.0
  0
VERTEX
  8
1
 10
45.337699420286
 20
75.0223278051551
 42
0.0
  0
VERTEX
  8
1
 10
45.5453751140728
 20
75.181682969745
 42
0.0
  0
VERTEX
  8
1
 10
45.7444261906179
 20
75.3516886496428
 42
0.0
  0
VERTEX
  8
1
 10
45.9343070647564
 20
75.5318788710971
 42
0.0
  0
VERTEX
  8
1
 10
46.1144972862106
 20
75.7217597452355
 42
0.0
  0
VERTEX
  8
1
 10
46.2845029661085
 20
75.9208108217806
 42
0.0
  0
VERTEX
  8
1
 10
46.4438581306984
 20
76.1284865155675
 42
0.0
  0
VERTEX
  8
1
 10
46.5921259985508
 20
76.3442176019547
 42
0.0
  0
VERTEX
  8
1
 10
46.7289001777458
 20
76.5674127770298
 42
0.0
  0
VERTEX
  8
1
 10
46.8538057797655
 20
76.7974602783321
 42
0.0
  0
VERTEX
  8
1
 10
46.9665004470367
 20
77.0337295616508
 42
0.0
  0
VERTEX
  8
1
 10
47.0666752913097
 20
77.2755730293033
 42
0.0
  0
VERTEX
  8
1
 10
47.1540557402994
 20
77.5223278051551
 42
0.0
  0
VERTEX
  8
1
 10
47.228402290269
 20
77.7733175515172
 42
0.0
  0
VERTEX
  8
1
 10
47.2895111624927
 20
78.027854322941
 42
0.0
  0
VERTEX
  8
1
 10
47.3372148617993
 20
78.2852404518287
 42
0.0
  0
VERTEX
  8
1
 10
47.371382635665
 20
78.5447704606916
 42
0.0
  0
VERTEX
  8
1
 10
47.3919208325965
 20
78.8057329958151
 42
0.0
  0
SEQEND
  0
POLYLINE
  8
1
 66
     1
 10
0.0
 20
0.0
 30
0.0
 70
     1
  0
VERTEX
  8
1
 10
173.398773158824
 20
59.0674127770298
 42
0.0
  0
VERTEX
  8
1
 10
173.337214861799
 20
59.8495851022309
 42
0.0
  0
VERTEX
  8
1
 10
173.154055740299
 20
60.6124977489045
 42
0.0
  0
VERTEX
  8
1
 10
172.853805779766
 20
61.3373652757275
 42
0.0
  0
VERTEX
  8
1
 10
172.443858130698
 20
62.0063390384922
 42
0.0
  0
VERTEX
  8
1
 10
171.934307064756
 20
62.6029466829625
 42
0.0
  0
VERTEX
  8
1
 10
171.337699420286
 20
63.1124977489045
 42
0.0
  0
VERTEX
  8
1
 10
170.668725657521
 20
63.5224453979716
 42
0.0
  0
VERTEX
  8
1
 10
169.943858130698
 20
63.8226953585056
 42
0.0
  0
VERTEX
  8
1
 10
169.180945484025
 20
64.0058544800055
 42
0.0
  0
VERTEX
  8
1
 10
168.398773158824
 20
64.0674127770298
 42
0.0
  0
VERTEX
  8
1
 10
167.616600833622
 20
64.0058544800055
 42
0.0
  0
VERTEX
  8
1
 10
166.853688186949
 20
63.8226953585056
 42
0.0
  0
VERTEX
  8
1
 10
166.128820660126
 20
63.5224453979716
 42
0.0
  0
VERTEX
  8
1
 10
165.459846897361
 20
63.1124977489045
 42
0.0
  0
VERTEX
  8
1
 10
164.863239252891
 20
62.6029466829625
 42
0.0
  0
VERTEX
  8
1
 10
164.353688186949
 20
62.0063390384922
 42
0.0
  0
VERTEX
  8
1
 10
163.943740537882
 20
61.3373652757275
 42
0.0
  0
VERTEX
  8
1
 10
163.643490577348
 20
60.6124977489045
 42
0.0
  0
VERTEX
  8
1
 10
163.460331455848
 20
59.8495851022309
 42
0.0
  0
VERTEX
  8
1
 10
163.398773158824
 20
59.0674127770298
 42
0.0
  0
VERTEX
  8
1
 10
163.460331455848
 20
58.2852404518286
 42
0.0
  0
VERTEX
  8
1
 10
163.643490577348
 20
57.5223278051551
 42
0.0
  0
VERTEX
  8
1
 10
163.943740537882
 20
56.7974602783321
 42
0.0
  0
VERTEX
  8
1
 10
164.353688186949
 20
56.1284865155674
 42
0.0
  0
VERTEX
  8
1
 10
164.863239252891
 20
55.5318788710971
 42
0.0
  0
VERTEX
  8
1
 10
165.459846897361
 20
55.0223278051551
 42
0.0
  0
VERTEX
  8
1
 10
166.128820660126
 20
54.612380156088
 42
0.0
  0
VERTEX
  8
1
 10
166.853688186949
 20
54.312130195554
 42
0.0
  0
VERTEX
  8
1
 10
167.616600833622
 20
54.1289710740541
 42
0.0
  0
VERTEX
  8
1
 10
168.398773158824
 20
54.0674127770298
 42
0.0
  0
VERTEX
  8
1
 10
169.180945484025
 20
54.1289710740541
 42
0.0
  0
VERTEX
  8
1
 10
169.943858130698
 20
54.312130195554
 42
0.0
  0
VERTEX
  8
1
 10
170.668725657521
 20
54.612380156088
 42
0.0
  0
VERTEX
  8
1
 10
171.337699420286
 20
55.0223278051551
 42
0.0
  0
VERTEX
  8
1
 10
171.934307064756
 20
55.5318788710971
 42
0.0
  0
VERTEX
  8
1
 10
172.443858130698
 20
56.1284865155674
 42
0.0
  0
VERTEX
  8
1
 10
172.853805779766
 20
56.7974602783321
 42
0.0
  0
VERTEX
  8
1
 10
173.154055740299
 20
57.5223278051551
 42
0.0
  0
VERTEX
  8
1
 10
173.337214861799
 20
58.2852404518286
 42
0.0
  0
SEQEND
  0
LINE
  8
1
 10
359.350934980997
 20
148.664538759381
 30
0.0
 11
344.691223533841
 21
159.565349919426
 31
0.0
  0
LINE
  8
1
 10
359.726825018104
 20
146.033308479371
 30
0.0
 11
344.691223533841
 21
115.586215239246
 31
0.0
  0
TEXT
  8
1
 10
151.0
 20
165.599609375
 30
0.0
 40
4.0
  1
Hier passende Aussparungen
 72
     0
 73
     1
  0
TEXT
  8
1
 10
151.0
 20
161.0
 30
0.0
 40
4.0
  1
fr den Joystick vorsehen!
 72
     0
 73
     1
  0
ENDSEC
  0
EOF
