  0
SECTION
  2
HEADER
  9
$ACADVER
  1
AC1009
  9
$EXTMAX
 10
897.627380371094
 20
266.225219726563
 30
0.0
  9
$EXTMIN
 10
3.8691592216492
 20
-21.7288761138916
 30
0.0
  9
$INSUNITS
 70
     4
  9
$LUNITS
 70
     2
  9
$LUPREC
 70
     4
  9
$MEASUREMENT
 70
     1
  0
ENDSEC
  0
SECTION
  2
TABLES
  0
TABLE
  2
LAYER
 70
     1
  0
LAYER
  2
0
 70
     0
 62
     7
  6
Continuous
  0
LAYER
  2
1
 70
     0
 62
     7
  6
Continuous
  0
ENDTAB
  0
TABLE
  2
APPID
 70
     1
  0
APPID
  2
ACAD
 70
     0
  0
ENDTAB
  0
ENDSEC
  0
SECTION
  2
ENTITIES
  0
POLYLINE
  8
1
 66
     1
 10
0.0
 20
0.0
 30
0.0
 70
     1
  0
VERTEX
  8
1
 10
233.772547426891
 20
47.4108962896095
 42
0.0
  0
VERTEX
  8
1
 10
249.772547426891
 20
47.4108962896095
 42
0.0
  0
VERTEX
  8
1
 10
249.772547426891
 20
63.4108962896095
 42
0.0
  0
VERTEX
  8
1
 10
233.772547426891
 20
63.4108962896095
 42
0.0
  0
SEQEND
  0
POLYLINE
  8
1
 66
     1
 10
0.0
 20
0.0
 30
0.0
 70
     1
  0
VERTEX
  8
1
 10
273.772547426891
 20
55.4108962896095
 42
0.0
  0
VERTEX
  8
1
 10
273.45713547947
 20
57.9175609608956
 42
0.0
  0
VERTEX
  8
1
 10
272.515873872036
 20
60.3846940329066
 42
0.0
  0
VERTEX
  8
1
 10
270.963606862421
 20
62.7733873433031
 42
0.0
  0
VERTEX
  8
1
 10
268.824814628645
 20
65.0459697716438
 42
0.0
  0
VERTEX
  8
1
 10
266.133227201888
 20
67.166601335459
 42
0.0
  0
VERTEX
  8
1
 10
262.931292523747
 20
69.1018384081833
 42
0.0
  0
VERTEX
  8
1
 10
259.269507016838
 20
70.8211611451253
 42
0.0
  0
VERTEX
  8
1
 10
255.20561922605
 20
72.2974547996498
 42
0.0
  0
VERTEX
  8
1
 10
250.803719089494
 20
73.5074373389299
 42
0.0
  0
VERTEX
  8
1
 10
246.133227201889
 20
74.4320266155126
 42
0.0
  0
VERTEX
  8
1
 10
241.26780001032
 20
75.0566413041833
 42
0.0
  0
VERTEX
  8
1
 10
236.284168208063
 20
75.3714308581749
 42
0.0
  0
VERTEX
  8
1
 10
231.260926645718
 20
75.3714308581749
 42
0.0
  0
VERTEX
  8
1
 10
226.277294843462
 20
75.0566413041833
 42
0.0
  0
VERTEX
  8
1
 10
221.411867651893
 20
74.4320266155126
 42
0.0
  0
VERTEX
  8
1
 10
216.741375764288
 20
73.5074373389299
 42
0.0
  0
VERTEX
  8
1
 10
212.339475627731
 20
72.2974547996498
 42
0.0
  0
VERTEX
  8
1
 10
208.275587836943
 20
70.8211611451253
 42
0.0
  0
VERTEX
  8
1
 10
204.613802330034
 20
69.1018384081833
 42
0.0
  0
VERTEX
  8
1
 10
201.411867651893
 20
67.166601335459
 42
0.0
  0
VERTEX
  8
1
 10
198.720280225136
 20
65.0459697716438
 42
0.0
  0
VERTEX
  8
1
 10
196.581487991361
 20
62.7733873433031
 42
0.0
  0
VERTEX
  8
1
 10
195.029220981745
 20
60.3846940329066
 42
0.0
  0
VERTEX
  8
1
 10
194.087959374312
 20
57.9175609608956
 42
0.0
  0
VERTEX
  8
1
 10
193.772547426891
 20
55.4108962896095
 42
0.0
  0
VERTEX
  8
1
 10
194.087959374312
 20
52.9042316183234
 42
0.0
  0
VERTEX
  8
1
 10
195.029220981745
 20
50.4370985463124
 42
0.0
  0
VERTEX
  8
1
 10
196.581487991361
 20
48.0484052359159
 42
0.0
  0
VERTEX
  8
1
 10
198.720280225136
 20
45.7758228075752
 42
0.0
  0
VERTEX
  8
1
 10
201.411867651893
 20
43.65519124376
 42
0.0
  0
VERTEX
  8
1
 10
204.613802330034
 20
41.7199541710357
 42
0.0
  0
VERTEX
  8
1
 10
208.275587836943
 20
40.0006314340937
 42
0.0
  0
VERTEX
  8
1
 10
212.339475627731
 20
38.5243377795692
 42
0.0
  0
VERTEX
  8
1
 10
216.741375764288
 20
37.3143552402891
 42
0.0
  0
VERTEX
  8
1
 10
221.411867651893
 20
36.3897659637064
 42
0.0
  0
VERTEX
  8
1
 10
226.277294843462
 20
35.7651512750357
 42
0.0
  0
VERTEX
  8
1
 10
231.260926645718
 20
35.4503617210441
 42
0.0
  0
VERTEX
  8
1
 10
236.284168208063
 20
35.4503617210441
 42
0.0
  0
VERTEX
  8
1
 10
241.26780001032
 20
35.7651512750358
 42
0.0
  0
VERTEX
  8
1
 10
246.133227201889
 20
36.3897659637065
 42
0.0
  0
VERTEX
  8
1
 10
250.803719089494
 20
37.3143552402892
 42
0.0
  0
VERTEX
  8
1
 10
255.205619226051
 20
38.5243377795693
 42
0.0
  0
VERTEX
  8
1
 10
259.269507016838
 20
40.0006314340938
 42
0.0
  0
VERTEX
  8
1
 10
262.931292523747
 20
41.7199541710358
 42
0.0
  0
VERTEX
  8
1
 10
266.133227201889
 20
43.6551912437601
 42
0.0
  0
VERTEX
  8
1
 10
268.824814628645
 20
45.7758228075753
 42
0.0
  0
VERTEX
  8
1
 10
270.963606862421
 20
48.048405235916
 42
0.0
  0
VERTEX
  8
1
 10
272.515873872036
 20
50.4370985463125
 42
0.0
  0
VERTEX
  8
1
 10
273.45713547947
 20
52.9042316183235
 42
0.0
  0
SEQEND
  0
POLYLINE
  8
1
 66
     1
 10
0.0
 20
0.0
 30
0.0
 70
     1
  0
VERTEX
  8
1
 10
207.290867060889
 20
55.410896289609
 42
0.0
  0
VERTEX
  8
1
 10
207.306785768962
 20
55.1578756702848
 42
0.0
  0
VERTEX
  8
1
 10
207.354290845646
 20
54.9088453372741
 42
0.0
  0
VERTEX
  8
1
 10
207.432633107503
 20
54.6677326476922
 42
0.0
  0
VERTEX
  8
1
 10
207.540577050263
 20
54.4383400926882
 42
0.0
  0
VERTEX
  8
1
 10
207.676420333469
 20
54.2242853298864
 42
0.0
  0
VERTEX
  8
1
 10
207.838020627393
 20
54.0289441307661
 42
0.0
  0
VERTEX
  8
1
 10
208.022829398866
 20
53.8553971427296
 42
0.0
  0
VERTEX
  8
1
 10
208.227932103163
 20
53.7063813054491
 42
0.0
  0
VERTEX
  8
1
 10
208.450094148114
 20
53.5842466876968
 42
0.0
  0
VERTEX
  8
1
 10
208.685811905556
 20
53.4909194253543
 42
0.0
  0
VERTEX
  8
1
 10
208.931367965645
 20
53.4278713450996
 42
0.0
  0
VERTEX
  8
1
 10
209.182889762625
 20
53.3960967528215
 42
0.0
  0
VERTEX
  8
1
 10
209.436410647504
 20
53.3960967528215
 42
0.0
  0
VERTEX
  8
1
 10
209.687932444484
 20
53.4278713450996
 42
0.0
  0
VERTEX
  8
1
 10
209.933488504573
 20
53.4909194253543
 42
0.0
  0
VERTEX
  8
1
 10
210.169206262016
 20
53.5842466876968
 42
0.0
  0
VERTEX
  8
1
 10
210.391368306966
 20
53.7063813054491
 42
0.0
  0
VERTEX
  8
1
 10
210.596471011263
 20
53.8553971427296
 42
0.0
  0
VERTEX
  8
1
 10
210.781279782736
 20
54.0289441307662
 42
0.0
  0
VERTEX
  8
1
 10
210.942880076661
 20
54.2242853298863
 42
0.0
  0
VERTEX
  8
1
 10
211.078723359866
 20
54.4383400926881
 42
0.0
  0
VERTEX
  8
1
 10
211.186667302627
 20
54.6677326476921
 42
0.0
  0
VERTEX
  8
1
 10
211.265009564484
 20
54.908845337274
 42
0.0
  0
VERTEX
  8
1
 10
211.312514641167
 20
55.1578756702855
 42
0.0
  0
VERTEX
  8
1
 10
211.32843334924
 20
55.4108962896099
 42
0.0
  0
VERTEX
  8
1
 10
211.312514641167
 20
55.6639169089336
 42
0.0
  0
VERTEX
  8
1
 10
211.265009564484
 20
55.912947241945
 42
0.0
  0
VERTEX
  8
1
 10
211.186667302627
 20
56.1540599315273
 42
0.0
  0
VERTEX
  8
1
 10
211.078723359866
 20
56.3834524865305
 42
0.0
  0
VERTEX
  8
1
 10
210.942880076661
 20
56.5975072493328
 42
0.0
  0
VERTEX
  8
1
 10
210.781279782736
 20
56.7928484484527
 42
0.0
  0
VERTEX
  8
1
 10
210.596471011263
 20
56.9663954364897
 42
0.0
  0
VERTEX
  8
1
 10
210.391368306966
 20
57.1154112737699
 42
0.0
  0
VERTEX
  8
1
 10
210.169206262015
 20
57.2375458915223
 42
0.0
  0
VERTEX
  8
1
 10
209.933488504573
 20
57.3308731538647
 42
0.0
  0
VERTEX
  8
1
 10
209.687932444484
 20
57.3939212341194
 42
0.0
  0
VERTEX
  8
1
 10
209.436410647504
 20
57.4256958263975
 42
0.0
  0
VERTEX
  8
1
 10
209.182889762625
 20
57.4256958263975
 42
0.0
  0
VERTEX
  8
1
 10
208.931367965645
 20
57.3939212341194
 42
0.0
  0
VERTEX
  8
1
 10
208.685811905557
 20
57.3308731538648
 42
0.0
  0
VERTEX
  8
1
 10
208.450094148114
 20
57.2375458915222
 42
0.0
  0
VERTEX
  8
1
 10
208.227932103164
 20
57.1154112737702
 42
0.0
  0
VERTEX
  8
1
 10
208.022829398867
 20
56.9663954364895
 42
0.0
  0
VERTEX
  8
1
 10
207.838020627393
 20
56.7928484484526
 42
0.0
  0
VERTEX
  8
1
 10
207.676420333469
 20
56.5975072493327
 42
0.0
  0
VERTEX
  8
1
 10
207.540577050264
 20
56.3834524865311
 42
0.0
  0
VERTEX
  8
1
 10
207.432633107502
 20
56.154059931526
 42
0.0
  0
VERTEX
  8
1
 10
207.354290845646
 20
55.912947241945
 42
0.0
  0
VERTEX
  8
1
 10
207.306785768962
 20
55.6639169089341
 42
0.0
  0
SEQEND
  0
POLYLINE
  8
1
 66
     1
 10
0.0
 20
0.0
 30
0.0
 70
     1
  0
VERTEX
  8
1
 10
261.64322118824
 20
55.410896289609
 42
0.0
  0
VERTEX
  8
1
 10
261.659139896313
 20
55.157875670286
 42
0.0
  0
VERTEX
  8
1
 10
261.706644972997
 20
54.9088453372739
 42
0.0
  0
VERTEX
  8
1
 10
261.784987234854
 20
54.6677326476921
 42
0.0
  0
VERTEX
  8
1
 10
261.892931177615
 20
54.4383400926881
 42
0.0
  0
VERTEX
  8
1
 10
262.02877446082
 20
54.2242853298864
 42
0.0
  0
VERTEX
  8
1
 10
262.190374754745
 20
54.0289441307664
 42
0.0
  0
VERTEX
  8
1
 10
262.375183526219
 20
53.8553971427294
 42
0.0
  0
VERTEX
  8
1
 10
262.580286230515
 20
53.7063813054489
 42
0.0
  0
VERTEX
  8
1
 10
262.802448275465
 20
53.5842466876969
 42
0.0
  0
VERTEX
  8
1
 10
263.038166032908
 20
53.4909194253543
 42
0.0
  0
VERTEX
  8
1
 10
263.283722092997
 20
53.4278713450996
 42
0.0
  0
VERTEX
  8
1
 10
263.535243889977
 20
53.3960967528215
 42
0.0
  0
VERTEX
  8
1
 10
263.788764774856
 20
53.3960967528215
 42
0.0
  0
VERTEX
  8
1
 10
264.040286571836
 20
53.4278713450996
 42
0.0
  0
VERTEX
  8
1
 10
264.285842631924
 20
53.4909194253543
 42
0.0
  0
VERTEX
  8
1
 10
264.521560389367
 20
53.5842466876968
 42
0.0
  0
VERTEX
  8
1
 10
264.743722434318
 20
53.7063813054494
 42
0.0
  0
VERTEX
  8
1
 10
264.948825138614
 20
53.8553971427291
 42
0.0
  0
VERTEX
  8
1
 10
265.133633910088
 20
54.0289441307663
 42
0.0
  0
VERTEX
  8
1
 10
265.295234204012
 20
54.2242853298863
 42
0.0
  0
VERTEX
  8
1
 10
265.431077487218
 20
54.4383400926884
 42
0.0
  0
VERTEX
  8
1
 10
265.539021429979
 20
54.6677326476922
 42
0.0
  0
VERTEX
  8
1
 10
265.617363691835
 20
54.9088453372741
 42
0.0
  0
VERTEX
  8
1
 10
265.664868768519
 20
55.1578756702848
 42
0.0
  0
VERTEX
  8
1
 10
265.680787476592
 20
55.4108962896081
 42
0.0
  0
VERTEX
  8
1
 10
265.664868768519
 20
55.6639169089343
 42
0.0
  0
VERTEX
  8
1
 10
265.617363691835
 20
55.912947241945
 42
0.0
  0
VERTEX
  8
1
 10
265.539021429978
 20
56.1540599315272
 42
0.0
  0
VERTEX
  8
1
 10
265.431077487218
 20
56.3834524865299
 42
0.0
  0
VERTEX
  8
1
 10
265.295234204012
 20
56.5975072493332
 42
0.0
  0
VERTEX
  8
1
 10
265.133633910088
 20
56.7928484484528
 42
0.0
  0
VERTEX
  8
1
 10
264.948825138614
 20
56.9663954364895
 42
0.0
  0
VERTEX
  8
1
 10
264.743722434318
 20
57.1154112737699
 42
0.0
  0
VERTEX
  8
1
 10
264.521560389367
 20
57.2375458915223
 42
0.0
  0
VERTEX
  8
1
 10
264.285842631924
 20
57.3308731538648
 42
0.0
  0
VERTEX
  8
1
 10
264.040286571836
 20
57.3939212341195
 42
0.0
  0
VERTEX
  8
1
 10
263.788764774856
 20
57.4256958263975
 42
0.0
  0
VERTEX
  8
1
 10
263.535243889977
 20
57.4256958263975
 42
0.0
  0
VERTEX
  8
1
 10
263.283722092997
 20
57.3939212341194
 42
0.0
  0
VERTEX
  8
1
 10
263.038166032908
 20
57.3308731538647
 42
0.0
  0
VERTEX
  8
1
 10
262.802448275466
 20
57.2375458915224
 42
0.0
  0
VERTEX
  8
1
 10
262.580286230515
 20
57.1154112737701
 42
0.0
  0
VERTEX
  8
1
 10
262.375183526218
 20
56.9663954364895
 42
0.0
  0
VERTEX
  8
1
 10
262.190374754745
 20
56.7928484484526
 42
0.0
  0
VERTEX
  8
1
 10
262.028774460821
 20
56.597507249333
 42
0.0
  0
VERTEX
  8
1
 10
261.892931177615
 20
56.3834524865306
 42
0.0
  0
VERTEX
  8
1
 10
261.784987234854
 20
56.1540599315261
 42
0.0
  0
VERTEX
  8
1
 10
261.706644972997
 20
55.912947241945
 42
0.0
  0
VERTEX
  8
1
 10
261.659139896314
 20
55.6639169089348
 42
0.0
  0
SEQEND
  0
POLYLINE
  8
1
 66
     1
 10
0.0
 20
0.0
 30
0.0
 70
     1
  0
VERTEX
  8
1
 10
828.376212222335
 20
221.307752281866
 42
0.0
  0
VERTEX
  8
1
 10
828.592731080358
 20
220.556145249947
 42
0.0
  0
VERTEX
  8
1
 10
829.030912097135
 20
219.908232491278
 42
0.0
  0
VERTEX
  8
1
 10
829.64786306176
 20
219.427436220952
 42
0.0
  0
VERTEX
  8
1
 10
830.383192515264
 20
219.160820127813
 42
0.0
  0
VERTEX
  8
1
 10
831.164921287396
 20
219.134482452681
 42
0.0
  0
VERTEX
  8
1
 10
831.916528319315
 20
219.351001310703
 42
0.0
  0
VERTEX
  8
1
 10
832.564441077985
 20
219.789182327481
 42
0.0
  0
VERTEX
  8
1
 10
833.045237348311
 20
220.406133292105
 42
0.0
  0
VERTEX
  8
1
 10
833.31185344145
 20
221.141462745609
 42
0.0
  0
VERTEX
  8
1
 10
833.338191116582
 20
221.923191517741
 42
0.0
  0
VERTEX
  8
1
 10
833.121672258559
 20
222.674798549661
 42
0.0
  0
VERTEX
  8
1
 10
832.683491241781
 20
223.32271130833
 42
0.0
  0
VERTEX
  8
1
 10
832.066540277157
 20
223.803507578656
 42
0.0
  0
VERTEX
  8
1
 10
831.331210823653
 20
224.070123671795
 42
0.0
  0
VERTEX
  8
1
 10
830.549482051521
 20
224.096461346927
 42
0.0
  0
VERTEX
  8
1
 10
829.797875019601
 20
223.879942488905
 42
0.0
  0
VERTEX
  8
1
 10
829.149962260932
 20
223.441761472127
 42
0.0
  0
VERTEX
  8
1
 10
828.669165990606
 20
222.824810507502
 42
0.0
  0
VERTEX
  8
1
 10
828.402549897467
 20
222.089481053999
 42
0.0
  0
SEQEND
  0
POLYLINE
  8
1
 66
     1
 10
0.0
 20
0.0
 30
0.0
 70
     1
  0
VERTEX
  8
1
 10
823.550579041731
 20
152.140344126649
 42
0.0
  0
VERTEX
  8
1
 10
823.767097899754
 20
151.388737094729
 42
0.0
  0
VERTEX
  8
1
 10
824.205278916531
 20
150.74082433606
 42
0.0
  0
VERTEX
  8
1
 10
824.822229881156
 20
150.260028065734
 42
0.0
  0
VERTEX
  8
1
 10
825.55755933466
 20
149.993411972595
 42
0.0
  0
VERTEX
  8
1
 10
826.339288106792
 20
149.967074297463
 42
0.0
  0
VERTEX
  8
1
 10
827.090895138712
 20
150.183593155486
 42
0.0
  0
VERTEX
  8
1
 10
827.738807897381
 20
150.621774172264
 42
0.0
  0
VERTEX
  8
1
 10
828.219604167707
 20
151.238725136888
 42
0.0
  0
VERTEX
  8
1
 10
828.486220260846
 20
151.974054590392
 42
0.0
  0
VERTEX
  8
1
 10
828.512557935978
 20
152.755783362524
 42
0.0
  0
VERTEX
  8
1
 10
828.296039077955
 20
153.507390394443
 42
0.0
  0
VERTEX
  8
1
 10
827.857858061177
 20
154.155303153113
 42
0.0
  0
VERTEX
  8
1
 10
827.240907096553
 20
154.636099423439
 42
0.0
  0
VERTEX
  8
1
 10
826.505577643049
 20
154.902715516578
 42
0.0
  0
VERTEX
  8
1
 10
825.723848870917
 20
154.92905319171
 42
0.0
  0
VERTEX
  8
1
 10
824.972241838997
 20
154.712534333687
 42
0.0
  0
VERTEX
  8
1
 10
824.324329080328
 20
154.274353316909
 42
0.0
  0
VERTEX
  8
1
 10
823.843532810002
 20
153.657402352285
 42
0.0
  0
VERTEX
  8
1
 10
823.576916716863
 20
152.922072898781
 42
0.0
  0
SEQEND
  0
POLYLINE
  8
1
 66
     1
 10
0.0
 20
0.0
 30
0.0
 70
     1
  0
VERTEX
  8
1
 10
751.487790211379
 20
90.3722400996643
 42
0.0
  0
VERTEX
  8
1
 10
751.704309069402
 20
89.6206330677445
 42
0.0
  0
VERTEX
  8
1
 10
752.142490086179
 20
88.9727203090755
 42
0.0
  0
VERTEX
  8
1
 10
752.759441050804
 20
88.4919240387495
 42
0.0
  0
VERTEX
  8
1
 10
753.494770504308
 20
88.2253079456104
 42
0.0
  0
VERTEX
  8
1
 10
754.27649927644
 20
88.1989702704783
 42
0.0
  0
VERTEX
  8
1
 10
755.02810630836
 20
88.4154891285008
 42
0.0
  0
VERTEX
  8
1
 10
755.676019067029
 20
88.8536701452787
 42
0.0
  0
VERTEX
  8
1
 10
756.156815337355
 20
89.4706211099032
 42
0.0
  0
VERTEX
  8
1
 10
756.423431430494
 20
90.2059505634067
 42
0.0
  0
VERTEX
  8
1
 10
756.449769105626
 20
90.987679335539
 42
0.0
  0
VERTEX
  8
1
 10
756.233250247603
 20
91.7392863674587
 42
0.0
  0
VERTEX
  8
1
 10
755.795069230825
 20
92.3871991261277
 42
0.0
  0
VERTEX
  8
1
 10
755.178118266201
 20
92.8679953964537
 42
0.0
  0
VERTEX
  8
1
 10
754.442788812697
 20
93.1346114895927
 42
0.0
  0
VERTEX
  8
1
 10
753.661060040565
 20
93.1609491647247
 42
0.0
  0
VERTEX
  8
1
 10
752.909453008645
 20
92.9444303067025
 42
0.0
  0
VERTEX
  8
1
 10
752.261540249976
 20
92.5062492899246
 42
0.0
  0
VERTEX
  8
1
 10
751.78074397965
 20
91.8892983253001
 42
0.0
  0
VERTEX
  8
1
 10
751.514127886511
 20
91.1539688717964
 42
0.0
  0
SEQEND
  0
POLYLINE
  8
1
 66
     1
 10
0.0
 20
0.0
 30
0.0
 70
     1
  0
VERTEX
  8
1
 10
759.852221057759
 20
171.764585510223
 42
0.0
  0
VERTEX
  8
1
 10
760.068739915782
 20
171.012978478303
 42
0.0
  0
VERTEX
  8
1
 10
760.50692093256
 20
170.365065719634
 42
0.0
  0
VERTEX
  8
1
 10
761.123871897184
 20
169.884269449308
 42
0.0
  0
VERTEX
  8
1
 10
761.859201350688
 20
169.617653356168
 42
0.0
  0
VERTEX
  8
1
 10
762.64093012282
 20
169.591315681036
 42
0.0
  0
VERTEX
  8
1
 10
763.39253715474
 20
169.807834539059
 42
0.0
  0
VERTEX
  8
1
 10
764.040449913409
 20
170.246015555837
 42
0.0
  0
VERTEX
  8
1
 10
764.521246183735
 20
170.862966520461
 42
0.0
  0
VERTEX
  8
1
 10
764.787862276874
 20
171.598295973965
 42
0.0
  0
VERTEX
  8
1
 10
764.814199952006
 20
172.380024746097
 42
0.0
  0
VERTEX
  8
1
 10
764.597681093983
 20
173.131631778017
 42
0.0
  0
VERTEX
  8
1
 10
764.159500077206
 20
173.779544536686
 42
0.0
  0
VERTEX
  8
1
 10
763.542549112581
 20
174.260340807012
 42
0.0
  0
VERTEX
  8
1
 10
762.807219659078
 20
174.526956900151
 42
0.0
  0
VERTEX
  8
1
 10
762.025490886945
 20
174.553294575283
 42
0.0
  0
VERTEX
  8
1
 10
761.273883855025
 20
174.336775717261
 42
0.0
  0
VERTEX
  8
1
 10
760.625971096356
 20
173.898594700483
 42
0.0
  0
VERTEX
  8
1
 10
760.14517482603
 20
173.281643735858
 42
0.0
  0
VERTEX
  8
1
 10
759.878558732892
 20
172.546314282355
 42
0.0
  0
SEQEND
  0
POLYLINE
  8
1
 66
     1
 10
0.0
 20
0.0
 30
0.0
 70
     1
  0
VERTEX
  8
1
 10
722.855700006463
 20
200.396675397731
 42
0.0
  0
VERTEX
  8
1
 10
723.072218864485
 20
199.645068365811
 42
0.0
  0
VERTEX
  8
1
 10
723.510399881263
 20
198.997155607142
 42
0.0
  0
VERTEX
  8
1
 10
724.127350845887
 20
198.516359336816
 42
0.0
  0
VERTEX
  8
1
 10
724.862680299391
 20
198.249743243677
 42
0.0
  0
VERTEX
  8
1
 10
725.644409071523
 20
198.223405568545
 42
0.0
  0
VERTEX
  8
1
 10
726.396016103443
 20
198.439924426568
 42
0.0
  0
VERTEX
  8
1
 10
727.043928862112
 20
198.878105443345
 42
0.0
  0
VERTEX
  8
1
 10
727.524725132438
 20
199.49505640797
 42
0.0
  0
VERTEX
  8
1
 10
727.791341225577
 20
200.230385861474
 42
0.0
  0
VERTEX
  8
1
 10
727.817678900709
 20
201.012114633606
 42
0.0
  0
VERTEX
  8
1
 10
727.601160042687
 20
201.763721665525
 42
0.0
  0
VERTEX
  8
1
 10
727.162979025909
 20
202.411634424194
 42
0.0
  0
VERTEX
  8
1
 10
726.546028061284
 20
202.89243069452
 42
0.0
  0
VERTEX
  8
1
 10
725.810698607781
 20
203.159046787659
 42
0.0
  0
VERTEX
  8
1
 10
725.028969835649
 20
203.185384462791
 42
0.0
  0
VERTEX
  8
1
 10
724.277362803729
 20
202.968865604769
 42
0.0
  0
VERTEX
  8
1
 10
723.62945004506
 20
202.530684587991
 42
0.0
  0
VERTEX
  8
1
 10
723.148653774734
 20
201.913733623367
 42
0.0
  0
VERTEX
  8
1
 10
722.882037681595
 20
201.178404169863
 42
0.0
  0
SEQEND
  0
POLYLINE
  8
1
 66
     1
 10
0.0
 20
0.0
 30
0.0
 70
     1
  0
VERTEX
  8
1
 10
823.550579041731
 20
214.551865903915
 42
0.0
  0
VERTEX
  8
1
 10
823.767097899754
 20
213.800258871995
 42
0.0
  0
VERTEX
  8
1
 10
824.205278916531
 20
213.152346113326
 42
0.0
  0
VERTEX
  8
1
 10
824.822229881156
 20
212.671549843
 42
0.0
  0
VERTEX
  8
1
 10
825.55755933466
 20
212.404933749861
 42
0.0
  0
VERTEX
  8
1
 10
826.339288106792
 20
212.378596074729
 42
0.0
  0
VERTEX
  8
1
 10
827.090895138712
 20
212.595114932752
 42
0.0
  0
VERTEX
  8
1
 10
827.738807897381
 20
213.033295949529
 42
0.0
  0
VERTEX
  8
1
 10
828.219604167707
 20
213.650246914154
 42
0.0
  0
VERTEX
  8
1
 10
828.486220260846
 20
214.385576367658
 42
0.0
  0
VERTEX
  8
1
 10
828.512557935978
 20
215.16730513979
 42
0.0
  0
VERTEX
  8
1
 10
828.296039077955
 20
215.918912171709
 42
0.0
  0
VERTEX
  8
1
 10
827.857858061177
 20
216.566824930378
 42
0.0
  0
VERTEX
  8
1
 10
827.240907096553
 20
217.047621200704
 42
0.0
  0
VERTEX
  8
1
 10
826.505577643049
 20
217.314237293843
 42
0.0
  0
VERTEX
  8
1
 10
825.723848870917
 20
217.340574968975
 42
0.0
  0
VERTEX
  8
1
 10
824.972241838997
 20
217.124056110953
 42
0.0
  0
VERTEX
  8
1
 10
824.324329080328
 20
216.685875094175
 42
0.0
  0
VERTEX
  8
1
 10
823.843532810002
 20
216.068924129551
 42
0.0
  0
VERTEX
  8
1
 10
823.576916716863
 20
215.333594676047
 42
0.0
  0
SEQEND
  0
POLYLINE
  8
1
 66
     1
 10
0.0
 20
0.0
 30
0.0
 70
     1
  0
VERTEX
  8
1
 10
817.759819225007
 20
156.965977253757
 42
0.0
  0
VERTEX
  8
1
 10
817.976338083029
 20
156.214370221837
 42
0.0
  0
VERTEX
  8
1
 10
818.414519099807
 20
155.566457463168
 42
0.0
  0
VERTEX
  8
1
 10
819.031470064431
 20
155.085661192843
 42
0.0
  0
VERTEX
  8
1
 10
819.766799517935
 20
154.819045099703
 42
0.0
  0
VERTEX
  8
1
 10
820.548528290067
 20
154.792707424571
 42
0.0
  0
VERTEX
  8
1
 10
821.300135321987
 20
155.009226282594
 42
0.0
  0
VERTEX
  8
1
 10
821.948048080656
 20
155.447407299372
 42
0.0
  0
VERTEX
  8
1
 10
822.428844350982
 20
156.064358263996
 42
0.0
  0
VERTEX
  8
1
 10
822.695460444121
 20
156.7996877175
 42
0.0
  0
VERTEX
  8
1
 10
822.721798119253
 20
157.581416489632
 42
0.0
  0
VERTEX
  8
1
 10
822.505279261231
 20
158.333023521552
 42
0.0
  0
VERTEX
  8
1
 10
822.067098244453
 20
158.980936280221
 42
0.0
  0
VERTEX
  8
1
 10
821.450147279828
 20
159.461732550547
 42
0.0
  0
VERTEX
  8
1
 10
820.714817826325
 20
159.728348643686
 42
0.0
  0
VERTEX
  8
1
 10
819.933089054192
 20
159.754686318818
 42
0.0
  0
VERTEX
  8
1
 10
819.181482022273
 20
159.538167460795
 42
0.0
  0
VERTEX
  8
1
 10
818.533569263604
 20
159.099986444018
 42
0.0
  0
VERTEX
  8
1
 10
818.052772993277
 20
158.483035479393
 42
0.0
  0
VERTEX
  8
1
 10
817.786156900139
 20
157.747706025889
 42
0.0
  0
SEQEND
  0
POLYLINE
  8
1
 66
     1
 10
0.0
 20
0.0
 30
0.0
 70
     1
  0
VERTEX
  8
1
 10
751.487790211379
 20
96.4847087273346
 42
0.0
  0
VERTEX
  8
1
 10
751.704309069402
 20
95.7331016954148
 42
0.0
  0
VERTEX
  8
1
 10
752.142490086179
 20
95.0851889367458
 42
0.0
  0
VERTEX
  8
1
 10
752.759441050804
 20
94.6043926664198
 42
0.0
  0
VERTEX
  8
1
 10
753.494770504308
 20
94.3377765732809
 42
0.0
  0
VERTEX
  8
1
 10
754.27649927644
 20
94.3114388981489
 42
0.0
  0
VERTEX
  8
1
 10
755.02810630836
 20
94.5279577561711
 42
0.0
  0
VERTEX
  8
1
 10
755.676019067029
 20
94.966138772949
 42
0.0
  0
VERTEX
  8
1
 10
756.156815337355
 20
95.5830897375737
 42
0.0
  0
VERTEX
  8
1
 10
756.423431430494
 20
96.3184191910772
 42
0.0
  0
VERTEX
  8
1
 10
756.449769105626
 20
97.1001479632093
 42
0.0
  0
VERTEX
  8
1
 10
756.233250247603
 20
97.851754995129
 42
0.0
  0
VERTEX
  8
1
 10
755.795069230825
 20
98.499667753798
 42
0.0
  0
VERTEX
  8
1
 10
755.178118266201
 20
98.9804640241242
 42
0.0
  0
VERTEX
  8
1
 10
754.442788812697
 20
99.2470801172632
 42
0.0
  0
VERTEX
  8
1
 10
753.661060040565
 20
99.2734177923952
 42
0.0
  0
VERTEX
  8
1
 10
752.909453008645
 20
99.0568989343728
 42
0.0
  0
VERTEX
  8
1
 10
752.261540249976
 20
98.6187179175949
 42
0.0
  0
VERTEX
  8
1
 10
751.78074397965
 20
98.0017669529704
 42
0.0
  0
VERTEX
  8
1
 10
751.514127886511
 20
97.2664374994669
 42
0.0
  0
SEQEND
  0
POLYLINE
  8
1
 66
     1
 10
0.0
 20
0.0
 30
0.0
 70
     1
  0
VERTEX
  8
1
 10
759.852221057759
 20
177.877054137893
 42
0.0
  0
VERTEX
  8
1
 10
760.068739915782
 20
177.125447105973
 42
0.0
  0
VERTEX
  8
1
 10
760.50692093256
 20
176.477534347304
 42
0.0
  0
VERTEX
  8
1
 10
761.123871897184
 20
175.996738076978
 42
0.0
  0
VERTEX
  8
1
 10
761.859201350688
 20
175.730121983839
 42
0.0
  0
VERTEX
  8
1
 10
762.64093012282
 20
175.703784308707
 42
0.0
  0
VERTEX
  8
1
 10
763.39253715474
 20
175.920303166729
 42
0.0
  0
VERTEX
  8
1
 10
764.040449913409
 20
176.358484183507
 42
0.0
  0
VERTEX
  8
1
 10
764.521246183735
 20
176.975435148132
 42
0.0
  0
VERTEX
  8
1
 10
764.787862276874
 20
177.710764601635
 42
0.0
  0
VERTEX
  8
1
 10
764.814199952006
 20
178.492493373767
 42
0.0
  0
VERTEX
  8
1
 10
764.597681093983
 20
179.244100405687
 42
0.0
  0
VERTEX
  8
1
 10
764.159500077206
 20
179.892013164356
 42
0.0
  0
VERTEX
  8
1
 10
763.542549112581
 20
180.372809434682
 42
0.0
  0
VERTEX
  8
1
 10
762.807219659078
 20
180.639425527821
 42
0.0
  0
VERTEX
  8
1
 10
762.025490886945
 20
180.665763202953
 42
0.0
  0
VERTEX
  8
1
 10
761.273883855025
 20
180.449244344931
 42
0.0
  0
VERTEX
  8
1
 10
760.625971096356
 20
180.011063328153
 42
0.0
  0
VERTEX
  8
1
 10
760.14517482603
 20
179.394112363529
 42
0.0
  0
VERTEX
  8
1
 10
759.878558732892
 20
178.658782910025
 42
0.0
  0
SEQEND
  0
POLYLINE
  8
1
 66
     1
 10
0.0
 20
0.0
 30
0.0
 70
     1
  0
VERTEX
  8
1
 10
716.743231311031
 20
202.970346398855
 42
0.0
  0
VERTEX
  8
1
 10
716.959750169053
 20
202.218739366936
 42
0.0
  0
VERTEX
  8
1
 10
717.397931185831
 20
201.570826608267
 42
0.0
  0
VERTEX
  8
1
 10
718.014882150456
 20
201.090030337941
 42
0.0
  0
VERTEX
  8
1
 10
718.750211603959
 20
200.823414244802
 42
0.0
  0
VERTEX
  8
1
 10
719.531940376091
 20
200.79707656967
 42
0.0
  0
VERTEX
  8
1
 10
720.283547408011
 20
201.013595427692
 42
0.0
  0
VERTEX
  8
1
 10
720.93146016668
 20
201.45177644447
 42
0.0
  0
VERTEX
  8
1
 10
721.412256437006
 20
202.068727409094
 42
0.0
  0
VERTEX
  8
1
 10
721.678872530145
 20
202.804056862598
 42
0.0
  0
VERTEX
  8
1
 10
721.705210205277
 20
203.58578563473
 42
0.0
  0
VERTEX
  8
1
 10
721.488691347255
 20
204.33739266665
 42
0.0
  0
VERTEX
  8
1
 10
721.050510330477
 20
204.985305425319
 42
0.0
  0
VERTEX
  8
1
 10
720.433559365853
 20
205.466101695645
 42
0.0
  0
VERTEX
  8
1
 10
719.698229912349
 20
205.732717788784
 42
0.0
  0
VERTEX
  8
1
 10
718.916501140217
 20
205.759055463916
 42
0.0
  0
VERTEX
  8
1
 10
718.164894108297
 20
205.542536605894
 42
0.0
  0
VERTEX
  8
1
 10
717.516981349628
 20
205.104355589116
 42
0.0
  0
VERTEX
  8
1
 10
717.036185079302
 20
204.487404624491
 42
0.0
  0
VERTEX
  8
1
 10
716.769568986163
 20
203.752075170987
 42
0.0
  0
SEQEND
  0
POLYLINE
  8
1
 66
     1
 10
0.0
 20
0.0
 30
0.0
 70
     1
  0
VERTEX
  8
1
 10
834.731375552239
 20
224.858260318559
 42
0.0
  0
VERTEX
  8
1
 10
834.731375552239
 20
84.8582603185586
 42
0.0
  0
VERTEX
  8
1
 10
714.731375552239
 20
84.8582603185586
 42
0.0
  0
VERTEX
  8
1
 10
714.731375552239
 20
224.858260318559
 42
0.0
  0
SEQEND
  0
POLYLINE
  8
1
 66
     1
 10
0.0
 20
0.0
 30
0.0
 70
     1
  0
VERTEX
  8
1
 10
672.92027777401
 20
180.150334831435
 42
0.0
  0
VERTEX
  8
1
 10
672.259648142485
 20
179.707389254692
 42
0.0
  0
VERTEX
  8
1
 10
671.366199371282
 20
179.173910293858
 42
0.0
  0
VERTEX
  8
1
 10
670.446054909017
 20
178.687921943194
 42
0.0
  0
VERTEX
  8
1
 10
669.501736807704
 20
178.250756262988
 42
0.0
  0
VERTEX
  8
1
 10
668.535833377619
 20
177.863611493983
 42
0.0
  0
VERTEX
  8
1
 10
667.550992092925
 20
177.527548773081
 42
0.0
  0
VERTEX
  8
1
 10
666.549912335129
 20
177.24348922484
 42
0.0
  0
VERTEX
  8
1
 10
665.53533799426
 20
177.012211436737
 42
0.0
  0
VERTEX
  8
1
 10
664.510049948067
 20
176.834349325114
 42
0.0
  0
VERTEX
  8
1
 10
663.476858439817
 20
176.710390397655
 42
0.0
  0
VERTEX
  8
1
 10
662.514297868628
 20
176.645757592814
 42
0.0
  0
VERTEX
  8
1
 10
614.228375434217
 20
176.625392470299
 42
0.0
  0
VERTEX
  8
1
 10
614.228375434217
 20
181.625392470299
 42
0.0
  0
VERTEX
  8
1
 10
601.228375434217
 20
181.625392470299
 42
0.0
  0
VERTEX
  8
1
 10
601.228375434217
 20
176.625392470299
 42
0.0
  0
VERTEX
  8
1
 10
579.228375434217
 20
176.625392470299
 42
0.0
  0
VERTEX
  8
1
 10
579.228375434217
 20
166.625392470299
 42
0.0
  0
VERTEX
  8
1
 10
571.228375434217
 20
166.625392470299
 42
0.0
  0
VERTEX
  8
1
 10
571.228375434217
 20
146.625392470299
 42
0.0
  0
VERTEX
  8
1
 10
579.228375434217
 20
146.625392470299
 42
0.0
  0
VERTEX
  8
1
 10
579.228375434217
 20
136.625392470299
 42
0.0
  0
VERTEX
  8
1
 10
601.228375434217
 20
136.625392470299
 42
0.0
  0
VERTEX
  8
1
 10
601.228375434217
 20
131.625392470299
 42
0.0
  0
VERTEX
  8
1
 10
614.228375434217
 20
131.625392470299
 42
0.0
  0
VERTEX
  8
1
 10
614.228375434217
 20
136.625392470299
 42
0.0
  0
VERTEX
  8
1
 10
662.411824725417
 20
136.643524500624
 42
0.0
  0
VERTEX
  8
1
 10
663.450087789617
 20
136.573808520134
 42
0.0
  0
VERTEX
  8
1
 10
664.483279297867
 20
136.449849592675
 42
0.0
  0
VERTEX
  8
1
 10
665.50856734406
 20
136.271987481052
 42
0.0
  0
VERTEX
  8
1
 10
666.523141684929
 20
136.040709692949
 42
0.0
  0
VERTEX
  8
1
 10
667.524221442726
 20
135.756650144708
 42
0.0
  0
VERTEX
  8
1
 10
668.509062727419
 20
135.420587423806
 42
0.0
  0
VERTEX
  8
1
 10
669.474966157504
 20
135.033442654801
 42
0.0
  0
VERTEX
  8
1
 10
670.419284258817
 20
134.596276974595
 42
0.0
  0
VERTEX
  8
1
 10
671.339428721082
 20
134.110288623931
 42
0.0
  0
VERTEX
  8
1
 10
672.232877492285
 20
133.576809663096
 42
0.0
  0
VERTEX
  8
1
 10
673.097181691448
 20
132.997302320842
 42
0.0
  0
VERTEX
  8
1
 10
673.929972320838
 20
132.373354986512
 42
0.0
  0
VERTEX
  8
1
 10
674.728966759226
 20
131.706677856379
 42
0.0
  0
VERTEX
  8
1
 10
675.491975018395
 20
130.999098246117
 42
0.0
  0
VERTEX
  8
1
 10
675.734874736268
 20
130.748957100774
 42
0.0
  0
VERTEX
  8
1
 10
675.78727512413
 20
130.502122460567
 42
0.0
  0
VERTEX
  8
1
 10
679.132668310582
 20
119.411718959518
 42
0.0
  0
VERTEX
  8
1
 10
683.368559205826
 20
108.716047920327
 42
0.0
  0
VERTEX
  8
1
 10
688.448509889389
 20
98.5550858741639
 42
0.0
  0
VERTEX
  8
1
 10
694.326082440799
 20
89.0688093522002
 42
0.0
  0
VERTEX
  8
1
 10
700.954838939583
 20
80.3971948856065
 42
0.0
  0
VERTEX
  8
1
 10
706.618648408591
 20
74.2762824039097
 42
0.0
  0
VERTEX
  8
1
 10
712.699529834731
 20
68.7271331231512
 42
0.0
  0
VERTEX
  8
1
 10
719.185779167641
 20
63.7406965807459
 42
0.0
  0
VERTEX
  8
1
 10
726.065692356956
 20
59.3079223141088
 42
0.0
  0
VERTEX
  8
1
 10
733.327565352315
 20
55.4197598606549
 42
0.0
  0
VERTEX
  8
1
 10
740.959694103353
 20
52.0671587577993
 42
0.0
  0
VERTEX
  8
1
 10
748.950374559708
 20
49.2410685429566
 42
0.0
  0
VERTEX
  8
1
 10
757.287902671016
 20
46.9324387535419
 42
0.0
  0
VERTEX
  8
1
 10
765.960574386913
 20
45.1322189269702
 42
0.0
  0
VERTEX
  8
1
 10
774.956685657037
 20
43.8313586006566
 42
0.0
  0
VERTEX
  8
1
 10
784.264532431025
 20
43.0208073120159
 42
0.0
  0
VERTEX
  8
1
 10
793.872410658513
 20
42.6915145984631
 42
0.0
  0
VERTEX
  8
1
 10
800.904063752136
 20
42.74976726875
 42
0.0
  0
VERTEX
  8
1
 10
807.99259713784
 20
43.0681212110183
 42
0.0
  0
VERTEX
  8
1
 10
815.04753532301
 20
43.6653458078736
 42
0.0
  0
VERTEX
  8
1
 10
821.97840281503
 20
44.560210441922
 42
0.0
  0
VERTEX
  8
1
 10
828.694724121286
 20
45.7714844957691
 42
0.0
  0
VERTEX
  8
1
 10
835.106023749163
 20
47.3179373520209
 42
0.0
  0
VERTEX
  8
1
 10
841.121826206045
 20
49.2183383932836
 42
0.0
  0
VERTEX
  8
1
 10
846.651655999317
 20
51.4914570021629
 42
0.0
  0
VERTEX
  8
1
 10
851.605037636365
 20
54.1560625612645
 42
0.0
  0
VERTEX
  8
1
 10
855.891495624572
 20
57.2309244531946
 42
0.0
  0
VERTEX
  8
1
 10
859.420554471325
 20
60.734812060559
 42
0.0
  0
VERTEX
  8
1
 10
862.101738684007
 20
64.6864947659633
 42
0.0
  0
VERTEX
  8
1
 10
864.056405632251
 20
69.7304842977248
 42
0.0
  0
VERTEX
  8
1
 10
864.974381469743
 20
75.3106746753355
 42
0.0
  0
VERTEX
  8
1
 10
865.031490422473
 20
81.360382413653
 42
0.0
  0
VERTEX
  8
1
 10
864.403556716432
 20
87.8129240275349
 42
0.0
  0
VERTEX
  8
1
 10
863.26640457761
 20
94.6016160318391
 42
0.0
  0
VERTEX
  8
1
 10
861.795858231995
 20
101.659774941423
 42
0.0
  0
VERTEX
  8
1
 10
860.16774190558
 20
108.920717271144
 42
0.0
  0
VERTEX
  8
1
 10
858.557879824353
 20
116.317759535861
 42
0.0
  0
VERTEX
  8
1
 10
857.142096214304
 20
123.78421825043
 42
0.0
  0
VERTEX
  8
1
 10
856.096215301425
 20
131.25340992971
 42
0.0
  0
VERTEX
  8
1
 10
855.596061311704
 20
138.658651088558
 42
0.0
  0
VERTEX
  8
1
 10
855.64532505371
 20
140.277345614348
 42
0.0
  0
VERTEX
  8
1
 10
856.101062923338
 20
140.220223831076
 42
0.0
  0
VERTEX
  8
1
 10
856.560921240137
 20
140.162045727687
 42
0.0
  0
VERTEX
  8
1
 10
857.020413799398
 20
140.103238634404
 42
0.0
  0
VERTEX
  8
1
 10
857.479467449617
 20
140.043676753247
 42
0.0
  0
VERTEX
  8
1
 10
857.938009039285
 20
139.983234286239
 42
0.0
  0
VERTEX
  8
1
 10
858.395965416895
 20
139.921785435399
 42
0.0
  0
VERTEX
  8
1
 10
858.85326343094
 20
139.85920440275
 42
0.0
  0
VERTEX
  8
1
 10
859.309829929913
 20
139.795365390312
 42
0.0
  0
VERTEX
  8
1
 10
859.765591762305
 20
139.730142600106
 42
0.0
  0
VERTEX
  8
1
 10
860.220475776611
 20
139.663410234153
 42
0.0
  0
VERTEX
  8
1
 10
860.674408821323
 20
139.595042494476
 42
0.0
  0
VERTEX
  8
1
 10
861.127317744934
 20
139.524913583093
 42
0.0
  0
VERTEX
  8
1
 10
861.579129395935
 20
139.452897702028
 42
0.0
  0
VERTEX
  8
1
 10
862.029770622821
 20
139.378869053301
 42
0.0
  0
VERTEX
  8
1
 10
862.479168274084
 20
139.302701838933
 42
0.0
  0
VERTEX
  8
1
 10
862.927249198217
 20
139.224270260945
 42
0.0
  0
VERTEX
  8
1
 10
863.373940243711
 20
139.143448521359
 42
0.0
  0
VERTEX
  8
1
 10
863.819168259062
 20
139.060110822195
 42
0.0
  0
VERTEX
  8
1
 10
864.26286009276
 20
138.974131365475
 42
0.0
  0
VERTEX
  8
1
 10
864.704942593298
 20
138.885384353219
 42
0.0
  0
VERTEX
  8
1
 10
865.145342609171
 20
138.79374398745
 42
0.0
  0
VERTEX
  8
1
 10
865.583986988869
 20
138.699084470187
 42
0.0
  0
VERTEX
  8
1
 10
866.020802580887
 20
138.601280003453
 42
0.0
  0
VERTEX
  8
1
 10
866.455716233716
 20
138.500204789267
 42
0.0
  0
VERTEX
  8
1
 10
866.888654795849
 20
138.395733029652
 42
0.0
  0
VERTEX
  8
1
 10
867.31954511578
 20
138.287738926629
 42
0.0
  0
VERTEX
  8
1
 10
867.748314042001
 20
138.176096682218
 42
0.0
  0
VERTEX
  8
1
 10
868.174888423005
 20
138.060680498441
 42
0.0
  0
VERTEX
  8
1
 10
868.599195107284
 20
137.941364577319
 42
0.0
  0
VERTEX
  8
1
 10
869.021160943332
 20
137.818023120873
 42
0.0
  0
VERTEX
  8
1
 10
869.44071277964
 20
137.690530331124
 42
0.0
  0
VERTEX
  8
1
 10
869.857777464703
 20
137.558760410093
 42
0.0
  0
VERTEX
  8
1
 10
870.272281847012
 20
137.422587559802
 42
0.0
  0
VERTEX
  8
1
 10
870.68415277506
 20
137.281885982271
 42
0.0
  0
VERTEX
  8
1
 10
871.093317097341
 20
137.136529879522
 42
0.0
  0
VERTEX
  8
1
 10
871.499701662346
 20
136.986393453575
 42
0.0
  0
VERTEX
  8
1
 10
871.903233318569
 20
136.831350906453
 42
0.0
  0
VERTEX
  8
1
 10
872.303838914502
 20
136.671276440175
 42
0.0
  0
VERTEX
  8
1
 10
872.701445298638
 20
136.506044256763
 42
0.0
  0
VERTEX
  8
1
 10
873.095979319471
 20
136.335528558239
 42
0.0
  0
VERTEX
  8
1
 10
873.487367825492
 20
136.159603546623
 42
0.0
  0
VERTEX
  8
1
 10
873.875537665194
 20
135.978143423937
 42
0.0
  0
VERTEX
  8
1
 10
874.26041568707
 20
135.791022392201
 42
0.0
  0
VERTEX
  8
1
 10
874.641928739613
 20
135.598114653437
 42
0.0
  0
VERTEX
  8
1
 10
875.020003671317
 20
135.399294409666
 42
0.0
  0
VERTEX
  8
1
 10
875.492631281961
 20
135.139557679498
 42
0.0
  0
VERTEX
  8
1
 10
875.959772126105
 20
134.870385407091
 42
0.0
  0
VERTEX
  8
1
 10
876.42154294346
 20
134.591978348663
 42
0.0
  0
VERTEX
  8
1
 10
876.87806047374
 20
134.304537260432
 42
0.0
  0
VERTEX
  8
1
 10
877.329441456656
 20
134.008262898616
 42
0.0
  0
VERTEX
  8
1
 10
877.775802631923
 20
133.703356019432
 42
0.0
  0
VERTEX
  8
1
 10
878.217260739253
 20
133.390017379099
 42
0.0
  0
VERTEX
  8
1
 10
878.653932518358
 20
133.068447733834
 42
0.0
  0
VERTEX
  8
1
 10
879.085934708951
 20
132.738847839855
 42
0.0
  0
VERTEX
  8
1
 10
879.513384050746
 20
132.40141845338
 42
0.0
  0
VERTEX
  8
1
 10
879.936397283455
 20
132.056360330627
 42
0.0
  0
VERTEX
  8
1
 10
880.355091146791
 20
131.703874227814
 42
0.0
  0
VERTEX
  8
1
 10
880.769582380466
 20
131.344160901158
 42
0.0
  0
VERTEX
  8
1
 10
881.179987724193
 20
130.977421106878
 42
0.0
  0
VERTEX
  8
1
 10
881.586423917686
 20
130.603855601191
 42
0.0
  0
VERTEX
  8
1
 10
881.989007700656
 20
130.223665140315
 42
0.0
  0
VERTEX
  8
1
 10
882.387855812818
 20
129.837050480467
 42
0.0
  0
VERTEX
  8
1
 10
882.783084993882
 20
129.444212377867
 42
0.0
  0
VERTEX
  8
1
 10
883.174811983563
 20
129.045351588731
 42
0.0
  0
VERTEX
  8
1
 10
883.563153521574
 20
128.640668869278
 42
0.0
  0
VERTEX
  8
1
 10
883.948226347625
 20
128.230364975724
 42
0.0
  0
VERTEX
  8
1
 10
884.330147201432
 20
127.814640664289
 42
0.0
  0
VERTEX
  8
1
 10
884.709032822706
 20
127.39369669119
 42
0.0
  0
VERTEX
  8
1
 10
885.084999951161
 20
126.967733812645
 42
0.0
  0
VERTEX
  8
1
 10
885.458165326508
 20
126.536952784872
 42
0.0
  0
VERTEX
  8
1
 10
885.828645688461
 20
126.101554364088
 42
0.0
  0
VERTEX
  8
1
 10
886.196557776733
 20
125.661739306511
 42
0.0
  0
VERTEX
  8
1
 10
886.562018331036
 20
125.21770836836
 42
0.0
  0
VERTEX
  8
1
 10
886.925144091084
 20
124.769662305851
 42
0.0
  0
VERTEX
  8
1
 10
887.286051796588
 20
124.317801875204
 42
0.0
  0
VERTEX
  8
1
 10
887.644858187262
 20
123.862327832635
 42
0.0
  0
VERTEX
  8
1
 10
888.001680002819
 20
123.403440934363
 42
0.0
  0
VERTEX
  8
1
 10
888.356633982971
 20
122.941341936606
 42
0.0
  0
VERTEX
  8
1
 10
888.709836867432
 20
122.476231595581
 42
0.0
  0
VERTEX
  8
1
 10
889.061405395913
 20
122.008310667505
 42
0.0
  0
VERTEX
  8
1
 10
889.411456308128
 20
121.537779908598
 42
0.0
  0
VERTEX
  8
1
 10
889.760106343789
 20
121.064840075077
 42
0.0
  0
VERTEX
  8
1
 10
890.10747224261
 20
120.589691923159
 42
0.0
  0
VERTEX
  8
1
 10
890.453670744303
 20
120.112536209063
 42
0.0
  0
VERTEX
  8
1
 10
890.79881858858
 20
119.633573689006
 42
0.0
  0
VERTEX
  8
1
 10
891.143032515156
 20
119.153005119207
 42
0.0
  0
VERTEX
  8
1
 10
891.486429263742
 20
118.671031255882
 42
0.0
  0
VERTEX
  8
1
 10
891.829125574051
 20
118.187852855251
 42
0.0
  0
VERTEX
  8
1
 10
892.171238185796
 20
117.70367067353
 42
0.0
  0
VERTEX
  8
1
 10
892.51288383869
 20
117.218685466938
 42
0.0
  0
VERTEX
  8
1
 10
893.536186441393
 20
115.760919260112
 42
0.0
  0
VERTEX
  8
1
 10
897.627371187198
 20
118.635324829215
 42
0.0
  0
VERTEX
  8
1
 10
895.032566826757
 20
122.309758410107
 42
0.0
  0
VERTEX
  8
1
 10
894.856903998619
 20
122.554663885247
 42
0.0
  0
VERTEX
  8
1
 10
894.679629965955
 20
122.80106920908
 42
0.0
  0
VERTEX
  8
1
 10
894.501979013272
 20
123.047203425357
 42
0.0
  0
VERTEX
  8
1
 10
894.32392921907
 20
123.293049396465
 42
0.0
  0
VERTEX
  8
1
 10
894.145458661848
 20
123.538589984786
 42
0.0
  0
VERTEX
  8
1
 10
893.966545420105
 20
123.783808052706
 42
0.0
  0
VERTEX
  8
1
 10
893.787167572338
 20
124.028686462608
 42
0.0
  0
VERTEX
  8
1
 10
893.607303197049
 20
124.273208076876
 42
0.0
  0
VERTEX
  8
1
 10
893.426930372734
 20
124.517355757895
 42
0.0
  0
VERTEX
  8
1
 10
893.245067272248
 20
124.762402510316
 42
0.0
  0
VERTEX
  8
1
 10
893.062646075704
 20
125.007034897066
 42
0.0
  0
VERTEX
  8
1
 10
892.879644692611
 20
125.251233778363
 42
0.0
  0
VERTEX
  8
1
 10
892.696041032479
 20
125.494980014422
 42
0.0
  0
VERTEX
  8
1
 10
892.511813004816
 20
125.738254465459
 42
0.0
  0
VERTEX
  8
1
 10
892.326938519134
 20
125.981037991691
 42
0.0
  0
VERTEX
  8
1
 10
892.141395484941
 20
126.223311453333
 42
0.0
  0
VERTEX
  8
1
 10
891.955161811748
 20
126.465055710602
 42
0.0
  0
VERTEX
  8
1
 10
891.767480152882
 20
126.707196934954
 42
0.0
  0
VERTEX
  8
1
 10
891.579058091305
 20
126.948763656096
 42
0.0
  0
VERTEX
  8
1
 10
891.389873560514
 20
127.189734028548
 42
0.0
  0
VERTEX
  8
1
 10
891.199904494002
 20
127.430086206827
 42
0.0
  0
VERTEX
  8
1
 10
891.009128825266
 20
127.669798345453
 42
0.0
  0
VERTEX
  8
1
 10
890.817524487801
 20
127.908848598944
 42
0.0
  0
VERTEX
  8
1
 10
890.625069415103
 20
128.147215121819
 42
0.0
  0
VERTEX
  8
1
 10
890.431741540667
 20
128.384876068596
 42
0.0
  0
VERTEX
  8
1
 10
890.236913773229
 20
128.622544391662
 42
0.0
  0
VERTEX
  8
1
 10
890.04116397818
 20
128.859455544996
 42
0.0
  0
VERTEX
  8
1
 10
889.844470568006
 20
129.095584309698
 42
0.0
  0
VERTEX
  8
1
 10
889.646811955191
 20
129.330905466869
 42
0.0
  0
VERTEX
  8
1
 10
889.44816655222
 20
129.565393797611
 42
0.0
  0
VERTEX
  8
1
 10
889.248512771578
 20
129.799024083023
 42
0.0
  0
VERTEX
  8
1
 10
889.047829025751
 20
130.031771104208
 42
0.0
  0
VERTEX
  8
1
 10
888.846093727224
 20
130.263609642267
 42
0.0
  0
VERTEX
  8
1
 10
888.665347566897
 20
130.469501305735
 42
0.0
  0
VERTEX
  8
1
 10
888.483734262706
 20
130.67463042539
 42
0.0
  0
VERTEX
  8
1
 10
888.301239527327
 20
130.878976498271
 42
0.0
  0
VERTEX
  8
1
 10
888.117849073434
 20
131.082519021415
 42
0.0
  0
VERTEX
  8
1
 10
887.933548613703
 20
131.28523749186
 42
0.0
  0
VERTEX
  8
1
 10
887.748323860809
 20
131.487111406644
 42
0.0
  0
VERTEX
  8
1
 10
887.562160527427
 20
131.688120262804
 42
0.0
  0
VERTEX
  8
1
 10
887.375044326233
 20
131.88824355738
 42
0.0
  0
VERTEX
  8
1
 10
887.186960969902
 20
132.087460787408
 42
0.0
  0
VERTEX
  8
1
 10
886.997255510143
 20
132.286419886444
 42
0.0
  0
VERTEX
  8
1
 10
886.806549439725
 20
132.48442265034
 42
0.0
  0
VERTEX
  8
1
 10
886.614830238923
 20
132.681445588197
 42
0.0
  0
VERTEX
  8
1
 10
886.422085388008
 20
132.87746520912
 42
0.0
  0
VERTEX
  8
1
 10
886.228302367254
 20
133.072458022212
 42
0.0
  0
VERTEX
  8
1
 10
886.033468656932
 20
133.266400536577
 42
0.0
  0
VERTEX
  8
1
 10
885.837571737316
 20
133.459269261319
 42
0.0
  0
VERTEX
  8
1
 10
885.640599088678
 20
133.651040705542
 42
0.0
  0
VERTEX
  8
1
 10
885.442538191291
 20
133.841691378348
 42
0.0
  0
VERTEX
  8
1
 10
885.242470390532
 20
134.032054939921
 42
0.0
  0
VERTEX
  8
1
 10
885.041282055488
 20
134.221237192614
 42
0.0
  0
VERTEX
  8
1
 10
884.838963436932
 20
134.409211502217
 42
0.0
  0
VERTEX
  8
1
 10
884.635504785636
 20
134.595951234523
 42
0.0
  0
VERTEX
  8
1
 10
884.430896352375
 20
134.781429755323
 42
0.0
  0
VERTEX
  8
1
 10
884.22512838792
 20
134.965620430408
 42
0.0
  0
VERTEX
  8
1
 10
884.018191143045
 20
135.14849662557
 42
0.0
  0
VERTEX
  8
1
 10
883.810074868524
 20
135.3300317066
 42
0.0
  0
VERTEX
  8
1
 10
883.600769815128
 20
135.51019903929
 42
0.0
  0
VERTEX
  8
1
 10
883.388924421172
 20
135.690104246692
 42
0.0
  0
VERTEX
  8
1
 10
883.175860374951
 20
135.868568795151
 42
0.0
  0
VERTEX
  8
1
 10
882.961572846105
 20
136.045564201282
 42
0.0
  0
VERTEX
  8
1
 10
882.746057004278
 20
136.221061981696
 42
0.0
  0
VERTEX
  8
1
 10
882.52930801911
 20
136.395033653005
 42
0.0
  0
VERTEX
  8
1
 10
882.311321060242
 20
136.567450731821
 42
0.0
  0
VERTEX
  8
1
 10
882.092091297318
 20
136.738284734757
 42
0.0
  0
VERTEX
  8
1
 10
881.871613899978
 20
136.907507178426
 42
0.0
  0
VERTEX
  8
1
 10
881.649884037864
 20
137.075089579438
 42
0.0
  0
VERTEX
  8
1
 10
881.424937331181
 20
137.242449918846
 42
0.0
  0
VERTEX
  8
1
 10
881.198710431075
 20
137.408080393063
 42
0.0
  0
VERTEX
  8
1
 10
880.971202578433
 20
137.571949043312
 42
0.0
  0
VERTEX
  8
1
 10
880.74241301414
 20
137.734023910814
 42
0.0
  0
VERTEX
  8
1
 10
880.512340979085
 20
137.894273036792
 42
0.0
  0
VERTEX
  8
1
 10
880.280985714155
 20
138.052664462468
 42
0.0
  0
VERTEX
  8
1
 10
880.048346460237
 20
138.209166229065
 42
0.0
  0
VERTEX
  8
1
 10
879.814422458218
 20
138.363746377805
 42
0.0
  0
VERTEX
  8
1
 10
879.579212948984
 20
138.516372949909
 42
0.0
  0
VERTEX
  8
1
 10
879.342458726413
 20
138.667178638248
 42
0.0
  0
VERTEX
  8
1
 10
879.104425052157
 20
138.81596522647
 42
0.0
  0
VERTEX
  8
1
 10
878.865121564885
 20
138.96270350916
 42
0.0
  0
VERTEX
  8
1
 10
878.624557903267
 20
139.107364280907
 42
0.0
  0
VERTEX
  8
1
 10
878.382743705972
 20
139.249918336294
 42
0.0
  0
VERTEX
  8
1
 10
878.139688611671
 20
139.390336469909
 42
0.0
  0
VERTEX
  8
1
 10
877.895402259033
 20
139.528589476337
 42
0.0
  0
VERTEX
  8
1
 10
877.649894286728
 20
139.664648150166
 42
0.0
  0
VERTEX
  8
1
 10
877.403174333426
 20
139.798483285979
 42
0.0
  0
VERTEX
  8
1
 10
877.145765487721
 20
139.935054671319
 42
0.0
  0
VERTEX
  8
1
 10
876.887098432241
 20
140.069221360938
 42
0.0
  0
VERTEX
  8
1
 10
876.627210879793
 20
140.201006737221
 42
0.0
  0
VERTEX
  8
1
 10
876.366140543188
 20
140.330434182557
 42
0.0
  0
VERTEX
  8
1
 10
876.103925135232
 20
140.457527079332
 42
0.0
  0
VERTEX
  8
1
 10
875.840602368736
 20
140.582308809933
 42
0.0
  0
VERTEX
  8
1
 10
875.576209956507
 20
140.704802756746
 42
0.0
  0
VERTEX
  8
1
 10
875.315587685198
 20
140.822880144051
 42
0.0
  0
VERTEX
  8
1
 10
875.053998731668
 20
140.938793998912
 42
0.0
  0
VERTEX
  8
1
 10
874.791471403576
 20
141.05256412506
 42
0.0
  0
VERTEX
  8
1
 10
874.528034008583
 20
141.164210326225
 42
0.0
  0
VERTEX
  8
1
 10
874.263714854348
 20
141.273752406136
 42
0.0
  0
VERTEX
  8
1
 10
873.998542248531
 20
141.381210168523
 42
0.0
  0
VERTEX
  8
1
 10
873.732544498793
 20
141.486603417117
 42
0.0
  0
VERTEX
  8
1
 10
873.467982270154
 20
141.589098142954
 42
0.0
  0
VERTEX
  8
1
 10
873.202662086088
 20
141.6896099018
 42
0.0
  0
VERTEX
  8
1
 10
872.936609565576
 20
141.788166406338
 42
0.0
  0
VERTEX
  8
1
 10
872.669850327597
 20
141.884795369254
 42
0.0
  0
VERTEX
  8
1
 10
872.402409991132
 20
141.979524503233
 42
0.0
  0
VERTEX
  8
1
 10
872.134314175163
 20
142.072381520961
 42
0.0
  0
VERTEX
  8
1
 10
871.865588498669
 20
142.163394135121
 42
0.0
  0
VERTEX
  8
1
 10
871.598128506889
 20
142.251977588427
 42
0.0
  0
VERTEX
  8
1
 10
871.330092991882
 20
142.338797828587
 42
0.0
  0
VERTEX
  8
1
 10
871.061502316235
 20
142.423883211312
 42
0.0
  0
VERTEX
  8
1
 10
870.792376842538
 20
142.507262092311
 42
0.0
  0
VERTEX
  8
1
 10
870.522736933381
 20
142.588962827293
 42
0.0
  0
VERTEX
  8
1
 10
870.252602951352
 20
142.669013771969
 42
0.0
  0
VERTEX
  8
1
 10
869.98199525904
 20
142.747443282046
 42
0.0
  0
VERTEX
  8
1
 10
869.712536838549
 20
142.82383047305
 42
0.0
  0
VERTEX
  8
1
 10
869.442646702702
 20
142.898672607244
 42
0.0
  0
VERTEX
  8
1
 10
869.172341141183
 20
142.971998932438
 42
0.0
  0
VERTEX
  8
1
 10
868.901636443674
 20
143.043838696442
 42
0.0
  0
VERTEX
  8
1
 10
868.630548899858
 20
143.114221147066
 42
0.0
  0
VERTEX
  8
1
 10
868.359094799419
 20
143.183175532122
 42
0.0
  0
VERTEX
  8
1
 10
868.087290432039
 20
143.25073109942
 42
0.0
  0
VERTEX
  8
1
 10
867.816598724263
 20
143.3165689281
 42
0.0
  0
VERTEX
  8
1
 10
867.545589213618
 20
143.38108064026
 42
0.0
  0
VERTEX
  8
1
 10
867.274274533911
 20
143.444295170152
 42
0.0
  0
VERTEX
  8
1
 10
867.002667318946
 20
143.506241452029
 42
0.0
  0
VERTEX
  8
1
 10
866.730780202532
 20
143.566948420144
 42
0.0
  0
VERTEX
  8
1
 10
866.458625818474
 20
143.626445008748
 42
0.0
  0
VERTEX
  8
1
 10
866.186216800579
 20
143.684760152095
 42
0.0
  0
VERTEX
  8
1
 10
865.914974915458
 20
143.741630256565
 42
0.0
  0
VERTEX
  8
1
 10
865.643503200032
 20
143.797387987222
 42
0.0
  0
VERTEX
  8
1
 10
865.371811329296
 20
143.852061600254
 42
0.0
  0
VERTEX
  8
1
 10
865.099908978247
 20
143.90567935185
 42
0.0
  0
VERTEX
  8
1
 10
864.827805821881
 20
143.958269498196
 42
0.0
  0
VERTEX
  8
1
 10
864.555511535192
 20
144.009860295481
 42
0.0
  0
VERTEX
  8
1
 10
864.283035793178
 20
144.060479999893
 42
0.0
  0
VERTEX
  8
1
 10
864.011877066035
 20
144.109888056127
 42
0.0
  0
VERTEX
  8
1
 10
863.740555754612
 20
144.158390892313
 42
0.0
  0
VERTEX
  8
1
 10
863.469079184169
 20
144.206015857036
 42
0.0
  0
VERTEX
  8
1
 10
863.197454679966
 20
144.252790298877
 42
0.0
  0
VERTEX
  8
1
 10
862.925689567263
 20
144.298741566422
 42
0.0
  0
VERTEX
  8
1
 10
862.653791171319
 20
144.343897008251
 42
0.0
  0
VERTEX
  8
1
 10
862.381766817395
 20
144.38828397295
 42
0.0
  0
VERTEX
  8
1
 10
862.111302179762
 20
144.431662797857
 42
0.0
  0
VERTEX
  8
1
 10
861.840725917121
 20
144.474336045205
 42
0.0
  0
VERTEX
  8
1
 10
861.570043578505
 20
144.516330153264
 42
0.0
  0
VERTEX
  8
1
 10
861.299260712951
 20
144.5576715603
 42
0.0
  0
VERTEX
  8
1
 10
861.028382869492
 20
144.598386704584
 42
0.0
  0
VERTEX
  8
1
 10
860.757415597165
 20
144.638502024384
 42
0.0
  0
VERTEX
  8
1
 10
860.486364445003
 20
144.678043957968
 42
0.0
  0
VERTEX
  8
1
 10
860.1723337862
 20
144.723159726813
 42
0.0
  0
VERTEX
  8
1
 10
859.85820485373
 20
144.767582547488
 42
0.0
  0
VERTEX
  8
1
 10
859.543984449914
 20
144.811353169135
 42
0.0
  0
VERTEX
  8
1
 10
859.229679377076
 20
144.854512340899
 42
0.0
  0
VERTEX
  8
1
 10
858.915296437536
 20
144.897100811922
 42
0.0
  0
VERTEX
  8
1
 10
858.600842433618
 20
144.939159331347
 42
0.0
  0
VERTEX
  8
1
 10
858.289053744405
 20
144.98036990188
 42
0.0
  0
VERTEX
  8
1
 10
857.977207417682
 20
145.021139538001
 42
0.0
  0
VERTEX
  8
1
 10
857.665308967456
 20
145.061508053637
 42
0.0
  0
VERTEX
  8
1
 10
857.353363907734
 20
145.101515262716
 42
0.0
  0
VERTEX
  8
1
 10
857.041377752523
 20
145.141200979167
 42
0.0
  0
VERTEX
  8
1
 10
855.798091778866
 20
145.296912778055
 42
0.0
  0
VERTEX
  8
1
 10
855.817458471132
 20
145.933258241832
 42
0.0
  0
VERTEX
  8
1
 10
856.42039586994
 20
150.792398665519
 42
0.0
  0
VERTEX
  8
1
 10
857.361076217533
 20
155.542557605009
 42
0.0
  0
VERTEX
  8
1
 10
858.566499656348
 20
160.200308263569
 42
0.0
  0
VERTEX
  8
1
 10
859.963666328825
 20
164.782223844462
 42
0.0
  0
VERTEX
  8
1
 10
861.479576377401
 20
169.304877550955
 42
0.0
  0
VERTEX
  8
1
 10
863.041229944514
 20
173.784842586312
 42
0.0
  0
VERTEX
  8
1
 10
864.575627172603
 20
178.238692153799
 42
0.0
  0
VERTEX
  8
1
 10
866.009768204105
 20
182.682999456679
 42
0.0
  0
VERTEX
  8
1
 10
867.270653181458
 20
187.134337698219
 42
0.0
  0
VERTEX
  8
1
 10
868.285282247101
 20
191.609280081684
 42
0.0
  0
VERTEX
  8
1
 10
868.980655543471
 20
196.124399810337
 42
0.0
  0
VERTEX
  8
1
 10
869.283773213006
 20
200.696270087445
 42
0.0
  0
VERTEX
  8
1
 10
869.167594665126
 20
204.936795463875
 42
0.0
  0
VERTEX
  8
1
 10
868.679700929709
 20
209.209854664924
 42
0.0
  0
VERTEX
  8
1
 10
867.837966389516
 20
213.486582628186
 42
0.0
  0
VERTEX
  8
1
 10
866.660265427304
 20
217.738114291256
 42
0.0
  0
VERTEX
  8
1
 10
865.164472425832
 20
221.935584591726
 42
0.0
  0
VERTEX
  8
1
 10
863.368461767858
 20
226.05012846719
 42
0.0
  0
VERTEX
  8
1
 10
861.290107836141
 20
230.052880855242
 42
0.0
  0
VERTEX
  8
1
 10
858.947285013438
 20
233.914976693476
 42
0.0
  0
VERTEX
  8
1
 10
856.357867682509
 20
237.607550919485
 42
0.0
  0
VERTEX
  8
1
 10
853.539730226112
 20
241.101738470863
 42
0.0
  0
VERTEX
  8
1
 10
850.510747027004
 20
244.368674285203
 42
0.0
  0
VERTEX
  8
1
 10
847.288792467946
 20
247.379493300099
 42
0.0
  0
VERTEX
  8
1
 10
845.641937318458
 20
248.755905048025
 42
0.0
  0
VERTEX
  8
1
 10
843.954818199231
 20
250.065684939996
 42
0.0
  0
VERTEX
  8
1
 10
842.229365578679
 20
251.310875346984
 42
0.0
  0
VERTEX
  8
1
 10
840.467509925221
 20
252.49351863996
 42
0.0
  0
VERTEX
  8
1
 10
838.671181707272
 20
253.615657189894
 42
0.0
  0
VERTEX
  8
1
 10
836.842311393249
 20
254.679333367756
 42
0.0
  0
VERTEX
  8
1
 10
834.982829451569
 20
255.686589544519
 42
0.0
  0
VERTEX
  8
1
 10
833.094666350648
 20
256.639468091153
 42
0.0
  0
VERTEX
  8
1
 10
831.179752558902
 20
257.540011378629
 42
0.0
  0
VERTEX
  8
1
 10
829.240018544749
 20
258.390261777917
 42
0.0
  0
VERTEX
  8
1
 10
827.277394776604
 20
259.192261659988
 42
0.0
  0
VERTEX
  8
1
 10
825.293811722885
 20
259.948053395814
 42
0.0
  0
VERTEX
  8
1
 10
815.694966315254
 20
262.920477731788
 42
0.0
  0
VERTEX
  8
1
 10
805.762035887127
 20
264.938645534266
 42
0.0
  0
VERTEX
  8
1
 10
795.584247442286
 20
266.030805045539
 42
0.0
  0
VERTEX
  8
1
 10
785.250827984512
 20
266.225204507899
 42
0.0
  0
VERTEX
  8
1
 10
774.851004517587
 20
265.550092163636
 42
0.0
  0
VERTEX
  8
1
 10
764.474004045292
 20
264.033716255042
 42
0.0
  0
VERTEX
  8
1
 10
754.209053571409
 20
261.70432502441
 42
0.0
  0
VERTEX
  8
1
 10
744.145380099719
 20
258.59016671403
 42
0.0
  0
VERTEX
  8
1
 10
734.372210634003
 20
254.719489566194
 42
0.0
  0
VERTEX
  8
1
 10
724.978772178044
 20
250.120541823193
 42
0.0
  0
VERTEX
  8
1
 10
716.054291735623
 20
244.821571727319
 42
0.0
  0
VERTEX
  8
1
 10
707.68799631052
 20
238.850827520864
 42
0.0
  0
VERTEX
  8
1
 10
704.955819547212
 20
236.647000465898
 42
0.0
  0
VERTEX
  8
1
 10
702.304587135301
 20
234.367222147945
 42
0.0
  0
VERTEX
  8
1
 10
699.738662900432
 20
232.01166214781
 42
0.0
  0
VERTEX
  8
1
 10
697.262410668248
 20
229.580490046302
 42
0.0
  0
VERTEX
  8
1
 10
694.880194264396
 20
227.073875424226
 42
0.0
  0
VERTEX
  8
1
 10
692.596377514518
 20
224.491987862389
 42
0.0
  0
VERTEX
  8
1
 10
690.415324244261
 20
221.834996941599
 42
0.0
  0
VERTEX
  8
1
 10
688.341398279268
 20
219.103072242662
 42
0.0
  0
VERTEX
  8
1
 10
686.378963445184
 20
216.296383346384
 42
0.0
  0
VERTEX
  8
1
 10
684.532383567655
 20
213.415099833573
 42
0.0
  0
VERTEX
  8
1
 10
682.806022472323
 20
210.459391285036
 42
0.0
  0
VERTEX
  8
1
 10
681.204243984835
 20
207.429427281578
 42
0.0
  0
VERTEX
  8
1
 10
677.015891436513
 20
197.495239420307
 42
0.0
  0
VERTEX
  8
1
 10
674.04310204029
 20
186.975948302698
 42
0.0
  0
SEQEND
  0
POLYLINE
  8
1
 66
     1
 10
0.0
 20
0.0
 30
0.0
 70
     1
  0
VERTEX
  8
1
 10
606.039446491253
 20
168.455573455583
 42
0.0
  0
VERTEX
  8
1
 10
604.584346573973
 20
167.866642160813
 42
0.0
  0
VERTEX
  8
1
 10
603.21453321768
 20
167.099982387416
 42
0.0
  0
VERTEX
  8
1
 10
601.951609197288
 20
166.167684817998
 42
0.0
  0
VERTEX
  8
1
 10
600.815491579032
 20
165.084452342157
 42
0.0
  0
VERTEX
  8
1
 10
599.824097616438
 20
163.867368183129
 42
0.0
  0
VERTEX
  8
1
 10
598.993062184525
 20
162.535626485152
 42
0.0
  0
VERTEX
  8
1
 10
598.335491208491
 20
161.110229610347
 42
0.0
  0
VERTEX
  8
1
 10
597.861754975441
 20
159.613656918921
 42
0.0
  0
VERTEX
  8
1
 10
597.579324588767
 20
158.069510256227
 42
0.0
  0
VERTEX
  8
1
 10
597.492654144384
 20
156.502141737565
 42
0.0
  0
VERTEX
  8
1
 10
597.603110486972
 20
154.936269700772
 42
0.0
  0
VERTEX
  8
1
 10
597.908951654026
 20
153.396588883278
 42
0.0
  0
VERTEX
  8
1
 10
598.405354347641
 20
151.907380971333
 42
0.0
  0
VERTEX
  8
1
 10
599.084490000803
 20
150.492131663321
 42
0.0
  0
VERTEX
  8
1
 10
599.935648238564
 20
149.173160286256
 42
0.0
  0
VERTEX
  8
1
 10
600.945405787058
 20
147.97126780667
 42
0.0
  0
VERTEX
  8
1
 10
602.097838166545
 20
146.905408786942
 42
0.0
  0
VERTEX
  8
1
 10
603.374770829972
 20
145.992392460527
 42
0.0
  0
VERTEX
  8
1
 10
604.756065786432
 20
145.246617640301
 42
0.0
  0
VERTEX
  8
1
 10
606.219939189318
 20
144.679845640685
 42
0.0
  0
VERTEX
  8
1
 10
607.74330488059
 20
144.301014794684
 42
0.0
  0
VERTEX
  8
1
 10
609.302138473282
 20
144.116099491044
 42
0.0
  0
VERTEX
  8
1
 10
610.871856230435
 20
144.128015954564
 42
0.0
  0
VERTEX
  8
1
 10
612.427702765316
 20
144.336576255499
 42
0.0
  0
VERTEX
  8
1
 10
613.945141448651
 20
144.738491273313
 42
0.0
  0
VERTEX
  8
1
 10
615.40024136593
 20
145.327422568083
 42
0.0
  0
VERTEX
  8
1
 10
616.770054722224
 20
146.09408234148
 42
0.0
  0
VERTEX
  8
1
 10
618.032978742616
 20
147.026379910898
 42
0.0
  0
VERTEX
  8
1
 10
619.169096360871
 20
148.109612386738
 42
0.0
  0
VERTEX
  8
1
 10
620.160490323465
 20
149.326696545767
 42
0.0
  0
VERTEX
  8
1
 10
620.991525755378
 20
150.658438243743
 42
0.0
  0
VERTEX
  8
1
 10
621.649096731413
 20
152.083835118548
 42
0.0
  0
VERTEX
  8
1
 10
622.122832964462
 20
153.580407809974
 42
0.0
  0
VERTEX
  8
1
 10
622.405263351136
 20
155.124554472668
 42
0.0
  0
VERTEX
  8
1
 10
622.49193379552
 20
156.691922991331
 42
0.0
  0
VERTEX
  8
1
 10
622.381477452932
 20
158.257795028123
 42
0.0
  0
VERTEX
  8
1
 10
622.075636285877
 20
159.797475845618
 42
0.0
  0
VERTEX
  8
1
 10
621.579233592262
 20
161.286683757562
 42
0.0
  0
VERTEX
  8
1
 10
620.900097939101
 20
162.701933065575
 42
0.0
  0
VERTEX
  8
1
 10
620.048939701339
 20
164.02090444264
 42
0.0
  0
VERTEX
  8
1
 10
619.039182152845
 20
165.222796922226
 42
0.0
  0
VERTEX
  8
1
 10
617.886749773358
 20
166.288655941953
 42
0.0
  0
VERTEX
  8
1
 10
616.609817109932
 20
167.201672268368
 42
0.0
  0
VERTEX
  8
1
 10
615.228522153471
 20
167.947447088594
 42
0.0
  0
VERTEX
  8
1
 10
613.764648750585
 20
168.514219088211
 42
0.0
  0
VERTEX
  8
1
 10
612.241283059314
 20
168.893049934211
 42
0.0
  0
VERTEX
  8
1
 10
610.682449466622
 20
169.077965237852
 42
0.0
  0
VERTEX
  8
1
 10
609.112731709468
 20
169.066048774331
 42
0.0
  0
VERTEX
  8
1
 10
607.556885174587
 20
168.857488473397
 42
0.0
  0
SEQEND
  0
POLYLINE
  8
1
 66
     1
 10
0.0
 20
0.0
 30
0.0
 70
     1
  0
VERTEX
  8
1
 10
838.731375552239
 20
228.858260318559
 42
0.0
  0
VERTEX
  8
1
 10
838.731375552239
 20
80.8582603185586
 42
0.0
  0
VERTEX
  8
1
 10
710.731375552239
 20
80.8582603185586
 42
0.0
  0
VERTEX
  8
1
 10
710.731375552239
 20
228.858260318559
 42
0.0
  0
SEQEND
  0
POLYLINE
  8
1
 66
     1
 10
0.0
 20
0.0
 30
0.0
 70
     1
  0
VERTEX
  8
1
 10
619.887711366743
 20
95.6982572621951
 42
0.0
  0
VERTEX
  8
1
 10
611.887711366743
 20
95.6982572621946
 42
0.0
  0
VERTEX
  8
1
 10
611.887711366743
 20
115.698257262195
 42
0.0
  0
VERTEX
  8
1
 10
619.887711366743
 20
115.698257262195
 42
0.0
  0
SEQEND
  0
POLYLINE
  8
1
 66
     1
 10
0.0
 20
0.0
 30
0.0
 70
     0
  0
VERTEX
  8
1
 10
619.887711366743
 20
85.7089812740977
 42
0.0
  0
VERTEX
  8
1
 10
669.887711366743
 20
85.7089812740977
 42
0.0
  0
VERTEX
  8
1
 10
669.887711366743
 20
125.708981274098
 42
0.0
  0
VERTEX
  8
1
 10
561.869159294975
 20
125.708981274097
 42
0.0
  0
VERTEX
  8
1
 10
561.869159294975
 20
130.707533250293
 42
0.0
  0
VERTEX
  8
1
 10
511.869159294975
 20
130.707533250293
 42
0.0
  0
VERTEX
  8
1
 10
511.869159294975
 20
125.708981274097
 42
0.0
  0
VERTEX
  8
1
 10
461.869159294975
 20
125.708981274097
 42
0.0
  0
VERTEX
  8
1
 10
461.869159294975
 20
130.707533250293
 42
0.0
  0
VERTEX
  8
1
 10
411.869159294975
 20
130.707533250293
 42
0.0
  0
VERTEX
  8
1
 10
411.869159294975
 20
125.708981274097
 42
0.0
  0
VERTEX
  8
1
 10
361.869159294975
 20
125.708981274097
 42
0.0
  0
VERTEX
  8
1
 10
361.869159294975
 20
130.707533250293
 42
0.0
  0
VERTEX
  8
1
 10
311.869159294975
 20
130.707533250293
 42
0.0
  0
VERTEX
  8
1
 10
311.869159294975
 20
125.708981274096
 42
0.0
  0
VERTEX
  8
1
 10
261.869159294975
 20
125.708981274096
 42
0.0
  0
VERTEX
  8
1
 10
261.869159294975
 20
130.707533250293
 42
0.0
  0
VERTEX
  8
1
 10
231.867103815349
 20
130.708257262195
 42
0.0
  0
VERTEX
  8
1
 10
226.110256204117
 20
130.815787292262
 42
0.0
  0
VERTEX
  8
1
 10
220.369187712034
 20
131.140252701366
 42
0.0
  0
VERTEX
  8
1
 10
214.659634208779
 20
131.680040140471
 42
0.0
  0
VERTEX
  8
1
 10
208.99724518364
 20
132.433670089727
 42
0.0
  0
VERTEX
  8
1
 10
203.397540851346
 20
133.399076901827
 42
0.0
  0
VERTEX
  8
1
 10
197.875869612241
 20
134.573614463803
 42
0.0
  0
VERTEX
  8
1
 10
192.447365983385
 20
135.954063449841
 42
0.0
  0
VERTEX
  8
1
 10
187.126909115894
 20
137.536640145221
 42
0.0
  0
VERTEX
  8
1
 10
181.929082012222
 20
139.317006817227
 42
0.0
  0
VERTEX
  8
1
 10
176.868131555162
 20
141.290283604562
 42
0.0
  0
VERTEX
  8
1
 10
171.957929458136
 20
143.451061892713
 42
0.0
  0
VERTEX
  8
1
 10
167.211934243788
 20
145.793419138585
 42
0.0
  0
VERTEX
  8
1
 10
162.643154355109
 20
148.310935103783
 42
0.0
  0
VERTEX
  8
1
 10
158.264112500203
 20
150.996709452037
 42
0.0
  0
VERTEX
  8
1
 10
154.086811328411
 20
153.843380662544
 42
0.0
  0
VERTEX
  8
1
 10
150.122700531884
 20
156.843146207386
 42
0.0
  0
VERTEX
  8
1
 10
146.382645462772
 20
159.987783937715
 42
0.0
  0
VERTEX
  8
1
 10
142.876897352054
 20
163.268674620094
 42
0.0
  0
VERTEX
  8
1
 10
139.615065211618
 20
166.676825561214
 42
0.0
  0
VERTEX
  8
1
 10
136.606089496634
 20
170.202895256244
 42
0.0
  0
VERTEX
  8
1
 10
133.858217600386
 20
173.837218993243
 42
0.0
  0
VERTEX
  8
1
 10
131.378981248739
 20
177.569835343467
 42
0.0
  0
VERTEX
  8
1
 10
129.175175856203
 20
181.390513464951
 42
0.0
  0
VERTEX
  8
1
 10
127.252841900174
 20
185.288781144536
 42
0.0
  0
VERTEX
  8
1
 10
125.617248364408
 20
189.253953501477
 42
0.0
  0
VERTEX
  8
1
 10
124.272878297095
 20
193.275162273961
 42
0.0
  0
VERTEX
  8
1
 10
123.223416523145
 20
197.341385608252
 42
0.0
  0
VERTEX
  8
1
 10
122.471739544332
 20
201.441478268831
 42
0.0
  0
VERTEX
  8
1
 10
122.077955446012
 20
204.691536884044
 42
0.0
  0
VERTEX
  8
1
 10
122.077527083882
 20
204.7569848619
 42
0.0
  0
VERTEX
  8
1
 10
122.07624207089
 20
204.822421625583
 42
0.0
  0
VERTEX
  8
1
 10
122.074100627215
 20
204.887835962839
 42
0.0
  0
VERTEX
  8
1
 10
122.071103119784
 20
204.953216665258
 42
0.0
  0
VERTEX
  8
1
 10
122.067250062205
 20
205.018552530194
 42
0.0
  0
VERTEX
  8
1
 10
122.062542114677
 20
205.083832362683
 42
0.0
  0
VERTEX
  8
1
 10
122.056980083885
 20
205.14904497736
 42
0.0
  0
VERTEX
  8
1
 10
122.050564922853
 20
205.214179200382
 42
0.0
  0
VERTEX
  8
1
 10
122.043297730786
 20
205.279223871333
 42
0.0
  0
VERTEX
  8
1
 10
122.035179752881
 20
205.344167845144
 42
0.0
  0
VERTEX
  8
1
 10
122.02621238011
 20
205.408999993999
 42
0.0
  0
VERTEX
  8
1
 10
122.016397148987
 20
205.473709209245
 42
0.0
  0
VERTEX
  8
1
 10
122.005735741302
 20
205.538284403289
 42
0.0
  0
VERTEX
  8
1
 10
121.994229983832
 20
205.602714511504
 42
0.0
  0
VERTEX
  8
1
 10
121.981881848028
 20
205.666988494124
 42
0.0
  0
VERTEX
  8
1
 10
121.968693449681
 20
205.731095338132
 42
0.0
  0
VERTEX
  8
1
 10
121.954667048554
 20
205.795024059151
 42
0.0
  0
VERTEX
  8
1
 10
121.939805048
 20
205.858763703323
 42
0.0
  0
VERTEX
  8
1
 10
121.924109994546
 20
205.922303349188
 42
0.0
  0
VERTEX
  8
1
 10
121.907584577457
 20
205.985632109556
 42
0.0
  0
VERTEX
  8
1
 10
121.89023162828
 20
206.048739133369
 42
0.0
  0
VERTEX
  8
1
 10
121.872054120353
 20
206.111613607563
 42
0.0
  0
VERTEX
  8
1
 10
121.853055168298
 20
206.174244758921
 42
0.0
  0
VERTEX
  8
1
 10
121.833238027487
 20
206.236621855918
 42
0.0
  0
VERTEX
  8
1
 10
121.812606093487
 20
206.298734210559
 42
0.0
  0
VERTEX
  8
1
 10
121.791162901473
 20
206.360571180212
 42
0.0
  0
VERTEX
  8
1
 10
121.768912125624
 20
206.422122169431
 42
0.0
  0
VERTEX
  8
1
 10
121.745857578498
 20
206.48337663177
 42
0.0
  0
VERTEX
  8
1
 10
121.722003210371
 20
206.544324071593
 42
0.0
  0
VERTEX
  8
1
 10
121.697353108568
 20
206.604954045869
 42
0.0
  0
VERTEX
  8
1
 10
121.671911496756
 20
206.665256165965
 42
0.0
  0
VERTEX
  8
1
 10
121.645682734225
 20
206.725220099423
 42
0.0
  0
VERTEX
  8
1
 10
121.618671315137
 20
206.784835571731
 42
0.0
  0
VERTEX
  8
1
 10
121.590881867761
 20
206.844092368085
 42
0.0
  0
VERTEX
  8
1
 10
121.562319153675
 20
206.902980335138
 42
0.0
  0
VERTEX
  8
1
 10
121.532988066954
 20
206.961489382741
 42
0.0
  0
VERTEX
  8
1
 10
121.502893633327
 20
207.019609485669
 42
0.0
  0
VERTEX
  8
1
 10
121.472041009322
 20
207.077330685342
 42
0.0
  0
VERTEX
  8
1
 10
121.440435481376
 20
207.134643091528
 42
0.0
  0
VERTEX
  8
1
 10
121.408082464934
 20
207.191536884044
 42
0.0
  0
VERTEX
  8
1
 10
121.374987503519
 20
207.248002314429
 42
0.0
  0
VERTEX
  8
1
 10
121.341156267782
 20
207.304029707623
 42
0.0
  0
VERTEX
  8
1
 10
121.306594554532
 20
207.359609463622
 42
0.0
  0
VERTEX
  8
1
 10
121.271308285739
 20
207.414732059119
 42
0.0
  0
VERTEX
  8
1
 10
121.235303507525
 20
207.469388049141
 42
0.0
  0
VERTEX
  8
1
 10
121.198586389122
 20
207.523568068668
 42
0.0
  0
VERTEX
  8
1
 10
121.16116322182
 20
207.57726283423
 42
0.0
  0
VERTEX
  8
1
 10
121.123040417887
 20
207.630463145506
 42
0.0
  0
VERTEX
  8
1
 10
121.084224509467
 20
207.683159886897
 42
0.0
  0
VERTEX
  8
1
 10
121.044722147468
 20
207.735344029087
 42
0.0
  0
VERTEX
  8
1
 10
121.004540100415
 20
207.787006630593
 42
0.0
  0
VERTEX
  8
1
 10
120.963685253297
 20
207.838138839293
 42
0.0
  0
VERTEX
  8
1
 10
120.922164606379
 20
207.888731893946
 42
0.0
  0
VERTEX
  8
1
 10
120.879985274012
 20
207.938777125694
 42
0.0
  0
VERTEX
  8
1
 10
120.837154483407
 20
207.988265959544
 42
0.0
  0
VERTEX
  8
1
 10
120.793679573399
 20
208.037189915838
 42
0.0
  0
VERTEX
  8
1
 10
120.74956799319
 20
208.085540611708
 42
0.0
  0
VERTEX
  8
1
 10
120.704827301073
 20
208.133309762512
 42
0.0
  0
VERTEX
  8
1
 10
120.659465163135
 20
208.180489183252
 42
0.0
  0
VERTEX
  8
1
 10
120.613489351944
 20
208.227070789976
 42
0.0
  0
VERTEX
  8
1
 10
120.56690774522
 20
208.273046601167
 42
0.0
  0
VERTEX
  8
1
 10
120.519728324481
 20
208.318408739105
 42
0.0
  0
VERTEX
  8
1
 10
120.471959173676
 20
208.363149431222
 42
0.0
  0
VERTEX
  8
1
 10
120.423608477806
 20
208.40726101143
 42
0.0
  0
VERTEX
  8
1
 10
120.374684521512
 20
208.450735921438
 42
0.0
  0
VERTEX
  8
1
 10
120.325195687663
 20
208.493566712044
 42
0.0
  0
VERTEX
  8
1
 10
120.275150455915
 20
208.535746044411
 42
0.0
  0
VERTEX
  8
1
 10
120.224557401261
 20
208.577266691328
 42
0.0
  0
VERTEX
  8
1
 10
120.173425192561
 20
208.618121538447
 42
0.0
  0
VERTEX
  8
1
 10
120.121762591055
 20
208.6583035855
 42
0.0
  0
VERTEX
  8
1
 10
120.069578448865
 20
208.697805947499
 42
0.0
  0
VERTEX
  8
1
 10
120.016881707474
 20
208.736621855918
 42
0.0
  0
VERTEX
  8
1
 10
119.963681396198
 20
208.774744659852
 42
0.0
  0
VERTEX
  8
1
 10
119.909986630636
 20
208.812167827154
 42
0.0
  0
VERTEX
  8
1
 10
119.85580661111
 20
208.848884945556
 42
0.0
  0
VERTEX
  8
1
 10
119.801150621087
 20
208.884889723771
 42
0.0
  0
VERTEX
  8
1
 10
119.74602802559
 20
208.920175992563
 42
0.0
  0
VERTEX
  8
1
 10
119.690448269592
 20
208.954737705814
 42
0.0
  0
VERTEX
  8
1
 10
119.634420876397
 20
208.988568941551
 42
0.0
  0
VERTEX
  8
1
 10
119.577955446012
 20
209.021663902966
 42
0.0
  0
VERTEX
  8
1
 10
119.521061653497
 20
209.054016919408
 42
0.0
  0
VERTEX
  8
1
 10
119.46374924731
 20
209.085622447353
 42
0.0
  0
VERTEX
  8
1
 10
119.406028047637
 20
209.116475071359
 42
0.0
  0
VERTEX
  8
1
 10
119.34790794471
 20
209.146569504985
 42
0.0
  0
VERTEX
  8
1
 10
119.289398897107
 20
209.175900591707
 42
0.0
  0
VERTEX
  8
1
 10
119.230510930053
 20
209.204463305793
 42
0.0
  0
VERTEX
  8
1
 10
119.171254133699
 20
209.232252753169
 42
0.0
  0
VERTEX
  8
1
 10
119.111638661391
 20
209.259264172257
 42
0.0
  0
VERTEX
  8
1
 10
119.051674727933
 20
209.285492934788
 42
0.0
  0
VERTEX
  8
1
 10
118.991372607837
 20
209.3109345466
 42
0.0
  0
VERTEX
  8
1
 10
118.930742633561
 20
209.335584648403
 42
0.0
  0
VERTEX
  8
1
 10
118.869795193738
 20
209.35943901653
 42
0.0
  0
VERTEX
  8
1
 10
118.808540731399
 20
209.382493563656
 42
0.0
  0
VERTEX
  8
1
 10
118.746989742181
 20
209.404744339504
 42
0.0
  0
VERTEX
  8
1
 10
118.685152772528
 20
209.426187531519
 42
0.0
  0
VERTEX
  8
1
 10
118.623040417887
 20
209.446819465519
 42
0.0
  0
VERTEX
  8
1
 10
118.56066332089
 20
209.46663660633
 42
0.0
  0
VERTEX
  8
1
 10
118.498032169531
 20
209.485635558384
 42
0.0
  0
VERTEX
  8
1
 10
118.435157695337
 20
209.503813066312
 42
0.0
  0
VERTEX
  8
1
 10
118.372050671524
 20
209.521166015489
 42
0.0
  0
VERTEX
  8
1
 10
118.308721911157
 20
209.537691432577
 42
0.0
  0
VERTEX
  8
1
 10
118.245182265291
 20
209.553386486032
 42
0.0
  0
VERTEX
  8
1
 10
118.181442621119
 20
209.568248486586
 42
0.0
  0
VERTEX
  8
1
 10
118.117513900101
 20
209.582274887713
 42
0.0
  0
VERTEX
  8
1
 10
118.053407056092
 20
209.59546328606
 42
0.0
  0
VERTEX
  8
1
 10
117.989133073473
 20
209.607811421863
 42
0.0
  0
VERTEX
  8
1
 10
117.924702965257
 20
209.619317179334
 42
0.0
  0
VERTEX
  8
1
 10
117.860127771213
 20
209.629978587019
 42
0.0
  0
VERTEX
  8
1
 10
117.795418555968
 20
209.639793818142
 42
0.0
  0
VERTEX
  8
1
 10
117.730586407112
 20
209.648761190913
 42
0.0
  0
VERTEX
  8
1
 10
117.665642433301
 20
209.656879168818
 42
0.0
  0
VERTEX
  8
1
 10
117.60059776235
 20
209.664146360885
 42
0.0
  0
VERTEX
  8
1
 10
117.535463539329
 20
209.670561521917
 42
0.0
  0
VERTEX
  8
1
 10
117.470250924651
 20
209.676123552709
 42
0.0
  0
VERTEX
  8
1
 10
117.404971092163
 20
209.680831500237
 42
0.0
  0
VERTEX
  8
1
 10
111.869159294975
 20
209.690947654023
 42
0.0
  0
VERTEX
  8
1
 10
111.869158341301
 20
165.698257262195
 42
0.0
  0
VERTEX
  8
1
 10
107.869159294975
 20
165.698257262195
 42
0.0
  0
VERTEX
  8
1
 10
107.869159294975
 20
205.698257262195
 42
0.0
  0
VERTEX
  8
1
 10
87.8691592949749
 20
205.698257262195
 42
0.0
  0
VERTEX
  8
1
 10
87.8691592949749
 20
209.698257262195
 42
0.0
  0
VERTEX
  8
1
 10
67.8691592949749
 20
209.698257262195
 42
0.0
  0
VERTEX
  8
1
 10
67.8691592949749
 20
205.698257262195
 42
0.0
  0
VERTEX
  8
1
 10
47.8691592949749
 20
205.698257262195
 42
0.0
  0
VERTEX
  8
1
 10
47.8691592949747
 20
209.698257262195
 42
0.0
  0
VERTEX
  8
1
 10
27.8691592949741
 20
209.698257262195
 42
0.0
  0
VERTEX
  8
1
 10
27.8691592949749
 20
205.698257262195
 42
0.0
  0
VERTEX
  8
1
 10
7.869159294975
 20
205.698257262195
 42
0.0
  0
VERTEX
  8
1
 10
7.8691592949749
 20
165.698257262195
 42
0.0
  0
VERTEX
  8
1
 10
3.8691592949749
 20
165.698257262195
 42
0.0
  0
VERTEX
  8
1
 10
3.8691592949749
 20
125.689309967312
 42
0.0
  0
VERTEX
  8
1
 10
7.8602120000923
 20
125.689309967312
 42
0.0
  0
VERTEX
  8
1
 10
7.8602120000923
 20
85.689309967312
 42
0.0
  0
VERTEX
  8
1
 10
3.8691592949749
 20
85.6893099673119
 42
0.0
  0
VERTEX
  8
1
 10
3.8691592949749
 20
45.6982572621946
 42
0.0
  0
VERTEX
  8
1
 10
7.8691592949749
 20
45.6982572621946
 42
0.0
  0
VERTEX
  8
1
 10
7.869159294975
 20
5.6982572621946
 42
0.0
  0
VERTEX
  8
1
 10
27.8691592949749
 20
5.6982572621946
 42
0.0
  0
VERTEX
  8
1
 10
27.869159294975
 20
1.6982572621946
 42
0.0
  0
VERTEX
  8
1
 10
47.869159294975
 20
1.6982572621946
 42
0.0
  0
VERTEX
  8
1
 10
47.8691592949749
 20
5.6982572621946
 42
0.0
  0
VERTEX
  8
1
 10
67.8691592949749
 20
5.6982572621946
 42
0.0
  0
VERTEX
  8
1
 10
67.8691592949749
 20
1.6982572621946
 42
0.0
  0
VERTEX
  8
1
 10
87.8691592949749
 20
1.6982572621946
 42
0.0
  0
VERTEX
  8
1
 10
87.8691592949749
 20
5.6982572621946
 42
0.0
  0
VERTEX
  8
1
 10
107.869159294975
 20
5.6982572621946
 42
0.0
  0
VERTEX
  8
1
 10
107.869159294975
 20
45.6982572621946
 42
0.0
  0
VERTEX
  8
1
 10
111.869159294975
 20
45.6982572621946
 42
0.0
  0
VERTEX
  8
1
 10
111.869159294975
 20
1.7011763747652
 42
0.0
  0
VERTEX
  8
1
 10
117.274254524807
 20
1.7088324591422
 42
0.0
  0
VERTEX
  8
1
 10
117.339635227226
 20
1.7118299665729
 42
0.0
  0
VERTEX
  8
1
 10
117.404971092162
 20
1.7156830241528
 42
0.0
  0
VERTEX
  8
1
 10
117.470250924651
 20
1.7203909716801
 42
0.0
  0
VERTEX
  8
1
 10
117.535463539329
 20
1.7259530024725
 42
0.0
  0
VERTEX
  8
1
 10
117.60059776235
 20
1.7323681635044
 42
0.0
  0
VERTEX
  8
1
 10
117.665642433301
 20
1.7396353555712
 42
0.0
  0
VERTEX
  8
1
 10
117.730586407112
 20
1.7477533334767
 42
0.0
  0
VERTEX
  8
1
 10
117.795418555968
 20
1.7567207062474
 42
0.0
  0
VERTEX
  8
1
 10
117.860127771213
 20
1.7665359373701
 42
0.0
  0
VERTEX
  8
1
 10
117.924702965257
 20
1.7771973450554
 42
0.0
  0
VERTEX
  8
1
 10
117.989133073473
 20
1.788703102526
 42
0.0
  0
VERTEX
  8
1
 10
118.053407056092
 20
1.8010512383296
 42
0.0
  0
VERTEX
  8
1
 10
118.117513900101
 20
1.8142396366767
 42
0.0
  0
VERTEX
  8
1
 10
118.181442621119
 20
1.8282660378033
 42
0.0
  0
VERTEX
  8
1
 10
118.245182265291
 20
1.8431280383574
 42
0.0
  0
VERTEX
  8
1
 10
118.308721911157
 20
1.858823091812
 42
0.0
  0
VERTEX
  8
1
 10
118.372050671524
 20
1.8753485089004
 42
0.0
  0
VERTEX
  8
1
 10
118.435157695337
 20
1.8927014580776
 42
0.0
  0
VERTEX
  8
1
 10
118.498032169531
 20
1.9108789660048
 42
0.0
  0
VERTEX
  8
1
 10
118.56066332089
 20
1.9298779180598
 42
0.0
  0
VERTEX
  8
1
 10
118.623040417887
 20
1.94969505887
 42
0.0
  0
VERTEX
  8
1
 10
118.685152772528
 20
1.9703269928702
 42
0.0
  0
VERTEX
  8
1
 10
118.746989742181
 20
1.9917701848849
 42
0.0
  0
VERTEX
  8
1
 10
118.808540731399
 20
2.0140209607333
 42
0.0
  0
VERTEX
  8
1
 10
118.869795193738
 20
2.0370755078598
 42
0.0
  0
VERTEX
  8
1
 10
118.930742633561
 20
2.0609298759862
 42
0.0
  0
VERTEX
  8
1
 10
118.991372607837
 20
2.0855799777893
 42
0.0
  0
VERTEX
  8
1
 10
119.051674727933
 20
2.1110215896013
 42
0.0
  0
VERTEX
  8
1
 10
119.111638661391
 20
2.1372503521328
 42
0.0
  0
VERTEX
  8
1
 10
119.171254133699
 20
2.1642617712204
 42
0.0
  0
VERTEX
  8
1
 10
119.230510930053
 20
2.1920512185965
 42
0.0
  0
VERTEX
  8
1
 10
119.289398897107
 20
2.2206139326823
 42
0.0
  0
VERTEX
  8
1
 10
119.34790794471
 20
2.249945019404
 42
0.0
  0
VERTEX
  8
1
 10
119.406028047637
 20
2.2800394530306
 42
0.0
  0
VERTEX
  8
1
 10
119.46374924731
 20
2.310892077036
 42
0.0
  0
VERTEX
  8
1
 10
119.521061653497
 20
2.3424976049818
 42
0.0
  0
VERTEX
  8
1
 10
119.577955446012
 20
2.3748506214236
 42
0.0
  0
VERTEX
  8
1
 10
119.634420876397
 20
2.4079455828385
 42
0.0
  0
VERTEX
  8
1
 10
119.690448269592
 20
2.4417768185754
 42
0.0
  0
VERTEX
  8
1
 10
119.74602802559
 20
2.476338531826
 42
0.0
  0
VERTEX
  8
1
 10
119.801150621087
 20
2.5116248006186
 42
0.0
  0
VERTEX
  8
1
 10
119.85580661111
 20
2.547629578833
 42
0.0
  0
VERTEX
  8
1
 10
119.909986630636
 20
2.5843466972357
 42
0.0
  0
VERTEX
  8
1
 10
119.963681396198
 20
2.6217698645373
 42
0.0
  0
VERTEX
  8
1
 10
120.016881707474
 20
2.659892668471
 42
0.0
  0
VERTEX
  8
1
 10
120.069578448865
 20
2.6987085768905
 42
0.0
  0
VERTEX
  8
1
 10
120.121762591055
 20
2.7382109388896
 42
0.0
  0
VERTEX
  8
1
 10
120.173425192561
 20
2.7783929859421
 42
0.0
  0
VERTEX
  8
1
 10
120.224557401261
 20
2.8192478330609
 42
0.0
  0
VERTEX
  8
1
 10
120.275150455915
 20
2.8607684799785
 42
0.0
  0
VERTEX
  8
1
 10
120.325195687663
 20
2.9029478123456
 42
0.0
  0
VERTEX
  8
1
 10
120.374684521512
 20
2.9457786029509
 42
0.0
  0
VERTEX
  8
1
 10
120.423608477806
 20
2.9892535129588
 42
0.0
  0
VERTEX
  8
1
 10
120.471959173676
 20
3.0333650931674
 42
0.0
  0
VERTEX
  8
1
 10
120.51972832448
 20
3.0781057852844
 42
0.0
  0
VERTEX
  8
1
 10
120.56690774522
 20
3.1234679232225
 42
0.0
  0
VERTEX
  8
1
 10
120.613489351944
 20
3.169443734413
 42
0.0
  0
VERTEX
  8
1
 10
120.659465163135
 20
3.2160253411374
 42
0.0
  0
VERTEX
  8
1
 10
120.704827301073
 20
3.263204761877
 42
0.0
  0
VERTEX
  8
1
 10
120.74956799319
 20
3.3109739126811
 42
0.0
  0
VERTEX
  8
1
 10
120.793679573399
 20
3.3593246085515
 42
0.0
  0
VERTEX
  8
1
 10
120.837154483407
 20
3.4082485648454
 42
0.0
  0
VERTEX
  8
1
 10
120.879985274012
 20
3.4577373986949
 42
0.0
  0
VERTEX
  8
1
 10
120.922164606379
 20
3.5077826304429
 42
0.0
  0
VERTEX
  8
1
 10
120.963685253297
 20
3.5583756850966
 42
0.0
  0
VERTEX
  8
1
 10
121.004540100415
 20
3.6095078937966
 42
0.0
  0
VERTEX
  8
1
 10
121.044722147468
 20
3.6611704953021
 42
0.0
  0
VERTEX
  8
1
 10
121.084224509467
 20
3.7133546374924
 42
0.0
  0
VERTEX
  8
1
 10
121.123040417886
 20
3.7660513788834
 42
0.0
  0
VERTEX
  8
1
 10
121.16116322182
 20
3.8192516901596
 42
0.0
  0
VERTEX
  8
1
 10
121.198586389122
 20
3.8729464557216
 42
0.0
  0
VERTEX
  8
1
 10
121.235303507525
 20
3.9271264752478
 42
0.0
  0
VERTEX
  8
1
 10
121.271308285739
 20
3.9817824652706
 42
0.0
  0
VERTEX
  8
1
 10
121.306594554532
 20
4.0369050607677
 42
0.0
  0
VERTEX
  8
1
 10
121.341156267782
 20
4.0924848167661
 42
0.0
  0
VERTEX
  8
1
 10
121.374987503519
 20
4.1485122099605
 42
0.0
  0
VERTEX
  8
1
 10
121.408082464934
 20
4.2049776403458
 42
0.0
  0
VERTEX
  8
1
 10
121.440435481376
 20
4.261871432861
 42
0.0
  0
VERTEX
  8
1
 10
121.472041009322
 20
4.3191838390477
 42
0.0
  0
VERTEX
  8
1
 10
121.502893633327
 20
4.3769050387202
 42
0.0
  0
VERTEX
  8
1
 10
121.532988066953
 20
4.435025141648
 42
0.0
  0
VERTEX
  8
1
 10
121.562319153675
 20
4.4935341892508
 42
0.0
  0
VERTEX
  8
1
 10
121.590881867761
 20
4.5524221563043
 42
0.0
  0
VERTEX
  8
1
 10
121.618671315137
 20
4.6116789526586
 42
0.0
  0
VERTEX
  8
1
 10
121.645682734225
 20
4.6712944249667
 42
0.0
  0
VERTEX
  8
1
 10
121.671911496756
 20
4.7312583584245
 42
0.0
  0
VERTEX
  8
1
 10
121.697353108568
 20
4.7915604785203
 42
0.0
  0
VERTEX
  8
1
 10
121.722003210371
 20
4.8521904527966
 42
0.0
  0
VERTEX
  8
1
 10
121.745857578498
 20
4.9131378926193
 42
0.0
  0
VERTEX
  8
1
 10
121.768912125624
 20
4.9743923549584
 42
0.0
  0
VERTEX
  8
1
 10
121.791162901473
 20
5.0359433441769
 42
0.0
  0
VERTEX
  8
1
 10
121.812606093487
 20
5.09778031383
 42
0.0
  0
VERTEX
  8
1
 10
121.833238027487
 20
5.159892668471
 42
0.0
  0
VERTEX
  8
1
 10
121.853055168298
 20
5.2222697654679
 42
0.0
  0
VERTEX
  8
1
 10
121.872054120353
 20
5.2849009168261
 42
0.0
  0
VERTEX
  8
1
 10
121.89023162828
 20
5.3477753910204
 42
0.0
  0
VERTEX
  8
1
 10
121.907584577457
 20
5.4108824148332
 42
0.0
  0
VERTEX
  8
1
 10
121.924109994546
 20
5.4742111752008
 42
0.0
  0
VERTEX
  8
1
 10
121.939805048
 20
5.5377508210662
 42
0.0
  0
VERTEX
  8
1
 10
121.954667048554
 20
5.6014904652383
 42
0.0
  0
VERTEX
  8
1
 10
121.968693449681
 20
5.6654191862569
 42
0.0
  0
VERTEX
  8
1
 10
121.981881848028
 20
5.7295260302651
 42
0.0
  0
VERTEX
  8
1
 10
121.994229983832
 20
5.7938000128851
 42
0.0
  0
VERTEX
  8
1
 10
122.005735741302
 20
5.8582301211006
 42
0.0
  0
VERTEX
  8
1
 10
122.016397148987
 20
5.9228053151446
 42
0.0
  0
VERTEX
  8
1
 10
122.02621238011
 20
5.9875145303898
 42
0.0
  0
VERTEX
  8
1
 10
122.035179752881
 20
6.0523466792455
 42
0.0
  0
VERTEX
  8
1
 10
122.043297730786
 20
6.1172906530566
 42
0.0
  0
VERTEX
  8
1
 10
122.050564922853
 20
6.1823353240075
 42
0.0
  0
VERTEX
  8
1
 10
122.056980083885
 20
6.2474695470288
 42
0.0
  0
VERTEX
  8
1
 10
122.062542114677
 20
6.3126821617066
 42
0.0
  0
VERTEX
  8
1
 10
122.067250062205
 20
6.3779619941951
 42
0.0
  0
VERTEX
  8
1
 10
122.071103119784
 20
6.443297859131
 42
0.0
  0
VERTEX
  8
1
 10
122.074100627215
 20
6.5086785615504
 42
0.0
  0
VERTEX
  8
1
 10
122.076242070889
 20
6.5740928988064
 42
0.0
  0
VERTEX
  8
1
 10
122.077527083882
 20
6.6395296624891
 42
0.0
  0
VERTEX
  8
1
 10
122.077955446012
 20
6.7049776403458
 42
0.0
  0
VERTEX
  8
1
 10
122.471739544332
 20
9.9550362555581
 42
0.0
  0
VERTEX
  8
1
 10
123.223416523145
 20
14.0551289161369
 42
0.0
  0
VERTEX
  8
1
 10
124.272878297095
 20
18.1213522504281
 42
0.0
  0
VERTEX
  8
1
 10
125.617248364408
 20
22.1425610229118
 42
0.0
  0
VERTEX
  8
1
 10
127.252841900174
 20
26.1077333798535
 42
0.0
  0
VERTEX
  8
1
 10
129.175175856203
 20
30.0060010594386
 42
0.0
  0
VERTEX
  8
1
 10
131.378981248739
 20
33.8266791809226
 42
0.0
  0
VERTEX
  8
1
 10
133.858217600386
 20
37.5592955311465
 42
0.0
  0
VERTEX
  8
1
 10
136.606089496634
 20
41.1936192681455
 42
0.0
  0
VERTEX
  8
1
 10
139.615065211617
 20
44.7196889631751
 42
0.0
  0
VERTEX
  8
1
 10
142.876897352054
 20
48.1278399042955
 42
0.0
  0
VERTEX
  8
1
 10
146.382645462772
 20
51.4087305866744
 42
0.0
  0
VERTEX
  8
1
 10
150.122700531884
 20
54.5533683170038
 42
0.0
  0
VERTEX
  8
1
 10
154.086811328411
 20
57.5531338618455
 42
0.0
  0
VERTEX
  8
1
 10
158.264112500203
 20
60.3998050723524
 42
0.0
  0
VERTEX
  8
1
 10
162.643154355109
 20
63.0855794206063
 42
0.0
  0
VERTEX
  8
1
 10
167.211934243788
 20
65.6030953858044
 42
0.0
  0
VERTEX
  8
1
 10
171.957929458136
 20
67.9454526316765
 42
0.0
  0
VERTEX
  8
1
 10
176.868131555162
 20
70.1062309198271
 42
0.0
  0
VERTEX
  8
1
 10
181.929082012221
 20
72.079507707162
 42
0.0
  0
VERTEX
  8
1
 10
187.126909115894
 20
73.8598743791679
 42
0.0
  0
VERTEX
  8
1
 10
192.447365983385
 20
75.4424510745487
 42
0.0
  0
VERTEX
  8
1
 10
197.875869612241
 20
76.8229000605859
 42
0.0
  0
VERTEX
  8
1
 10
203.397540851346
 20
77.9974376225626
 42
0.0
  0
VERTEX
  8
1
 10
208.99724518364
 20
78.9628444346627
 42
0.0
  0
VERTEX
  8
1
 10
214.659634208779
 20
79.7164743839185
 42
0.0
  0
VERTEX
  8
1
 10
220.369187712034
 20
80.2562618230235
 42
0.0
  0
VERTEX
  8
1
 10
226.110256204117
 20
80.5807272321272
 42
0.0
  0
VERTEX
  8
1
 10
231.867103815349
 20
80.6882572621946
 42
0.0
  0
VERTEX
  8
1
 10
261.869159294975
 20
80.6889812740964
 42
0.0
  0
VERTEX
  8
1
 10
261.869159294975
 20
85.6889812740964
 42
0.0
  0
VERTEX
  8
1
 10
311.869159294975
 20
85.6889812740964
 42
0.0
  0
VERTEX
  8
1
 10
311.869159294975
 20
80.6889812740964
 42
0.0
  0
VERTEX
  8
1
 10
361.869159294975
 20
80.6889812740964
 42
0.0
  0
VERTEX
  8
1
 10
361.869159294975
 20
85.6889812740964
 42
0.0
  0
VERTEX
  8
1
 10
411.869159294975
 20
85.6889812740964
 42
0.0
  0
VERTEX
  8
1
 10
411.869159294975
 20
80.6889812740964
 42
0.0
  0
VERTEX
  8
1
 10
461.869159294975
 20
80.6889812740964
 42
0.0
  0
VERTEX
  8
1
 10
461.869159294975
 20
85.6889812740964
 42
0.0
  0
VERTEX
  8
1
 10
511.869159294975
 20
85.6889812740964
 42
0.0
  0
VERTEX
  8
1
 10
511.869159294975
 20
80.6889812740964
 42
0.0
  0
VERTEX
  8
1
 10
561.869159294975
 20
80.6889812740965
 42
0.0
  0
VERTEX
  8
1
 10
561.869159294975
 20
85.6889812740965
 42
0.0
  0
VERTEX
  8
1
 10
619.887711366743
 20
85.6889812740961
 42
0.0
  0
SEQEND
  0
POLYLINE
  8
1
 66
     1
 10
0.0
 20
0.0
 30
0.0
 70
     1
  0
VERTEX
  8
1
 10
107.869159294975
 20
85.6982572621943
 42
0.0
  0
VERTEX
  8
1
 10
107.869159294975
 20
125.698257262195
 42
0.0
  0
VERTEX
  8
1
 10
111.869159294975
 20
125.698257262195
 42
0.0
  0
VERTEX
  8
1
 10
111.869159294975
 20
85.6982572621943
 42
0.0
  0
SEQEND
  0
LINE
  8
1
 10
111.869159294975
 20
80.6889812740964
 30
0.0
 11
111.869159294975
 21
80.6882572621946
 31
0.0
  0
POLYLINE
  8
1
 66
     1
 10
0.0
 20
0.0
 30
0.0
 70
     1
  0
VERTEX
  8
1
 10
211.869159294975
 20
130.707533250293
 42
0.0
  0
VERTEX
  8
1
 10
161.869159294975
 20
130.707533250293
 42
0.0
  0
VERTEX
  8
1
 10
161.869159294975
 20
125.708981274096
 42
0.0
  0
VERTEX
  8
1
 10
211.869159294975
 20
125.708981274096
 42
0.0
  0
SEQEND
  0
POLYLINE
  8
1
 66
     1
 10
0.0
 20
0.0
 30
0.0
 70
     1
  0
VERTEX
  8
1
 10
161.869159294975
 20
85.6889812740964
 42
0.0
  0
VERTEX
  8
1
 10
211.869159294975
 20
85.6889812740964
 42
0.0
  0
VERTEX
  8
1
 10
211.869159294975
 20
80.6889812740964
 42
0.0
  0
VERTEX
  8
1
 10
161.869159294975
 20
80.6889812740964
 42
0.0
  0
SEQEND
  0
POLYLINE
  8
1
 66
     1
 10
0.0
 20
0.0
 30
0.0
 70
     0
  0
VERTEX
  8
1
 10
140.849145511319
 20
24.4686206192499
 42
0.0
  0
VERTEX
  8
1
 10
140.375596737744
 20
24.4587797742686
 42
0.0
  0
VERTEX
  8
1
 10
139.900187505237
 20
24.4521063225915
 42
0.0
  0
VERTEX
  8
1
 10
139.423060926022
 20
24.4483566185798
 42
0.0
  0
VERTEX
  8
1
 10
138.944360112325
 20
24.4472870165948
 42
0.0
  0
VERTEX
  8
1
 10
138.464228176372
 20
24.4486538709977
 42
0.0
  0
VERTEX
  8
1
 10
137.982808230388
 20
24.4522135361497
 42
0.0
  0
VERTEX
  8
1
 10
137.500243386599
 20
24.457722366412
 42
0.0
  0
VERTEX
  8
1
 10
137.016676757231
 20
24.4649367161458
 42
0.0
  0
VERTEX
  8
1
 10
136.532251454509
 20
24.4736129397124
 42
0.0
  0
VERTEX
  8
1
 10
136.047110590659
 20
24.4835073914729
 42
0.0
  0
VERTEX
  8
1
 10
135.561397277906
 20
24.4943764257885
 42
0.0
  0
VERTEX
  8
1
 10
135.075254628477
 20
24.5059763970205
 42
0.0
  0
VERTEX
  8
1
 10
134.588825754596
 20
24.5180636595301
 42
0.0
  0
VERTEX
  8
1
 10
134.10225376849
 20
24.5303945676785
 42
0.0
  0
VERTEX
  8
1
 10
133.984635803309
 20
21.0671989468963
 42
0.0
  0
VERTEX
  8
1
 10
134.471207789415
 20
21.0795298550446
 42
0.0
  0
VERTEX
  8
1
 10
134.957636663296
 20
21.0916171175542
 42
0.0
  0
VERTEX
  8
1
 10
135.443779312725
 20
21.1032170887862
 42
0.0
  0
VERTEX
  8
1
 10
135.929492625478
 20
21.1140861231018
 42
0.0
  0
VERTEX
  8
1
 10
136.414633489328
 20
21.1239805748623
 42
0.0
  0
VERTEX
  8
1
 10
136.89905879205
 20
21.1326567984289
 42
0.0
  0
VERTEX
  8
1
 10
137.382625421418
 20
21.1398711481627
 42
0.0
  0
VERTEX
  8
1
 10
137.865190265207
 20
21.145379978425
 42
0.0
  0
VERTEX
  8
1
 10
138.346610211191
 20
21.148939643577
 42
0.0
  0
VERTEX
  8
1
 10
138.826742147144
 20
21.1503064979799
 42
0.0
  0
VERTEX
  8
1
 10
139.305442960841
 20
21.1492368959949
 42
0.0
  0
VERTEX
  8
1
 10
139.782569540056
 20
21.1454871919833
 42
0.0
  0
VERTEX
  8
1
 10
140.257978772563
 20
21.1388137403061
 42
0.0
  0
VERTEX
  8
1
 10
140.731527546138
 20
21.1289728953248
 42
0.0
  0
VERTEX
  8
1
 10
141.203072748553
 20
21.1157210114004
 42
0.0
  0
VERTEX
  8
1
 10
141.672471267585
 20
21.0988144428941
 42
0.0
  0
VERTEX
  8
1
 10
142.139579991006
 20
21.0780095441673
 42
0.0
  0
VERTEX
  8
1
 10
142.604255806591
 20
21.0530626695811
 42
0.0
  0
VERTEX
  8
1
 10
143.066355602116
 20
21.0237301734967
 42
0.0
  0
VERTEX
  8
1
 10
143.525736265353
 20
20.9897684102753
 42
0.0
  0
VERTEX
  8
1
 10
143.982254684078
 20
20.9509337342781
 42
0.0
  0
VERTEX
  8
1
 10
144.435767746065
 20
20.9069824998664
 42
0.0
  0
VERTEX
  8
1
 10
144.886132339088
 20
20.8576710614014
 42
0.0
  0
VERTEX
  8
1
 10
145.333205350921
 20
20.8027557732442
 42
0.0
  0
VERTEX
  8
1
 10
145.77684366934
 20
20.7419929897561
 42
0.0
  0
VERTEX
  8
1
 10
146.216904182118
 20
20.6751390652983
 42
0.0
  0
VERTEX
  8
1
 10
146.654587303897
 20
20.601793606647
 42
0.0
  0
VERTEX
  8
1
 10
147.088637281318
 20
20.5222627939908
 42
0.0
  0
VERTEX
  8
1
 10
147.519164209664
 20
20.4367340622997
 42
0.0
  0
VERTEX
  8
1
 10
147.94627818422
 20
20.3453948465433
 42
0.0
  0
VERTEX
  8
1
 10
148.370089300268
 20
20.2484325816917
 42
0.0
  0
VERTEX
  8
1
 10
148.790707653093
 20
20.1460347027145
 42
0.0
  0
VERTEX
  8
1
 10
149.208243337977
 20
20.0383886445816
 42
0.0
  0
VERTEX
  8
1
 10
149.622806450205
 20
19.925681842263
 42
0.0
  0
VERTEX
  8
1
 10
150.03450708506
 20
19.8081017307284
 42
0.0
  0
VERTEX
  8
1
 10
150.443455337825
 20
19.6858357449477
 42
0.0
  0
VERTEX
  8
1
 10
150.849761303785
 20
19.5590713198908
 42
0.0
  0
VERTEX
  8
1
 10
151.253535078223
 20
19.4279958905274
 42
0.0
  0
VERTEX
  8
1
 10
151.654886756421
 20
19.2927968918274
 42
0.0
  0
VERTEX
  8
1
 10
152.053926433665
 20
19.1536617587606
 42
0.0
  0
VERTEX
  8
1
 10
152.450764205237
 20
19.010777926297
 42
0.0
  0
VERTEX
  8
1
 10
152.845510166421
 20
18.8643328294064
 42
0.0
  0
VERTEX
  8
1
 10
153.238274412501
 20
18.7145139030585
 42
0.0
  0
VERTEX
  8
1
 10
153.62916703876
 20
18.5615085822233
 42
0.0
  0
VERTEX
  8
1
 10
154.018298140482
 20
18.4055043018706
 42
0.0
  0
VERTEX
  8
1
 10
154.40577781295
 20
18.2466884969702
 42
0.0
  0
VERTEX
  8
1
 10
154.791716151448
 20
18.0852486024919
 42
0.0
  0
VERTEX
  8
1
 10
155.176223251259
 20
17.9213720534057
 42
0.0
  0
VERTEX
  8
1
 10
155.559409207668
 20
17.7552462846814
 42
0.0
  0
VERTEX
  8
1
 10
155.941384115957
 20
17.5870587312887
 42
0.0
  0
VERTEX
  8
1
 10
156.32225807141
 20
17.4169968281977
 42
0.0
  0
VERTEX
  8
1
 10
156.702141169312
 20
17.245248010378
 42
0.0
  0
VERTEX
  8
1
 10
157.081143504944
 20
17.0719997127995
 42
0.0
  0
VERTEX
  8
1
 10
157.459375173592
 20
16.8974393704322
 42
0.0
  0
VERTEX
  8
1
 10
157.836946270538
 20
16.7217544182458
 42
0.0
  0
VERTEX
  8
1
 10
158.213966891067
 20
16.5451322912102
 42
0.0
  0
VERTEX
  8
1
 10
158.590547130461
 20
16.3677604242952
 42
0.0
  0
VERTEX
  8
1
 10
158.966797084004
 20
16.1898262524706
 42
0.0
  0
VERTEX
  8
1
 10
159.34282684698
 20
16.0115172107063
 42
0.0
  0
VERTEX
  8
1
 10
159.718746514673
 20
15.8330207339723
 42
0.0
  0
VERTEX
  8
1
 10
159.836364479854
 20
29.7645727806025
 42
0.0
  0
VERTEX
  8
1
 10
159.460444812161
 20
29.5860763038684
 42
0.0
  0
VERTEX
  8
1
 10
159.084415049185
 20
29.4077672621041
 42
0.0
  0
VERTEX
  8
1
 10
158.708165095642
 20
29.2298330902796
 42
0.0
  0
VERTEX
  8
1
 10
158.331584856248
 20
29.0524612233646
 42
0.0
  0
VERTEX
  8
1
 10
157.954564235719
 20
28.8758390963289
 42
0.0
  0
VERTEX
  8
1
 10
157.576993138773
 20
28.7001541441425
 42
0.0
  0
VERTEX
  8
1
 10
157.198761470126
 20
28.5255938017751
 42
0.0
  0
VERTEX
  8
1
 10
156.955205399161
 20
28.415826808439
 42
0.0
  0
VERTEX
  8
1
 10
156.71223361848
 20
28.3091489801104
 42
0.0
  0
VERTEX
  8
1
 10
156.508182979604
 20
28.2278082090095
 42
0.0
  0
VERTEX
  8
1
 10
156.303079697682
 20
28.1515211110581
 42
0.0
  0
VERTEX
  8
1
 10
156.182898046974
 20
28.113524150701
 42
0.0
  0
VERTEX
  8
1
 10
155.987669644366
 20
28.0561557991619
 42
0.0
  0
VERTEX
  8
1
 10
155.813969811112
 20
28.0146269311681
 42
0.0
  0
VERTEX
  8
1
 10
155.639414123849
 20
27.9771103121094
 42
0.0
  0
VERTEX
  8
1
 10
155.435946283403
 20
27.943352953368
 42
0.0
  0
VERTEX
  8
1
 10
155.231452867181
 20
27.9142832117609
 42
0.0
  0
VERTEX
  8
1
 10
154.981184148763
 20
27.890765025937
 42
0.0
  0
VERTEX
  8
1
 10
154.729609853562
 20
27.8729812043536
 42
0.0
  0
VERTEX
  8
1
 10
152.954083682691
 20
27.9283162958258
 42
0.0
  0
VERTEX
  8
1
 10
150.910624241443
 20
28.034370930845
 42
0.0
  0
VERTEX
  8
1
 10
150.397994849993
 20
28.034603832547
 42
0.0
  0
VERTEX
  8
1
 10
149.888247576587
 20
28.023006606061
 42
0.0
  0
VERTEX
  8
1
 10
149.527825558015
 20
27.9974139041611
 42
0.0
  0
VERTEX
  8
1
 10
149.169706882685
 20
27.9636197042569
 42
0.0
  0
VERTEX
  8
1
 10
148.883397565717
 20
27.9228328882322
 42
0.0
  0
VERTEX
  8
1
 10
148.599008179784
 20
27.8756067343463
 42
0.0
  0
VERTEX
  8
1
 10
148.354397003716
 20
27.8229777198641
 42
0.0
  0
VERTEX
  8
1
 10
148.111505946161
 20
27.7647782473723
 42
0.0
  0
VERTEX
  8
1
 10
147.89842022894
 20
27.7029038670417
 42
0.0
  0
VERTEX
  8
1
 10
147.686877856132
 20
27.6361489411751
 42
0.0
  0
VERTEX
  8
1
 10
147.495644363282
 20
27.5657250281438
 42
0.0
  0
VERTEX
  8
1
 10
147.305847752896
 20
27.4908359487471
 42
0.0
  0
VERTEX
  8
1
 10
147.110285821698
 20
27.4024683714723
 42
0.0
  0
VERTEX
  8
1
 10
146.913668551498
 20
27.3081738013253
 42
0.0
  0
VERTEX
  8
1
 10
146.663168418532
 20
27.1729438415381
 42
0.0
  0
VERTEX
  8
1
 10
146.414736552725
 20
27.0313794810224
 42
0.0
  0
VERTEX
  8
1
 10
145.589561752527
 20
26.4865784770838
 42
0.0
  0
VERTEX
  8
1
 10
144.77205975332
 20
25.9194903273319
 42
0.0
  0
VERTEX
  8
1
 10
144.308058827881
 20
25.6071142666393
 42
0.0
  0
VERTEX
  8
1
 10
143.840136085197
 20
25.3076021049355
 42
0.0
  0
VERTEX
  8
1
 10
143.592413350962
 20
25.1665795263629
 42
0.0
  0
VERTEX
  8
1
 10
143.342700144592
 20
25.0319507845124
 42
0.0
  0
VERTEX
  8
1
 10
143.146708724289
 20
24.9381651833837
 42
0.0
  0
VERTEX
  8
1
 10
142.949197533453
 20
24.8492356989821
 42
0.0
  0
VERTEX
  8
1
 10
142.781459638603
 20
24.783197839708
 42
0.0
  0
VERTEX
  8
1
 10
142.612474770398
 20
24.721133276284
 42
0.0
  0
VERTEX
  8
1
 10
142.461097944905
 20
24.6736045586664
 42
0.0
  0
VERTEX
  8
1
 10
142.308627680829
 20
24.6295536179788
 42
0.0
  0
VERTEX
  8
1
 10
142.125454792705
 20
24.5868606294369
 42
0.0
  0
VERTEX
  8
1
 10
142.02254536243
 20
24.5650307907791
 42
0.0
  0
VERTEX
  8
1
 10
141.851652231315
 20
24.5373558478898
 42
0.0
  0
VERTEX
  8
1
 10
141.679532846314
 20
24.5135744182159
 42
0.0
  0
VERTEX
  8
1
 10
141.247711698416
 20
24.4786204801649
 42
0.0
  0
VERTEX
  8
1
 10
140.812783915997
 20
24.4535305047897
 42
0.0
  0
SEQEND
  0
POLYLINE
  8
1
 66
     1
 10
0.0
 20
0.0
 30
0.0
 70
     1
  0
VERTEX
  8
1
 10
178.415361617246
 20
15.8162628015266
 42
0.0
  0
VERTEX
  8
1
 10
159.415361617246
 20
15.8162628015266
 42
0.0
  0
VERTEX
  8
1
 10
159.415361617246
 20
29.8162628015266
 42
0.0
  0
VERTEX
  8
1
 10
178.415361617246
 20
29.8162628015266
 42
0.0
  0
SEQEND
  0
POLYLINE
  8
1
 66
     1
 10
0.0
 20
0.0
 30
0.0
 70
     1
  0
VERTEX
  8
1
 10
215.415361617246
 20
22.8162628015266
 42
0.0
  0
VERTEX
  8
1
 10
215.099949669825
 20
25.3229274728127
 42
0.0
  0
VERTEX
  8
1
 10
214.158688062391
 20
27.7900605448237
 42
0.0
  0
VERTEX
  8
1
 10
212.606421052776
 20
30.1787538552202
 42
0.0
  0
VERTEX
  8
1
 10
210.467628819
 20
32.4513362835609
 42
0.0
  0
VERTEX
  8
1
 10
207.776041392244
 20
34.5719678473761
 42
0.0
  0
VERTEX
  8
1
 10
204.574106714102
 20
36.5072049201004
 42
0.0
  0
VERTEX
  8
1
 10
200.912321207193
 20
38.2265276570424
 42
0.0
  0
VERTEX
  8
1
 10
196.848433416405
 20
39.702821311567
 42
0.0
  0
VERTEX
  8
1
 10
192.446533279848
 20
40.912803850847
 42
0.0
  0
VERTEX
  8
1
 10
187.776041392244
 20
41.8373931274297
 42
0.0
  0
VERTEX
  8
1
 10
182.910614200675
 20
42.4620078161004
 42
0.0
  0
VERTEX
  8
1
 10
177.926982398418
 20
42.7767973700921
 42
0.0
  0
VERTEX
  8
1
 10
172.903740836073
 20
42.7767973700921
 42
0.0
  0
VERTEX
  8
1
 10
167.920109033817
 20
42.4620078161004
 42
0.0
  0
VERTEX
  8
1
 10
163.054681842248
 20
41.8373931274297
 42
0.0
  0
VERTEX
  8
1
 10
158.384189954643
 20
40.912803850847
 42
0.0
  0
VERTEX
  8
1
 10
153.982289818086
 20
39.702821311567
 42
0.0
  0
VERTEX
  8
1
 10
149.918402027298
 20
38.2265276570424
 42
0.0
  0
VERTEX
  8
1
 10
146.256616520389
 20
36.5072049201004
 42
0.0
  0
VERTEX
  8
1
 10
143.054681842248
 20
34.5719678473761
 42
0.0
  0
VERTEX
  8
1
 10
140.363094415491
 20
32.4513362835609
 42
0.0
  0
VERTEX
  8
1
 10
138.224302181716
 20
30.1787538552202
 42
0.0
  0
VERTEX
  8
1
 10
136.6720351721
 20
27.7900605448237
 42
0.0
  0
VERTEX
  8
1
 10
135.730773564666
 20
25.3229274728127
 42
0.0
  0
VERTEX
  8
1
 10
135.415361617246
 20
22.8162628015266
 42
0.0
  0
VERTEX
  8
1
 10
135.730773564666
 20
20.3095981302405
 42
0.0
  0
VERTEX
  8
1
 10
136.6720351721
 20
17.8424650582295
 42
0.0
  0
VERTEX
  8
1
 10
138.224302181716
 20
15.453771747833
 42
0.0
  0
VERTEX
  8
1
 10
140.363094415491
 20
13.1811893194923
 42
0.0
  0
VERTEX
  8
1
 10
143.054681842248
 20
11.0605577556772
 42
0.0
  0
VERTEX
  8
1
 10
146.256616520389
 20
9.1253206829529
 42
0.0
  0
VERTEX
  8
1
 10
149.918402027298
 20
7.4059979460108
 42
0.0
  0
VERTEX
  8
1
 10
153.982289818086
 20
5.9297042914863
 42
0.0
  0
VERTEX
  8
1
 10
158.384189954643
 20
4.7197217522062
 42
0.0
  0
VERTEX
  8
1
 10
163.054681842248
 20
3.7951324756236
 42
0.0
  0
VERTEX
  8
1
 10
167.920109033817
 20
3.1705177869529
 42
0.0
  0
VERTEX
  8
1
 10
172.903740836073
 20
2.8557282329612
 42
0.0
  0
VERTEX
  8
1
 10
177.926982398418
 20
2.8557282329612
 42
0.0
  0
VERTEX
  8
1
 10
182.910614200675
 20
3.1705177869529
 42
0.0
  0
VERTEX
  8
1
 10
187.776041392244
 20
3.7951324756236
 42
0.0
  0
VERTEX
  8
1
 10
192.446533279849
 20
4.7197217522063
 42
0.0
  0
VERTEX
  8
1
 10
196.848433416406
 20
5.9297042914864
 42
0.0
  0
VERTEX
  8
1
 10
200.912321207193
 20
7.4059979460109
 42
0.0
  0
VERTEX
  8
1
 10
204.574106714102
 20
9.1253206829529
 42
0.0
  0
VERTEX
  8
1
 10
207.776041392244
 20
11.0605577556772
 42
0.0
  0
VERTEX
  8
1
 10
210.467628819
 20
13.1811893194924
 42
0.0
  0
VERTEX
  8
1
 10
212.606421052776
 20
15.4537717478332
 42
0.0
  0
VERTEX
  8
1
 10
214.158688062391
 20
17.8424650582296
 42
0.0
  0
VERTEX
  8
1
 10
215.099949669825
 20
20.3095981302407
 42
0.0
  0
SEQEND
  0
POLYLINE
  8
1
 66
     1
 10
0.0
 20
0.0
 30
0.0
 70
     1
  0
VERTEX
  8
1
 10
148.432692664708
 20
22.8162628015261
 42
0.0
  0
VERTEX
  8
1
 10
148.452561817424
 20
22.5004516626727
 42
0.0
  0
VERTEX
  8
1
 10
148.511855927165
 20
22.1896210541345
 42
0.0
  0
VERTEX
  8
1
 10
148.609639890398
 20
21.8886729602908
 42
0.0
  0
VERTEX
  8
1
 10
148.744371595612
 20
21.6023535123589
 42
0.0
  0
VERTEX
  8
1
 10
148.913926243328
 20
21.3351781390711
 42
0.0
  0
VERTEX
  8
1
 10
149.115629855468
 20
21.0913603556672
 42
0.0
  0
VERTEX
  8
1
 10
149.346301445573
 20
20.8747453142414
 42
0.0
  0
VERTEX
  8
1
 10
149.602303184874
 20
20.6887491633964
 42
0.0
  0
VERTEX
  8
1
 10
149.879597773012
 20
20.5363051735398
 42
0.0
  0
VERTEX
  8
1
 10
150.173812108684
 20
20.4198174774573
 42
0.0
  0
VERTEX
  8
1
 10
150.480306256063
 20
20.3411231557022
 42
0.0
  0
VERTEX
  8
1
 10
150.794246619353
 20
20.3014632647387
 42
0.0
  0
VERTEX
  8
1
 10
151.110682171486
 20
20.3014632647387
 42
0.0
  0
VERTEX
  8
1
 10
151.424622534776
 20
20.3411231557022
 42
0.0
  0
VERTEX
  8
1
 10
151.731116682155
 20
20.4198174774572
 42
0.0
  0
VERTEX
  8
1
 10
152.025331017828
 20
20.5363051735399
 42
0.0
  0
VERTEX
  8
1
 10
152.302625605965
 20
20.6887491633964
 42
0.0
  0
VERTEX
  8
1
 10
152.558627345266
 20
20.8747453142414
 42
0.0
  0
VERTEX
  8
1
 10
152.789298935372
 20
21.0913603556672
 42
0.0
  0
VERTEX
  8
1
 10
152.991002547511
 20
21.3351781390709
 42
0.0
  0
VERTEX
  8
1
 10
153.160557195228
 20
21.602353512359
 42
0.0
  0
VERTEX
  8
1
 10
153.295288900441
 20
21.8886729602907
 42
0.0
  0
VERTEX
  8
1
 10
153.393072863675
 20
22.1896210541347
 42
0.0
  0
VERTEX
  8
1
 10
153.452366973415
 20
22.5004516626732
 42
0.0
  0
VERTEX
  8
1
 10
153.472236126131
 20
22.8162628015261
 42
0.0
  0
VERTEX
  8
1
 10
153.452366973415
 20
23.1320739403804
 42
0.0
  0
VERTEX
  8
1
 10
153.393072863675
 20
23.4429045489186
 42
0.0
  0
VERTEX
  8
1
 10
153.295288900441
 20
23.7438526427626
 42
0.0
  0
VERTEX
  8
1
 10
153.160557195228
 20
24.0301720906945
 42
0.0
  0
VERTEX
  8
1
 10
152.991002547511
 20
24.2973474639822
 42
0.0
  0
VERTEX
  8
1
 10
152.789298935372
 20
24.5411652473861
 42
0.0
  0
VERTEX
  8
1
 10
152.558627345265
 20
24.757780288812
 42
0.0
  0
VERTEX
  8
1
 10
152.302625605965
 20
24.9437764396568
 42
0.0
  0
VERTEX
  8
1
 10
152.025331017828
 20
25.0962204295135
 42
0.0
  0
VERTEX
  8
1
 10
151.731116682155
 20
25.212708125596
 42
0.0
  0
VERTEX
  8
1
 10
151.424622534776
 20
25.291402447351
 42
0.0
  0
VERTEX
  8
1
 10
151.110682171486
 20
25.3310623383146
 42
0.0
  0
VERTEX
  8
1
 10
150.794246619353
 20
25.3310623383146
 42
0.0
  0
VERTEX
  8
1
 10
150.480306256063
 20
25.291402447351
 42
0.0
  0
VERTEX
  8
1
 10
150.173812108684
 20
25.2127081255961
 42
0.0
  0
VERTEX
  8
1
 10
149.879597773012
 20
25.0962204295134
 42
0.0
  0
VERTEX
  8
1
 10
149.602303184874
 20
24.9437764396569
 42
0.0
  0
VERTEX
  8
1
 10
149.346301445574
 20
24.757780288812
 42
0.0
  0
VERTEX
  8
1
 10
149.115629855467
 20
24.5411652473858
 42
0.0
  0
VERTEX
  8
1
 10
148.913926243328
 20
24.2973474639823
 42
0.0
  0
VERTEX
  8
1
 10
148.744371595612
 20
24.0301720906949
 42
0.0
  0
VERTEX
  8
1
 10
148.609639890398
 20
23.7438526427618
 42
0.0
  0
VERTEX
  8
1
 10
148.511855927165
 20
23.4429045489185
 42
0.0
  0
VERTEX
  8
1
 10
148.452561817424
 20
23.1320739403807
 42
0.0
  0
SEQEND
  0
POLYLINE
  8
1
 66
     1
 10
0.0
 20
0.0
 30
0.0
 70
     1
  0
VERTEX
  8
1
 10
202.78504679206
 20
22.8162628015261
 42
0.0
  0
VERTEX
  8
1
 10
202.804915944776
 20
22.5004516626732
 42
0.0
  0
VERTEX
  8
1
 10
202.864210054516
 20
22.1896210541347
 42
0.0
  0
VERTEX
  8
1
 10
202.96199401775
 20
21.8886729602909
 42
0.0
  0
VERTEX
  8
1
 10
203.096725722963
 20
21.6023535123584
 42
0.0
  0
VERTEX
  8
1
 10
203.26628037068
 20
21.3351781390709
 42
0.0
  0
VERTEX
  8
1
 10
203.467983982819
 20
21.0913603556672
 42
0.0
  0
VERTEX
  8
1
 10
203.698655572925
 20
20.8747453142415
 42
0.0
  0
VERTEX
  8
1
 10
203.954657312226
 20
20.6887491633962
 42
0.0
  0
VERTEX
  8
1
 10
204.231951900363
 20
20.5363051735399
 42
0.0
  0
VERTEX
  8
1
 10
204.526166236036
 20
20.4198174774573
 42
0.0
  0
VERTEX
  8
1
 10
204.832660383415
 20
20.3411231557022
 42
0.0
  0
VERTEX
  8
1
 10
205.146600746705
 20
20.3014632647387
 42
0.0
  0
VERTEX
  8
1
 10
205.463036298838
 20
20.3014632647387
 42
0.0
  0
VERTEX
  8
1
 10
205.776976662128
 20
20.3411231557023
 42
0.0
  0
VERTEX
  8
1
 10
206.083470809507
 20
20.4198174774572
 42
0.0
  0
VERTEX
  8
1
 10
206.377685145179
 20
20.5363051735398
 42
0.0
  0
VERTEX
  8
1
 10
206.654979733317
 20
20.6887491633967
 42
0.0
  0
VERTEX
  8
1
 10
206.910981472617
 20
20.8747453142413
 42
0.0
  0
VERTEX
  8
1
 10
207.141653062723
 20
21.0913603556672
 42
0.0
  0
VERTEX
  8
1
 10
207.343356674862
 20
21.3351781390712
 42
0.0
  0
VERTEX
  8
1
 10
207.512911322579
 20
21.6023535123587
 42
0.0
  0
VERTEX
  8
1
 10
207.647643027793
 20
21.8886729602908
 42
0.0
  0
VERTEX
  8
1
 10
207.745426991026
 20
22.1896210541349
 42
0.0
  0
VERTEX
  8
1
 10
207.804721100767
 20
22.5004516626727
 42
0.0
  0
VERTEX
  8
1
 10
207.824590253483
 20
22.8162628015261
 42
0.0
  0
VERTEX
  8
1
 10
207.804721100767
 20
23.1320739403807
 42
0.0
  0
VERTEX
  8
1
 10
207.745426991026
 20
23.4429045489182
 42
0.0
  0
VERTEX
  8
1
 10
207.647643027793
 20
23.7438526427628
 42
0.0
  0
VERTEX
  8
1
 10
207.51291132258
 20
24.0301720906941
 42
0.0
  0
VERTEX
  8
1
 10
207.343356674862
 20
24.2973474639825
 42
0.0
  0
VERTEX
  8
1
 10
207.141653062723
 20
24.5411652473862
 42
0.0
  0
VERTEX
  8
1
 10
206.910981472617
 20
24.7577802888119
 42
0.0
  0
VERTEX
  8
1
 10
206.654979733317
 20
24.9437764396568
 42
0.0
  0
VERTEX
  8
1
 10
206.377685145179
 20
25.0962204295135
 42
0.0
  0
VERTEX
  8
1
 10
206.083470809507
 20
25.2127081255961
 42
0.0
  0
VERTEX
  8
1
 10
205.776976662128
 20
25.2914024473511
 42
0.0
  0
VERTEX
  8
1
 10
205.463036298838
 20
25.3310623383146
 42
0.0
  0
VERTEX
  8
1
 10
205.146600746705
 20
25.3310623383146
 42
0.0
  0
VERTEX
  8
1
 10
204.832660383415
 20
25.2914024473511
 42
0.0
  0
VERTEX
  8
1
 10
204.526166236036
 20
25.212708125596
 42
0.0
  0
VERTEX
  8
1
 10
204.231951900363
 20
25.0962204295135
 42
0.0
  0
VERTEX
  8
1
 10
203.954657312226
 20
24.943776439657
 42
0.0
  0
VERTEX
  8
1
 10
203.698655572925
 20
24.7577802888118
 42
0.0
  0
VERTEX
  8
1
 10
203.467983982819
 20
24.5411652473858
 42
0.0
  0
VERTEX
  8
1
 10
203.26628037068
 20
24.2973474639826
 42
0.0
  0
VERTEX
  8
1
 10
203.096725722963
 20
24.0301720906945
 42
0.0
  0
VERTEX
  8
1
 10
202.96199401775
 20
23.7438526427617
 42
0.0
  0
VERTEX
  8
1
 10
202.864210054516
 20
23.4429045489187
 42
0.0
  0
VERTEX
  8
1
 10
202.804915944776
 20
23.1320739403809
 42
0.0
  0
SEQEND
  0
TEXT
  8
1
 10
500.401569915053
 20
227.597630350313
 30
0.0
 40
4.0
  1
Hier eine Tasche fraesen, in die die Seitenwaende eingelassen werden!
 72
     0
 73
     1
  0
TEXT
  8
1
 10
301.788641617683
 20
68.051277374842
 30
0.0
 40
4.0
  1
Hier genuegend tiefe Taschen fraesen, sodass der 
 72
     0
 73
     1
  0
TEXT
  8
1
 10
301.788641617683
 20
48.0512770328023
 30
0.0
 40
4.0
  1
Beschleunigungssensor komplett darin aufgenommen wird
 72
     0
 73
     1
  0
TEXT
  8
1
 10
301.788641617683
 20
28.0512766907626
 30
0.0
 40
4.0
  1
und die beiden Deckel passend aufeinander geschraubt 
 72
     0
 73
     1
  0
TEXT
  8
1
 10
301.788641617683
 20
8.0512763487229
 30
0.0
 40
4.0
  1
werden koennen!
 72
     0
 73
     1
  0
TEXT
  8
1
 10
160.428929895829
 20
-21.6818668167068
 30
0.0
 40
4.0
  1
Hier eine Tasche fuer die Anschlusskabel fraesen!
 72
     0
 73
     1
  0
LINE
  8
1
 10
606.29468729809
 20
225.064302127071
 30
0.0
 11
712.187804681127
 21
216.957651812696
 31
0.0
  0
LINE
  8
1
 10
294.695322749919
 20
71.5446117986015
 30
0.0
 11
245.548756308988
 21
58.3713050377427
 31
0.0
  0
LINE
  8
1
 10
297.228650916978
 20
70.0246148646562
 30
0.0
 11
169.548911297239
 21
21.8913786230568
 31
0.0
  0
LINE
  8
1
 10
157.895601728771
 20
-19.1485385934648
 30
0.0
 11
144.215629626656
 21
22.3980442677052
 31
0.0
  0
ENDSEC
  0
EOF
